<svg width="791" height="940" viewBox="0 0 791 940" fill="none" xmlns="http://www.w3.org/2000/svg">
<rect width="790.45" height="939.37" rx="25" fill="white"/>
<path d="M199.876 230.48C197.716 230.48 195.703 230.133 193.836 229.44C191.996 228.72 190.396 227.707 189.036 226.4C187.676 225.093 186.61 223.56 185.836 221.8C185.09 220.04 184.716 218.107 184.716 216C184.716 213.893 185.09 211.96 185.836 210.2C186.61 208.44 187.676 206.907 189.036 205.6C190.423 204.293 192.036 203.293 193.876 202.6C195.716 201.88 197.73 201.52 199.916 201.52C202.343 201.52 204.53 201.947 206.476 202.8C208.45 203.627 210.103 204.853 211.436 206.48L207.276 210.32C206.316 209.227 205.25 208.413 204.076 207.88C202.903 207.32 201.623 207.04 200.236 207.04C198.93 207.04 197.73 207.253 196.636 207.68C195.543 208.107 194.596 208.72 193.796 209.52C192.996 210.32 192.37 211.267 191.916 212.36C191.49 213.453 191.276 214.667 191.276 216C191.276 217.333 191.49 218.547 191.916 219.64C192.37 220.733 192.996 221.68 193.796 222.48C194.596 223.28 195.543 223.893 196.636 224.32C197.73 224.747 198.93 224.96 200.236 224.96C201.623 224.96 202.903 224.693 204.076 224.16C205.25 223.6 206.316 222.76 207.276 221.64L211.436 225.48C210.103 227.107 208.45 228.347 206.476 229.2C204.53 230.053 202.33 230.48 199.876 230.48ZM215.372 230V208.48H221.332V214.56L220.492 212.8C221.132 211.28 222.159 210.133 223.572 209.36C224.986 208.56 226.706 208.16 228.732 208.16V213.92C228.466 213.893 228.226 213.88 228.012 213.88C227.799 213.853 227.572 213.84 227.332 213.84C225.626 213.84 224.239 214.333 223.172 215.32C222.132 216.28 221.612 217.787 221.612 219.84V230H215.372ZM242.966 230.32C240.513 230.32 238.353 229.84 236.486 228.88C234.646 227.92 233.22 226.613 232.206 224.96C231.193 223.28 230.686 221.373 230.686 219.24C230.686 217.08 231.18 215.173 232.166 213.52C233.18 211.84 234.553 210.533 236.286 209.6C238.02 208.64 239.98 208.16 242.166 208.16C244.273 208.16 246.166 208.613 247.846 209.52C249.553 210.4 250.9 211.68 251.886 213.36C252.873 215.013 253.366 217 253.366 219.32C253.366 219.56 253.353 219.84 253.326 220.16C253.3 220.453 253.273 220.733 253.246 221H235.766V217.36H249.966L247.566 218.44C247.566 217.32 247.34 216.347 246.886 215.52C246.433 214.693 245.806 214.053 245.006 213.6C244.206 213.12 243.273 212.88 242.206 212.88C241.14 212.88 240.193 213.12 239.366 213.6C238.566 214.053 237.94 214.707 237.486 215.56C237.033 216.387 236.806 217.373 236.806 218.52V219.48C236.806 220.653 237.06 221.693 237.566 222.6C238.1 223.48 238.833 224.16 239.766 224.64C240.726 225.093 241.846 225.32 243.126 225.32C244.273 225.32 245.273 225.147 246.126 224.8C247.006 224.453 247.806 223.933 248.526 223.24L251.846 226.84C250.86 227.96 249.62 228.827 248.126 229.44C246.633 230.027 244.913 230.32 242.966 230.32ZM270.135 230V225.8L269.735 224.88V217.36C269.735 216.027 269.321 214.987 268.495 214.24C267.695 213.493 266.455 213.12 264.775 213.12C263.628 213.12 262.495 213.307 261.375 213.68C260.281 214.027 259.348 214.507 258.575 215.12L256.335 210.76C257.508 209.933 258.921 209.293 260.575 208.84C262.228 208.387 263.908 208.16 265.615 208.16C268.895 208.16 271.441 208.933 273.255 210.48C275.068 212.027 275.975 214.44 275.975 217.72V230H270.135ZM263.575 230.32C261.895 230.32 260.455 230.04 259.255 229.48C258.055 228.893 257.135 228.107 256.495 227.12C255.855 226.133 255.535 225.027 255.535 223.8C255.535 222.52 255.841 221.4 256.455 220.44C257.095 219.48 258.095 218.733 259.455 218.2C260.815 217.64 262.588 217.36 264.775 217.36H270.495V221H265.455C263.988 221 262.975 221.24 262.415 221.72C261.881 222.2 261.615 222.8 261.615 223.52C261.615 224.32 261.921 224.96 262.535 225.44C263.175 225.893 264.041 226.12 265.135 226.12C266.175 226.12 267.108 225.88 267.935 225.4C268.761 224.893 269.361 224.16 269.735 223.2L270.695 226.08C270.241 227.467 269.415 228.52 268.215 229.24C267.015 229.96 265.468 230.32 263.575 230.32ZM290.422 230.32C287.889 230.32 285.916 229.68 284.502 228.4C283.089 227.093 282.382 225.16 282.382 222.6V203.72H288.622V222.52C288.622 223.427 288.862 224.133 289.342 224.64C289.822 225.12 290.476 225.36 291.302 225.36C292.289 225.36 293.129 225.093 293.822 224.56L295.502 228.96C294.862 229.413 294.089 229.76 293.182 230C292.302 230.213 291.382 230.32 290.422 230.32ZM279.062 213.76V208.96H293.982V213.76H279.062ZM309.021 230.32C306.568 230.32 304.408 229.84 302.541 228.88C300.701 227.92 299.274 226.613 298.261 224.96C297.248 223.28 296.741 221.373 296.741 219.24C296.741 217.08 297.234 215.173 298.221 213.52C299.234 211.84 300.608 210.533 302.341 209.6C304.074 208.64 306.034 208.16 308.221 208.16C310.328 208.16 312.221 208.613 313.901 209.52C315.608 210.4 316.954 211.68 317.941 213.36C318.928 215.013 319.421 217 319.421 219.32C319.421 219.56 319.408 219.84 319.381 220.16C319.354 220.453 319.328 220.733 319.301 221H301.821V217.36H316.021L313.621 218.44C313.621 217.32 313.394 216.347 312.941 215.52C312.488 214.693 311.861 214.053 311.061 213.6C310.261 213.12 309.328 212.88 308.261 212.88C307.194 212.88 306.248 213.12 305.421 213.6C304.621 214.053 303.994 214.707 303.541 215.56C303.088 216.387 302.861 217.373 302.861 218.52V219.48C302.861 220.653 303.114 221.693 303.621 222.6C304.154 223.48 304.888 224.16 305.821 224.64C306.781 225.093 307.901 225.32 309.181 225.32C310.328 225.32 311.328 225.147 312.181 224.8C313.061 224.453 313.861 223.933 314.581 223.24L317.901 226.84C316.914 227.96 315.674 228.827 314.181 229.44C312.688 230.027 310.968 230.32 309.021 230.32ZM337.623 238.08C336.503 238.08 335.397 237.907 334.303 237.56C333.21 237.213 332.317 236.733 331.623 236.12L333.903 231.68C334.383 232.107 334.93 232.44 335.543 232.68C336.183 232.92 336.81 233.04 337.423 233.04C338.303 233.04 338.997 232.827 339.503 232.4C340.037 232 340.517 231.32 340.943 230.36L342.063 227.72L342.543 227.04L350.263 208.48H356.263L346.543 231.32C345.85 233.053 345.05 234.413 344.143 235.4C343.263 236.387 342.277 237.08 341.183 237.48C340.117 237.88 338.93 238.08 337.623 238.08ZM341.303 230.84L331.703 208.48H338.143L345.583 226.48L341.303 230.84ZM368.464 230.32C366.17 230.32 364.13 229.84 362.344 228.88C360.584 227.92 359.184 226.613 358.144 224.96C357.13 223.28 356.624 221.373 356.624 219.24C356.624 217.08 357.13 215.173 358.144 213.52C359.184 211.84 360.584 210.533 362.344 209.6C364.13 208.64 366.17 208.16 368.464 208.16C370.73 208.16 372.757 208.64 374.544 209.6C376.33 210.533 377.73 211.827 378.744 213.48C379.757 215.133 380.264 217.053 380.264 219.24C380.264 221.373 379.757 223.28 378.744 224.96C377.73 226.613 376.33 227.92 374.544 228.88C372.757 229.84 370.73 230.32 368.464 230.32ZM368.464 225.2C369.504 225.2 370.437 224.96 371.264 224.48C372.09 224 372.744 223.32 373.224 222.44C373.704 221.533 373.944 220.467 373.944 219.24C373.944 217.987 373.704 216.92 373.224 216.04C372.744 215.16 372.09 214.48 371.264 214C370.437 213.52 369.504 213.28 368.464 213.28C367.424 213.28 366.49 213.52 365.664 214C364.837 214.48 364.17 215.16 363.664 216.04C363.184 216.92 362.944 217.987 362.944 219.24C362.944 220.467 363.184 221.533 363.664 222.44C364.17 223.32 364.837 224 365.664 224.48C366.49 224.96 367.424 225.2 368.464 225.2ZM393.515 230.32C391.728 230.32 390.128 229.973 388.715 229.28C387.328 228.587 386.248 227.533 385.475 226.12C384.701 224.68 384.315 222.853 384.315 220.64V208.48H390.555V219.72C390.555 221.507 390.928 222.827 391.675 223.68C392.448 224.507 393.528 224.92 394.915 224.92C395.875 224.92 396.728 224.72 397.475 224.32C398.221 223.893 398.808 223.253 399.235 222.4C399.661 221.52 399.875 220.427 399.875 219.12V208.48H406.115V230H400.195V224.08L401.275 225.8C400.555 227.293 399.488 228.427 398.075 229.2C396.688 229.947 395.168 230.32 393.515 230.32ZM411.896 230V208.48H417.856V214.56L417.016 212.8C417.656 211.28 418.682 210.133 420.096 209.36C421.509 208.56 423.229 208.16 425.256 208.16V213.92C424.989 213.893 424.749 213.88 424.536 213.88C424.322 213.853 424.096 213.84 423.856 213.84C422.149 213.84 420.762 214.333 419.696 215.32C418.656 216.28 418.136 217.787 418.136 219.84V230H411.896ZM453.65 230V225.8L453.25 224.88V217.36C453.25 216.027 452.837 214.987 452.01 214.24C451.21 213.493 449.97 213.12 448.29 213.12C447.144 213.12 446.01 213.307 444.89 213.68C443.797 214.027 442.864 214.507 442.09 215.12L439.85 210.76C441.024 209.933 442.437 209.293 444.09 208.84C445.744 208.387 447.424 208.16 449.13 208.16C452.41 208.16 454.957 208.933 456.77 210.48C458.584 212.027 459.49 214.44 459.49 217.72V230H453.65ZM447.09 230.32C445.41 230.32 443.97 230.04 442.77 229.48C441.57 228.893 440.65 228.107 440.01 227.12C439.37 226.133 439.05 225.027 439.05 223.8C439.05 222.52 439.357 221.4 439.97 220.44C440.61 219.48 441.61 218.733 442.97 218.2C444.33 217.64 446.104 217.36 448.29 217.36H454.01V221H448.97C447.504 221 446.49 221.24 445.93 221.72C445.397 222.2 445.13 222.8 445.13 223.52C445.13 224.32 445.437 224.96 446.05 225.44C446.69 225.893 447.557 226.12 448.65 226.12C449.69 226.12 450.624 225.88 451.45 225.4C452.277 224.893 452.877 224.16 453.25 223.2L454.21 226.08C453.757 227.467 452.93 228.52 451.73 229.24C450.53 229.96 448.984 230.32 447.09 230.32ZM475.694 230.32C473.374 230.32 471.307 229.853 469.494 228.92C467.681 227.96 466.254 226.64 465.214 224.96C464.201 223.28 463.694 221.373 463.694 219.24C463.694 217.08 464.201 215.173 465.214 213.52C466.254 211.84 467.681 210.533 469.494 209.6C471.307 208.64 473.374 208.16 475.694 208.16C477.961 208.16 479.934 208.64 481.614 209.6C483.294 210.533 484.534 211.88 485.334 213.64L480.494 216.24C479.934 215.227 479.227 214.48 478.374 214C477.547 213.52 476.641 213.28 475.654 213.28C474.587 213.28 473.627 213.52 472.774 214C471.921 214.48 471.241 215.16 470.734 216.04C470.254 216.92 470.014 217.987 470.014 219.24C470.014 220.493 470.254 221.56 470.734 222.44C471.241 223.32 471.921 224 472.774 224.48C473.627 224.96 474.587 225.2 475.654 225.2C476.641 225.2 477.547 224.973 478.374 224.52C479.227 224.04 479.934 223.28 480.494 222.24L485.334 224.88C484.534 226.613 483.294 227.96 481.614 228.92C479.934 229.853 477.961 230.32 475.694 230.32ZM499.053 230.32C496.733 230.32 494.667 229.853 492.853 228.92C491.04 227.96 489.613 226.64 488.573 224.96C487.56 223.28 487.053 221.373 487.053 219.24C487.053 217.08 487.56 215.173 488.573 213.52C489.613 211.84 491.04 210.533 492.853 209.6C494.667 208.64 496.733 208.16 499.053 208.16C501.32 208.16 503.293 208.64 504.973 209.6C506.653 210.533 507.893 211.88 508.693 213.64L503.853 216.24C503.293 215.227 502.587 214.48 501.733 214C500.907 213.52 500 213.28 499.013 213.28C497.947 213.28 496.987 213.52 496.133 214C495.28 214.48 494.6 215.16 494.093 216.04C493.613 216.92 493.373 217.987 493.373 219.24C493.373 220.493 493.613 221.56 494.093 222.44C494.6 223.32 495.28 224 496.133 224.48C496.987 224.96 497.947 225.2 499.013 225.2C500 225.2 500.907 224.973 501.733 224.52C502.587 224.04 503.293 223.28 503.853 222.24L508.693 224.88C507.893 226.613 506.653 227.96 504.973 228.92C503.293 229.853 501.32 230.32 499.053 230.32ZM522.253 230.32C519.959 230.32 517.919 229.84 516.133 228.88C514.373 227.92 512.973 226.613 511.933 224.96C510.919 223.28 510.413 221.373 510.413 219.24C510.413 217.08 510.919 215.173 511.933 213.52C512.973 211.84 514.373 210.533 516.133 209.6C517.919 208.64 519.959 208.16 522.253 208.16C524.519 208.16 526.546 208.64 528.333 209.6C530.119 210.533 531.519 211.827 532.533 213.48C533.546 215.133 534.053 217.053 534.053 219.24C534.053 221.373 533.546 223.28 532.533 224.96C531.519 226.613 530.119 227.92 528.333 228.88C526.546 229.84 524.519 230.32 522.253 230.32ZM522.253 225.2C523.293 225.2 524.226 224.96 525.053 224.48C525.879 224 526.533 223.32 527.013 222.44C527.493 221.533 527.733 220.467 527.733 219.24C527.733 217.987 527.493 216.92 527.013 216.04C526.533 215.16 525.879 214.48 525.053 214C524.226 213.52 523.293 213.28 522.253 213.28C521.213 213.28 520.279 213.52 519.453 214C518.626 214.48 517.959 215.16 517.453 216.04C516.973 216.92 516.733 217.987 516.733 219.24C516.733 220.467 516.973 221.533 517.453 222.44C517.959 223.32 518.626 224 519.453 224.48C520.279 224.96 521.213 225.2 522.253 225.2ZM547.304 230.32C545.517 230.32 543.917 229.973 542.504 229.28C541.117 228.587 540.037 227.533 539.264 226.12C538.49 224.68 538.104 222.853 538.104 220.64V208.48H544.344V219.72C544.344 221.507 544.717 222.827 545.464 223.68C546.237 224.507 547.317 224.92 548.704 224.92C549.664 224.92 550.517 224.72 551.264 224.32C552.01 223.893 552.597 223.253 553.024 222.4C553.45 221.52 553.664 220.427 553.664 219.12V208.48H559.904V230H553.984V224.08L555.064 225.8C554.344 227.293 553.277 228.427 551.864 229.2C550.477 229.947 548.957 230.32 547.304 230.32ZM578.765 208.16C580.471 208.16 581.991 208.507 583.325 209.2C584.685 209.867 585.751 210.907 586.525 212.32C587.298 213.707 587.685 215.493 587.685 217.68V230H581.445V218.64C581.445 216.907 581.058 215.627 580.285 214.8C579.538 213.973 578.471 213.56 577.085 213.56C576.098 213.56 575.205 213.773 574.405 214.2C573.631 214.6 573.018 215.227 572.565 216.08C572.138 216.933 571.925 218.027 571.925 219.36V230H565.685V208.48H571.645V214.44L570.525 212.64C571.298 211.2 572.405 210.093 573.845 209.32C575.285 208.547 576.925 208.16 578.765 208.16ZM602.141 230.32C599.608 230.32 597.634 229.68 596.221 228.4C594.808 227.093 594.101 225.16 594.101 222.6V203.72H600.341V222.52C600.341 223.427 600.581 224.133 601.061 224.64C601.541 225.12 602.194 225.36 603.021 225.36C604.008 225.36 604.848 225.093 605.541 224.56L607.221 228.96C606.581 229.413 605.808 229.76 604.901 230C604.021 230.213 603.101 230.32 602.141 230.32ZM590.781 213.76V208.96H605.701V213.76H590.781Z" fill="#333333"/>
<rect x="133.183" y="308.354" width="524.085" height="58.9067" rx="9.5" fill="#F6F8F6"/>
<rect x="133.183" y="308.354" width="524.085" height="58.9067" rx="9.5" stroke="#A0C339"/>
<path d="M146.023 337.247H153.603V338.147H146.023V337.247ZM146.143 343.887H154.783V344.807H145.123V330.807H154.483V331.727H146.143V343.887ZM171.182 334.287C172.022 334.287 172.748 334.454 173.362 334.787C173.988 335.107 174.475 335.6 174.822 336.267C175.168 336.92 175.342 337.734 175.342 338.707V344.807H174.342V338.787C174.342 337.614 174.055 336.72 173.482 336.107C172.908 335.494 172.108 335.187 171.082 335.187C170.295 335.187 169.615 335.354 169.042 335.687C168.468 336.02 168.028 336.487 167.722 337.087C167.415 337.687 167.262 338.407 167.262 339.247V344.807H166.262V338.787C166.262 337.614 165.975 336.72 165.402 336.107C164.828 335.494 164.028 335.187 163.002 335.187C162.215 335.187 161.535 335.354 160.962 335.687C160.388 336.02 159.948 336.487 159.642 337.087C159.335 337.687 159.182 338.407 159.182 339.247V344.807H158.182V334.367H159.142V337.247L159.002 336.927C159.308 336.114 159.822 335.474 160.542 335.007C161.262 334.527 162.128 334.287 163.142 334.287C164.182 334.287 165.055 334.554 165.762 335.087C166.482 335.607 166.935 336.387 167.122 337.427L166.782 337.287C167.062 336.394 167.588 335.674 168.362 335.127C169.135 334.567 170.075 334.287 171.182 334.287ZM186.051 344.807V342.427L186.011 342.067V338.147C186.011 337.174 185.744 336.434 185.211 335.927C184.691 335.42 183.924 335.167 182.911 335.167C182.191 335.167 181.517 335.294 180.891 335.547C180.277 335.787 179.751 336.1 179.311 336.487L178.811 335.767C179.331 335.3 179.957 334.94 180.691 334.687C181.424 334.42 182.191 334.287 182.991 334.287C184.284 334.287 185.277 334.614 185.971 335.267C186.664 335.92 187.011 336.894 187.011 338.187V344.807H186.051ZM182.291 344.887C181.517 344.887 180.844 344.767 180.271 344.527C179.711 344.274 179.277 343.92 178.971 343.467C178.677 343.014 178.531 342.494 178.531 341.907C178.531 341.374 178.651 340.894 178.891 340.467C179.144 340.027 179.557 339.674 180.131 339.407C180.704 339.127 181.471 338.987 182.431 338.987H186.271V339.767H182.451C181.371 339.767 180.611 339.967 180.171 340.367C179.744 340.767 179.531 341.267 179.531 341.867C179.531 342.534 179.784 343.067 180.291 343.467C180.797 343.867 181.511 344.067 182.431 344.067C183.311 344.067 184.051 343.867 184.651 343.467C185.264 343.067 185.717 342.487 186.011 341.727L186.291 342.407C186.011 343.167 185.531 343.774 184.851 344.227C184.184 344.667 183.331 344.887 182.291 344.887ZM191.131 344.807V334.367H192.131V344.807H191.131ZM191.631 331.827C191.404 331.827 191.211 331.747 191.051 331.587C190.891 331.427 190.811 331.24 190.811 331.027C190.811 330.8 190.891 330.607 191.051 330.447C191.211 330.287 191.404 330.207 191.631 330.207C191.871 330.207 192.064 330.287 192.211 330.447C192.371 330.594 192.451 330.78 192.451 331.007C192.451 331.234 192.371 331.427 192.211 331.587C192.064 331.747 191.871 331.827 191.631 331.827ZM196.346 344.807V329.967H197.346V344.807H196.346Z" fill="#64748B"/>
<rect x="475.211" y="729.696" width="182.556" height="59.9067" rx="10" fill="#28544A"/>
<path d="M526.349 766.89C525.269 766.89 524.262 766.716 523.329 766.37C522.409 766.01 521.609 765.503 520.929 764.85C520.249 764.196 519.716 763.43 519.329 762.55C518.956 761.67 518.769 760.703 518.769 759.65C518.769 758.596 518.956 757.63 519.329 756.75C519.716 755.87 520.249 755.103 520.929 754.45C521.622 753.796 522.429 753.296 523.349 752.95C524.269 752.59 525.276 752.41 526.369 752.41C527.582 752.41 528.676 752.623 529.649 753.05C530.636 753.463 531.462 754.076 532.129 754.89L530.049 756.81C529.569 756.263 529.036 755.856 528.449 755.59C527.862 755.31 527.222 755.17 526.529 755.17C525.876 755.17 525.276 755.276 524.729 755.49C524.182 755.703 523.709 756.01 523.309 756.41C522.909 756.81 522.596 757.283 522.369 757.83C522.156 758.376 522.049 758.983 522.049 759.65C522.049 760.316 522.156 760.923 522.369 761.47C522.596 762.016 522.909 762.49 523.309 762.89C523.709 763.29 524.182 763.596 524.729 763.81C525.276 764.023 525.876 764.13 526.529 764.13C527.222 764.13 527.862 763.996 528.449 763.73C529.036 763.45 529.569 763.03 530.049 762.47L532.129 764.39C531.462 765.203 530.636 765.823 529.649 766.25C528.676 766.676 527.576 766.89 526.349 766.89ZM538.846 766.81C537.699 766.81 536.679 766.57 535.786 766.09C534.906 765.61 534.206 764.956 533.686 764.13C533.179 763.29 532.926 762.336 532.926 761.27C532.926 760.19 533.179 759.236 533.686 758.41C534.206 757.57 534.906 756.916 535.786 756.45C536.679 755.97 537.699 755.73 538.846 755.73C539.979 755.73 540.993 755.97 541.886 756.45C542.779 756.916 543.479 757.563 543.986 758.39C544.493 759.216 544.746 760.176 544.746 761.27C544.746 762.336 544.493 763.29 543.986 764.13C543.479 764.956 542.779 765.61 541.886 766.09C540.993 766.57 539.979 766.81 538.846 766.81ZM538.846 764.25C539.366 764.25 539.833 764.13 540.246 763.89C540.659 763.65 540.986 763.31 541.226 762.87C541.466 762.416 541.586 761.883 541.586 761.27C541.586 760.643 541.466 760.11 541.226 759.67C540.986 759.23 540.659 758.89 540.246 758.65C539.833 758.41 539.366 758.29 538.846 758.29C538.326 758.29 537.859 758.41 537.446 758.65C537.033 758.89 536.699 759.23 536.446 759.67C536.206 760.11 536.086 760.643 536.086 761.27C536.086 761.883 536.206 762.416 536.446 762.87C536.699 763.31 537.033 763.65 537.446 763.89C537.859 764.13 538.326 764.25 538.846 764.25ZM553.371 755.73C554.225 755.73 554.985 755.903 555.651 756.25C556.331 756.583 556.865 757.103 557.251 757.81C557.638 758.503 557.831 759.396 557.831 760.49V766.65H554.711V760.97C554.711 760.103 554.518 759.463 554.131 759.05C553.758 758.636 553.225 758.43 552.531 758.43C552.038 758.43 551.591 758.536 551.191 758.75C550.805 758.95 550.498 759.263 550.271 759.69C550.058 760.116 549.951 760.663 549.951 761.33V766.65H546.831V755.89H549.811V758.87L549.251 757.97C549.638 757.25 550.191 756.696 550.911 756.31C551.631 755.923 552.451 755.73 553.371 755.73ZM565.059 766.81C563.793 766.81 562.806 766.49 562.099 765.85C561.393 765.196 561.039 764.23 561.039 762.95V753.51H564.159V762.91C564.159 763.363 564.279 763.716 564.519 763.97C564.759 764.21 565.086 764.33 565.499 764.33C565.993 764.33 566.413 764.196 566.759 763.93L567.599 766.13C567.279 766.356 566.893 766.53 566.439 766.65C565.999 766.756 565.539 766.81 565.059 766.81ZM559.379 758.53V756.13H566.839V758.53H559.379ZM569.351 766.65V755.89H572.471V766.65H569.351ZM570.911 754.39C570.338 754.39 569.871 754.223 569.511 753.89C569.151 753.556 568.971 753.143 568.971 752.65C568.971 752.156 569.151 751.743 569.511 751.41C569.871 751.076 570.338 750.91 570.911 750.91C571.484 750.91 571.951 751.07 572.311 751.39C572.671 751.696 572.851 752.096 572.851 752.59C572.851 753.11 572.671 753.543 572.311 753.89C571.964 754.223 571.498 754.39 570.911 754.39ZM581.907 755.73C582.76 755.73 583.52 755.903 584.187 756.25C584.867 756.583 585.4 757.103 585.787 757.81C586.173 758.503 586.367 759.396 586.367 760.49V766.65H583.247V760.97C583.247 760.103 583.053 759.463 582.667 759.05C582.293 758.636 581.76 758.43 581.067 758.43C580.573 758.43 580.127 758.536 579.727 758.75C579.34 758.95 579.033 759.263 578.807 759.69C578.593 760.116 578.487 760.663 578.487 761.33V766.65H575.367V755.89H578.347V758.87L577.787 757.97C578.173 757.25 578.727 756.696 579.447 756.31C580.167 755.923 580.987 755.73 581.907 755.73ZM593.735 766.81C592.841 766.81 592.041 766.636 591.335 766.29C590.641 765.943 590.101 765.416 589.715 764.71C589.328 763.99 589.135 763.076 589.135 761.97V755.89H592.255V761.51C592.255 762.403 592.441 763.063 592.815 763.49C593.201 763.903 593.741 764.11 594.435 764.11C594.915 764.11 595.341 764.01 595.715 763.81C596.088 763.596 596.381 763.276 596.595 762.85C596.808 762.41 596.915 761.863 596.915 761.21V755.89H600.035V766.65H597.075V763.69L597.615 764.55C597.255 765.296 596.721 765.863 596.015 766.25C595.321 766.623 594.561 766.81 593.735 766.81ZM608.265 766.81C607.038 766.81 605.958 766.57 605.025 766.09C604.105 765.61 603.392 764.956 602.885 764.13C602.378 763.29 602.125 762.336 602.125 761.27C602.125 760.19 602.372 759.236 602.865 758.41C603.372 757.57 604.058 756.916 604.925 756.45C605.792 755.97 606.772 755.73 607.865 755.73C608.918 755.73 609.865 755.956 610.705 756.41C611.558 756.85 612.232 757.49 612.725 758.33C613.218 759.156 613.465 760.15 613.465 761.31C613.465 761.43 613.458 761.57 613.445 761.73C613.432 761.876 613.418 762.016 613.405 762.15H604.665V760.33H611.765L610.565 760.87C610.565 760.31 610.452 759.823 610.225 759.41C609.998 758.996 609.685 758.676 609.285 758.45C608.885 758.21 608.418 758.09 607.885 758.09C607.352 758.09 606.878 758.21 606.465 758.45C606.065 758.676 605.752 759.003 605.525 759.43C605.298 759.843 605.185 760.336 605.185 760.91V761.39C605.185 761.976 605.312 762.496 605.565 762.95C605.832 763.39 606.198 763.73 606.665 763.97C607.145 764.196 607.705 764.31 608.345 764.31C608.918 764.31 609.418 764.223 609.845 764.05C610.285 763.876 610.685 763.616 611.045 763.27L612.705 765.07C612.212 765.63 611.592 766.063 610.845 766.37C610.098 766.663 609.238 766.81 608.265 766.81Z" fill="white"/>
<path d="M136.187 284.04H143.387V285.74H136.187V284.04ZM136.367 290.26H144.527V292H134.367V278H144.247V279.74H136.367V290.26ZM160.745 281.3C161.599 281.3 162.352 281.467 163.005 281.8C163.659 282.133 164.165 282.64 164.525 283.32C164.899 284 165.085 284.86 165.085 285.9V292H163.165V286.12C163.165 285.093 162.925 284.32 162.445 283.8C161.965 283.28 161.292 283.02 160.425 283.02C159.785 283.02 159.225 283.153 158.745 283.42C158.265 283.687 157.892 284.08 157.625 284.6C157.372 285.12 157.245 285.767 157.245 286.54V292H155.325V286.12C155.325 285.093 155.085 284.32 154.605 283.8C154.139 283.28 153.465 283.02 152.585 283.02C151.959 283.02 151.405 283.153 150.925 283.42C150.445 283.687 150.072 284.08 149.805 284.6C149.539 285.12 149.405 285.767 149.405 286.54V292H147.485V281.4H149.325V284.22L149.025 283.5C149.359 282.807 149.872 282.267 150.565 281.88C151.259 281.493 152.065 281.3 152.985 281.3C153.999 281.3 154.872 281.553 155.605 282.06C156.339 282.553 156.819 283.307 157.045 284.32L156.265 284C156.585 283.187 157.145 282.533 157.945 282.04C158.745 281.547 159.679 281.3 160.745 281.3ZM175.198 292V289.76L175.098 289.34V285.52C175.098 284.707 174.858 284.08 174.378 283.64C173.912 283.187 173.205 282.96 172.258 282.96C171.632 282.96 171.018 283.067 170.418 283.28C169.818 283.48 169.312 283.753 168.898 284.1L168.098 282.66C168.645 282.22 169.298 281.887 170.058 281.66C170.832 281.42 171.638 281.3 172.478 281.3C173.932 281.3 175.052 281.653 175.838 282.36C176.625 283.067 177.018 284.147 177.018 285.6V292H175.198ZM171.718 292.12C170.932 292.12 170.238 291.987 169.638 291.72C169.052 291.453 168.598 291.087 168.278 290.62C167.958 290.14 167.798 289.6 167.798 289C167.798 288.427 167.932 287.907 168.198 287.44C168.478 286.973 168.925 286.6 169.538 286.32C170.165 286.04 171.005 285.9 172.058 285.9H175.418V287.28H172.138C171.178 287.28 170.532 287.44 170.198 287.76C169.865 288.08 169.698 288.467 169.698 288.92C169.698 289.44 169.905 289.86 170.318 290.18C170.732 290.487 171.305 290.64 172.038 290.64C172.758 290.64 173.385 290.48 173.918 290.16C174.465 289.84 174.858 289.373 175.098 288.76L175.478 290.08C175.225 290.707 174.778 291.207 174.138 291.58C173.498 291.94 172.692 292.12 171.718 292.12ZM180.571 292V281.4H182.491V292H180.571ZM181.531 279.36C181.158 279.36 180.845 279.24 180.591 279C180.351 278.76 180.231 278.467 180.231 278.12C180.231 277.76 180.351 277.46 180.591 277.22C180.845 276.98 181.158 276.86 181.531 276.86C181.905 276.86 182.211 276.98 182.451 277.22C182.705 277.447 182.831 277.733 182.831 278.08C182.831 278.44 182.711 278.747 182.471 279C182.231 279.24 181.918 279.36 181.531 279.36ZM186.157 292V277.16H188.077V292H186.157Z" fill="black"/>
<path d="M134.367 403V389H139.827C141.054 389 142.1 389.193 142.967 389.58C143.834 389.967 144.5 390.527 144.967 391.26C145.434 391.993 145.667 392.867 145.667 393.88C145.667 394.893 145.434 395.767 144.967 396.5C144.5 397.22 143.834 397.78 142.967 398.18C142.1 398.567 141.054 398.76 139.827 398.76H135.467L136.367 397.82V403H134.367ZM136.367 398.02L135.467 397.02H139.767C141.047 397.02 142.014 396.747 142.667 396.2C143.334 395.653 143.667 394.88 143.667 393.88C143.667 392.88 143.334 392.107 142.667 391.56C142.014 391.013 141.047 390.74 139.767 390.74H135.467L136.367 389.74V398.02ZM154.808 403V400.76L154.708 400.34V396.52C154.708 395.707 154.468 395.08 153.988 394.64C153.521 394.187 152.814 393.96 151.868 393.96C151.241 393.96 150.628 394.067 150.028 394.28C149.428 394.48 148.921 394.753 148.508 395.1L147.708 393.66C148.254 393.22 148.908 392.887 149.668 392.66C150.441 392.42 151.248 392.3 152.088 392.3C153.541 392.3 154.661 392.653 155.448 393.36C156.234 394.067 156.628 395.147 156.628 396.6V403H154.808ZM151.328 403.12C150.541 403.12 149.848 402.987 149.248 402.72C148.661 402.453 148.208 402.087 147.888 401.62C147.568 401.14 147.408 400.6 147.408 400C147.408 399.427 147.541 398.907 147.808 398.44C148.088 397.973 148.534 397.6 149.148 397.32C149.774 397.04 150.614 396.9 151.668 396.9H155.028V398.28H151.748C150.788 398.28 150.141 398.44 149.808 398.76C149.474 399.08 149.308 399.467 149.308 399.92C149.308 400.44 149.514 400.86 149.928 401.18C150.341 401.487 150.914 401.64 151.648 401.64C152.368 401.64 152.994 401.48 153.528 401.16C154.074 400.84 154.468 400.373 154.708 399.76L155.088 401.08C154.834 401.707 154.388 402.207 153.748 402.58C153.108 402.94 152.301 403.12 151.328 403.12ZM163.221 403.12C162.341 403.12 161.501 403 160.701 402.76C159.914 402.52 159.294 402.227 158.841 401.88L159.641 400.36C160.094 400.667 160.654 400.927 161.321 401.14C161.987 401.353 162.667 401.46 163.361 401.46C164.254 401.46 164.894 401.333 165.281 401.08C165.681 400.827 165.881 400.473 165.881 400.02C165.881 399.687 165.761 399.427 165.521 399.24C165.281 399.053 164.961 398.913 164.561 398.82C164.174 398.727 163.741 398.647 163.261 398.58C162.781 398.5 162.301 398.407 161.821 398.3C161.341 398.18 160.901 398.02 160.501 397.82C160.101 397.607 159.781 397.32 159.541 396.96C159.301 396.587 159.181 396.093 159.181 395.48C159.181 394.84 159.361 394.28 159.721 393.8C160.081 393.32 160.587 392.953 161.241 392.7C161.907 392.433 162.694 392.3 163.601 392.3C164.294 392.3 164.994 392.387 165.701 392.56C166.421 392.72 167.007 392.953 167.461 393.26L166.641 394.78C166.161 394.46 165.661 394.24 165.141 394.12C164.621 394 164.101 393.94 163.581 393.94C162.741 393.94 162.114 394.08 161.701 394.36C161.287 394.627 161.081 394.973 161.081 395.4C161.081 395.76 161.201 396.04 161.441 396.24C161.694 396.427 162.014 396.573 162.401 396.68C162.801 396.787 163.241 396.88 163.721 396.96C164.201 397.027 164.681 397.12 165.161 397.24C165.641 397.347 166.074 397.5 166.461 397.7C166.861 397.9 167.181 398.18 167.421 398.54C167.674 398.9 167.801 399.38 167.801 399.98C167.801 400.62 167.614 401.173 167.241 401.64C166.867 402.107 166.341 402.473 165.661 402.74C164.981 402.993 164.167 403.12 163.221 403.12ZM173.24 403.12C172.36 403.12 171.52 403 170.72 402.76C169.934 402.52 169.314 402.227 168.86 401.88L169.66 400.36C170.114 400.667 170.674 400.927 171.34 401.14C172.007 401.353 172.687 401.46 173.38 401.46C174.274 401.46 174.914 401.333 175.3 401.08C175.7 400.827 175.9 400.473 175.9 400.02C175.9 399.687 175.78 399.427 175.54 399.24C175.3 399.053 174.98 398.913 174.58 398.82C174.194 398.727 173.76 398.647 173.28 398.58C172.8 398.5 172.32 398.407 171.84 398.3C171.36 398.18 170.92 398.02 170.52 397.82C170.12 397.607 169.8 397.32 169.56 396.96C169.32 396.587 169.2 396.093 169.2 395.48C169.2 394.84 169.38 394.28 169.74 393.8C170.1 393.32 170.607 392.953 171.26 392.7C171.927 392.433 172.714 392.3 173.62 392.3C174.314 392.3 175.014 392.387 175.72 392.56C176.44 392.72 177.027 392.953 177.48 393.26L176.66 394.78C176.18 394.46 175.68 394.24 175.16 394.12C174.64 394 174.12 393.94 173.6 393.94C172.76 393.94 172.134 394.08 171.72 394.36C171.307 394.627 171.1 394.973 171.1 395.4C171.1 395.76 171.22 396.04 171.46 396.24C171.714 396.427 172.034 396.573 172.42 396.68C172.82 396.787 173.26 396.88 173.74 396.96C174.22 397.027 174.7 397.12 175.18 397.24C175.66 397.347 176.094 397.5 176.48 397.7C176.88 397.9 177.2 398.18 177.44 398.54C177.694 398.9 177.82 399.38 177.82 399.98C177.82 400.62 177.634 401.173 177.26 401.64C176.887 402.107 176.36 402.473 175.68 402.74C175 402.993 174.187 403.12 173.24 403.12ZM182.264 403L178.324 392.4H180.144L183.644 402H182.784L186.424 392.4H188.044L191.604 402H190.764L194.344 392.4H196.064L192.104 403H190.264L186.924 394.24H187.484L184.104 403H182.264ZM202.26 403.12C201.193 403.12 200.246 402.887 199.42 402.42C198.593 401.953 197.94 401.313 197.46 400.5C196.98 399.673 196.74 398.74 196.74 397.7C196.74 396.647 196.98 395.713 197.46 394.9C197.94 394.087 198.593 393.453 199.42 393C200.246 392.533 201.193 392.3 202.26 392.3C203.313 392.3 204.253 392.533 205.08 393C205.92 393.453 206.573 394.087 207.04 394.9C207.52 395.7 207.76 396.633 207.76 397.7C207.76 398.753 207.52 399.687 207.04 400.5C206.573 401.313 205.92 401.953 205.08 402.42C204.253 402.887 203.313 403.12 202.26 403.12ZM202.26 401.44C202.94 401.44 203.546 401.287 204.08 400.98C204.626 400.673 205.053 400.24 205.36 399.68C205.666 399.107 205.82 398.447 205.82 397.7C205.82 396.94 205.666 396.287 205.36 395.74C205.053 395.18 204.626 394.747 204.08 394.44C203.546 394.133 202.94 393.98 202.26 393.98C201.58 393.98 200.973 394.133 200.44 394.44C199.906 394.747 199.48 395.18 199.16 395.74C198.84 396.287 198.68 396.94 198.68 397.7C198.68 398.447 198.84 399.107 199.16 399.68C199.48 400.24 199.906 400.673 200.44 400.98C200.973 401.287 201.58 401.44 202.26 401.44ZM210.415 403V392.4H212.255V395.28L212.075 394.56C212.368 393.827 212.862 393.267 213.555 392.88C214.248 392.493 215.102 392.3 216.115 392.3V394.16C216.035 394.147 215.955 394.14 215.875 394.14C215.808 394.14 215.742 394.14 215.675 394.14C214.648 394.14 213.835 394.447 213.235 395.06C212.635 395.673 212.335 396.56 212.335 397.72V403H210.415ZM222.764 403.12C221.737 403.12 220.817 402.893 220.004 402.44C219.204 401.987 218.571 401.353 218.104 400.54C217.637 399.727 217.404 398.78 217.404 397.7C217.404 396.62 217.637 395.68 218.104 394.88C218.571 394.067 219.204 393.433 220.004 392.98C220.817 392.527 221.737 392.3 222.764 392.3C223.657 392.3 224.464 392.5 225.184 392.9C225.904 393.3 226.477 393.9 226.904 394.7C227.344 395.5 227.564 396.5 227.564 397.7C227.564 398.9 227.351 399.9 226.924 400.7C226.511 401.5 225.944 402.107 225.224 402.52C224.504 402.92 223.684 403.12 222.764 403.12ZM222.924 401.44C223.591 401.44 224.191 401.287 224.724 400.98C225.271 400.673 225.697 400.24 226.004 399.68C226.324 399.107 226.484 398.447 226.484 397.7C226.484 396.94 226.324 396.287 226.004 395.74C225.697 395.18 225.271 394.747 224.724 394.44C224.191 394.133 223.591 393.98 222.924 393.98C222.244 393.98 221.637 394.133 221.104 394.44C220.571 394.747 220.144 395.18 219.824 395.74C219.504 396.287 219.344 396.94 219.344 397.7C219.344 398.447 219.504 399.107 219.824 399.68C220.144 400.24 220.571 400.673 221.104 400.98C221.637 401.287 222.244 401.44 222.924 401.44ZM226.544 403V400.14L226.664 397.68L226.464 395.22V388.16H228.384V403H226.544Z" fill="black"/>
<rect x="133.183" y="531.34" width="524.085" height="58.9067" rx="9.5" fill="#F6F8F6"/>
<rect x="133.183" y="531.34" width="524.085" height="58.9067" rx="9.5" stroke="#A0C339"/>
<path d="M146.023 560.693H153.603V561.613H146.023V560.693ZM146.143 567.793H145.123V553.793H154.483V554.713H146.143V567.793ZM157.42 567.793V557.353H158.42V567.793H157.42ZM157.92 554.813C157.693 554.813 157.5 554.733 157.34 554.573C157.18 554.413 157.1 554.227 157.1 554.013C157.1 553.787 157.18 553.593 157.34 553.433C157.5 553.273 157.693 553.193 157.92 553.193C158.16 553.193 158.353 553.273 158.5 553.433C158.66 553.58 158.74 553.767 158.74 553.993C158.74 554.22 158.66 554.413 158.5 554.573C158.353 554.733 158.16 554.813 157.92 554.813ZM162.635 567.793V557.353H163.595V560.213L163.495 559.893C163.788 559.053 164.281 558.407 164.975 557.953C165.668 557.5 166.535 557.273 167.575 557.273V558.253C167.535 558.253 167.495 558.253 167.455 558.253C167.415 558.24 167.375 558.233 167.335 558.233C166.175 558.233 165.268 558.6 164.615 559.333C163.961 560.053 163.635 561.06 163.635 562.353V567.793H162.635ZM173.087 567.873C172.22 567.873 171.407 567.747 170.647 567.493C169.9 567.24 169.32 566.92 168.907 566.533L169.367 565.733C169.767 566.08 170.3 566.38 170.967 566.633C171.634 566.873 172.354 566.993 173.127 566.993C174.22 566.993 175.007 566.813 175.487 566.453C175.967 566.093 176.207 565.62 176.207 565.033C176.207 564.607 176.08 564.273 175.827 564.033C175.587 563.78 175.26 563.587 174.847 563.453C174.434 563.32 173.98 563.213 173.487 563.133C172.994 563.04 172.5 562.94 172.007 562.833C171.514 562.727 171.06 562.573 170.647 562.373C170.234 562.173 169.9 561.9 169.647 561.553C169.407 561.193 169.287 560.72 169.287 560.133C169.287 559.6 169.434 559.12 169.727 558.693C170.02 558.267 170.46 557.927 171.047 557.673C171.634 557.407 172.367 557.273 173.247 557.273C173.9 557.273 174.554 557.367 175.207 557.553C175.874 557.74 176.414 557.987 176.827 558.293L176.367 559.093C175.927 558.76 175.434 558.52 174.887 558.373C174.34 558.227 173.787 558.153 173.227 558.153C172.214 558.153 171.467 558.34 170.987 558.713C170.52 559.087 170.287 559.553 170.287 560.113C170.287 560.553 170.407 560.907 170.647 561.173C170.9 561.427 171.234 561.627 171.647 561.773C172.06 561.907 172.514 562.02 173.007 562.113C173.5 562.193 173.994 562.287 174.487 562.393C174.98 562.5 175.434 562.653 175.847 562.853C176.26 563.04 176.587 563.307 176.827 563.653C177.08 563.987 177.207 564.44 177.207 565.013C177.207 565.587 177.047 566.087 176.727 566.513C176.42 566.94 175.96 567.273 175.347 567.513C174.734 567.753 173.98 567.873 173.087 567.873ZM183.038 567.873C182.118 567.873 181.411 567.62 180.918 567.113C180.438 566.607 180.198 565.913 180.198 565.033V555.073H181.198V564.933C181.198 565.6 181.365 566.113 181.698 566.473C182.031 566.833 182.511 567.013 183.138 567.013C183.791 567.013 184.331 566.82 184.758 566.433L185.178 567.133C184.911 567.387 184.585 567.573 184.198 567.693C183.825 567.813 183.438 567.873 183.038 567.873ZM178.278 558.213V557.353H184.518V558.213H178.278ZM193.423 567.793V553.793H194.283L204.263 566.533H203.803V553.793H204.823V567.793H203.983L193.983 555.053H194.443V567.793H193.423ZM215.972 567.793V565.413L215.932 565.053V561.133C215.932 560.16 215.666 559.42 215.132 558.913C214.612 558.407 213.846 558.153 212.832 558.153C212.112 558.153 211.439 558.28 210.812 558.533C210.199 558.773 209.672 559.087 209.232 559.473L208.732 558.753C209.252 558.287 209.879 557.927 210.612 557.673C211.346 557.407 212.112 557.273 212.912 557.273C214.206 557.273 215.199 557.6 215.892 558.253C216.586 558.907 216.932 559.88 216.932 561.173V567.793H215.972ZM212.212 567.873C211.439 567.873 210.766 567.753 210.192 567.513C209.632 567.26 209.199 566.907 208.892 566.453C208.599 566 208.452 565.48 208.452 564.893C208.452 564.36 208.572 563.88 208.812 563.453C209.066 563.013 209.479 562.66 210.052 562.393C210.626 562.113 211.392 561.973 212.352 561.973H216.192V562.753H212.372C211.292 562.753 210.532 562.953 210.092 563.353C209.666 563.753 209.452 564.253 209.452 564.853C209.452 565.52 209.706 566.053 210.212 566.453C210.719 566.853 211.432 567.053 212.352 567.053C213.232 567.053 213.972 566.853 214.572 566.453C215.186 566.053 215.639 565.473 215.932 564.713L216.212 565.393C215.932 566.153 215.452 566.76 214.772 567.213C214.106 567.653 213.252 567.873 212.212 567.873ZM234.053 557.273C234.893 557.273 235.619 557.44 236.233 557.773C236.859 558.093 237.346 558.587 237.693 559.253C238.039 559.907 238.213 560.72 238.213 561.693V567.793H237.213V561.773C237.213 560.6 236.926 559.707 236.353 559.093C235.779 558.48 234.979 558.173 233.953 558.173C233.166 558.173 232.486 558.34 231.913 558.673C231.339 559.007 230.899 559.473 230.593 560.073C230.286 560.673 230.133 561.393 230.133 562.233V567.793H229.133V561.773C229.133 560.6 228.846 559.707 228.273 559.093C227.699 558.48 226.899 558.173 225.873 558.173C225.086 558.173 224.406 558.34 223.833 558.673C223.259 559.007 222.819 559.473 222.513 560.073C222.206 560.673 222.053 561.393 222.053 562.233V567.793H221.053V557.353H222.013V560.233L221.873 559.913C222.179 559.1 222.693 558.46 223.413 557.993C224.133 557.513 224.999 557.273 226.013 557.273C227.053 557.273 227.926 557.54 228.633 558.073C229.353 558.593 229.806 559.373 229.993 560.413L229.653 560.273C229.933 559.38 230.459 558.66 231.233 558.113C232.006 557.553 232.946 557.273 234.053 557.273ZM246.582 567.873C245.528 567.873 244.595 567.647 243.782 567.193C242.982 566.74 242.348 566.113 241.882 565.313C241.428 564.513 241.202 563.6 241.202 562.573C241.202 561.533 241.415 560.62 241.842 559.833C242.282 559.033 242.882 558.407 243.642 557.953C244.402 557.5 245.255 557.273 246.202 557.273C247.148 557.273 247.995 557.493 248.742 557.933C249.502 558.373 250.095 558.993 250.522 559.793C250.962 560.58 251.182 561.493 251.182 562.533C251.182 562.573 251.175 562.62 251.162 562.673C251.162 562.713 251.162 562.76 251.162 562.813H241.942V562.033H250.622L250.222 562.413C250.235 561.6 250.062 560.873 249.702 560.233C249.355 559.58 248.882 559.073 248.282 558.713C247.682 558.34 246.988 558.153 246.202 558.153C245.428 558.153 244.735 558.34 244.122 558.713C243.522 559.073 243.048 559.58 242.702 560.233C242.355 560.873 242.182 561.607 242.182 562.433V562.613C242.182 563.467 242.368 564.227 242.742 564.893C243.128 565.547 243.655 566.06 244.322 566.433C244.988 566.793 245.748 566.973 246.602 566.973C247.268 566.973 247.888 566.853 248.462 566.613C249.048 566.373 249.542 566.007 249.942 565.513L250.522 566.173C250.068 566.733 249.495 567.16 248.802 567.453C248.122 567.733 247.382 567.873 246.582 567.873Z" fill="#64748B"/>
<path d="M136.167 507.62H143.387V509.34H136.167V507.62ZM136.367 515H134.367V501H144.247V502.74H136.367V515ZM146.782 515V504.4H148.702V515H146.782ZM147.742 502.36C147.369 502.36 147.056 502.24 146.802 502C146.562 501.76 146.442 501.467 146.442 501.12C146.442 500.76 146.562 500.46 146.802 500.22C147.056 499.98 147.369 499.86 147.742 499.86C148.116 499.86 148.422 499.98 148.662 500.22C148.916 500.447 149.042 500.733 149.042 501.08C149.042 501.44 148.922 501.747 148.682 502C148.442 502.24 148.129 502.36 147.742 502.36ZM152.368 515V504.4H154.208V507.28L154.028 506.56C154.322 505.827 154.815 505.267 155.508 504.88C156.202 504.493 157.055 504.3 158.068 504.3V506.16C157.988 506.147 157.908 506.14 157.828 506.14C157.762 506.14 157.695 506.14 157.628 506.14C156.602 506.14 155.788 506.447 155.188 507.06C154.588 507.673 154.288 508.56 154.288 509.72V515H152.368ZM163.592 515.12C162.712 515.12 161.872 515 161.072 514.76C160.285 514.52 159.665 514.227 159.212 513.88L160.012 512.36C160.465 512.667 161.025 512.927 161.692 513.14C162.358 513.353 163.038 513.46 163.732 513.46C164.625 513.46 165.265 513.333 165.652 513.08C166.052 512.827 166.252 512.473 166.252 512.02C166.252 511.687 166.132 511.427 165.892 511.24C165.652 511.053 165.332 510.913 164.932 510.82C164.545 510.727 164.112 510.647 163.632 510.58C163.152 510.5 162.672 510.407 162.192 510.3C161.712 510.18 161.272 510.02 160.872 509.82C160.472 509.607 160.152 509.32 159.912 508.96C159.672 508.587 159.552 508.093 159.552 507.48C159.552 506.84 159.732 506.28 160.092 505.8C160.452 505.32 160.958 504.953 161.612 504.7C162.278 504.433 163.065 504.3 163.972 504.3C164.665 504.3 165.365 504.387 166.072 504.56C166.792 504.72 167.378 504.953 167.832 505.26L167.012 506.78C166.532 506.46 166.032 506.24 165.512 506.12C164.992 506 164.472 505.94 163.952 505.94C163.112 505.94 162.485 506.08 162.072 506.36C161.658 506.627 161.452 506.973 161.452 507.4C161.452 507.76 161.572 508.04 161.812 508.24C162.065 508.427 162.385 508.573 162.772 508.68C163.172 508.787 163.612 508.88 164.092 508.96C164.572 509.027 165.052 509.12 165.532 509.24C166.012 509.347 166.445 509.5 166.832 509.7C167.232 509.9 167.552 510.18 167.792 510.54C168.045 510.9 168.172 511.38 168.172 511.98C168.172 512.62 167.985 513.173 167.612 513.64C167.238 514.107 166.712 514.473 166.032 514.74C165.352 514.993 164.538 515.12 163.592 515.12ZM174.211 515.12C173.145 515.12 172.318 514.833 171.731 514.26C171.145 513.687 170.851 512.867 170.851 511.8V502.08H172.771V511.72C172.771 512.293 172.911 512.733 173.191 513.04C173.485 513.347 173.898 513.5 174.431 513.5C175.031 513.5 175.531 513.333 175.931 513L176.531 514.38C176.238 514.633 175.885 514.82 175.471 514.94C175.071 515.06 174.651 515.12 174.211 515.12ZM169.051 505.98V504.4H175.811V505.98H169.051ZM184.504 515V501H186.144L195.404 512.5H194.544V501H196.544V515H194.904L185.644 503.5H186.504V515H184.504ZM207.034 515V512.76L206.934 512.34V508.52C206.934 507.707 206.694 507.08 206.214 506.64C205.747 506.187 205.041 505.96 204.094 505.96C203.467 505.96 202.854 506.067 202.254 506.28C201.654 506.48 201.147 506.753 200.734 507.1L199.934 505.66C200.481 505.22 201.134 504.887 201.894 504.66C202.667 504.42 203.474 504.3 204.314 504.3C205.767 504.3 206.887 504.653 207.674 505.36C208.461 506.067 208.854 507.147 208.854 508.6V515H207.034ZM203.554 515.12C202.767 515.12 202.074 514.987 201.474 514.72C200.887 514.453 200.434 514.087 200.114 513.62C199.794 513.14 199.634 512.6 199.634 512C199.634 511.427 199.767 510.907 200.034 510.44C200.314 509.973 200.761 509.6 201.374 509.32C202.001 509.04 202.841 508.9 203.894 508.9H207.254V510.28H203.974C203.014 510.28 202.367 510.44 202.034 510.76C201.701 511.08 201.534 511.467 201.534 511.92C201.534 512.44 201.741 512.86 202.154 513.18C202.567 513.487 203.141 513.64 203.874 513.64C204.594 513.64 205.221 513.48 205.754 513.16C206.301 512.84 206.694 512.373 206.934 511.76L207.314 513.08C207.061 513.707 206.614 514.207 205.974 514.58C205.334 514.94 204.527 515.12 203.554 515.12ZM225.667 504.3C226.521 504.3 227.274 504.467 227.927 504.8C228.581 505.133 229.087 505.64 229.447 506.32C229.821 507 230.007 507.86 230.007 508.9V515H228.087V509.12C228.087 508.093 227.847 507.32 227.367 506.8C226.887 506.28 226.214 506.02 225.347 506.02C224.707 506.02 224.147 506.153 223.667 506.42C223.187 506.687 222.814 507.08 222.547 507.6C222.294 508.12 222.167 508.767 222.167 509.54V515H220.247V509.12C220.247 508.093 220.007 507.32 219.527 506.8C219.061 506.28 218.387 506.02 217.507 506.02C216.881 506.02 216.327 506.153 215.847 506.42C215.367 506.687 214.994 507.08 214.727 507.6C214.461 508.12 214.327 508.767 214.327 509.54V515H212.407V504.4H214.247V507.22L213.947 506.5C214.281 505.807 214.794 505.267 215.487 504.88C216.181 504.493 216.987 504.3 217.907 504.3C218.921 504.3 219.794 504.553 220.527 505.06C221.261 505.553 221.741 506.307 221.967 507.32L221.187 507C221.507 506.187 222.067 505.533 222.867 505.04C223.667 504.547 224.601 504.3 225.667 504.3ZM238.26 515.12C237.127 515.12 236.127 514.887 235.26 514.42C234.407 513.953 233.74 513.313 233.26 512.5C232.793 511.687 232.56 510.753 232.56 509.7C232.56 508.647 232.787 507.713 233.24 506.9C233.707 506.087 234.34 505.453 235.14 505C235.953 504.533 236.867 504.3 237.88 504.3C238.907 504.3 239.813 504.527 240.6 504.98C241.387 505.433 242 506.073 242.44 506.9C242.893 507.713 243.12 508.667 243.12 509.76C243.12 509.84 243.113 509.933 243.1 510.04C243.1 510.147 243.093 510.247 243.08 510.34H234.06V508.96H242.08L241.3 509.44C241.313 508.76 241.173 508.153 240.88 507.62C240.587 507.087 240.18 506.673 239.66 506.38C239.153 506.073 238.56 505.92 237.88 505.92C237.213 505.92 236.62 506.073 236.1 506.38C235.58 506.673 235.173 507.093 234.88 507.64C234.587 508.173 234.44 508.787 234.44 509.48V509.8C234.44 510.507 234.6 511.14 234.92 511.7C235.253 512.247 235.713 512.673 236.3 512.98C236.887 513.287 237.56 513.44 238.32 513.44C238.947 513.44 239.513 513.333 240.02 513.12C240.54 512.907 240.993 512.587 241.38 512.16L242.44 513.4C241.96 513.96 241.36 514.387 240.64 514.68C239.933 514.973 239.14 515.12 238.26 515.12Z" fill="black"/>
<rect x="133.183" y="642.833" width="524.085" height="58.9067" rx="9.5" fill="#F6F8F6"/>
<rect x="133.183" y="642.833" width="524.085" height="58.9067" rx="9.5" stroke="#A0C339"/>
<path d="M145.123 679.286V665.286H146.143V678.366H154.203V679.286H145.123ZM163.082 679.286V676.906L163.042 676.546V672.626C163.042 671.653 162.775 670.913 162.242 670.406C161.722 669.9 160.955 669.646 159.942 669.646C159.222 669.646 158.549 669.773 157.922 670.026C157.309 670.266 156.782 670.58 156.342 670.966L155.842 670.246C156.362 669.78 156.989 669.42 157.722 669.166C158.455 668.9 159.222 668.766 160.022 668.766C161.315 668.766 162.309 669.093 163.002 669.746C163.695 670.4 164.042 671.373 164.042 672.666V679.286H163.082ZM159.322 679.366C158.549 679.366 157.875 679.246 157.302 679.006C156.742 678.753 156.309 678.4 156.002 677.946C155.709 677.493 155.562 676.973 155.562 676.386C155.562 675.853 155.682 675.373 155.922 674.946C156.175 674.506 156.589 674.153 157.162 673.886C157.735 673.606 158.502 673.466 159.462 673.466H163.302V674.246H159.482C158.402 674.246 157.642 674.446 157.202 674.846C156.775 675.246 156.562 675.746 156.562 676.346C156.562 677.013 156.815 677.546 157.322 677.946C157.829 678.346 158.542 678.546 159.462 678.546C160.342 678.546 161.082 678.346 161.682 677.946C162.295 677.546 162.749 676.966 163.042 676.206L163.322 676.886C163.042 677.646 162.562 678.253 161.882 678.706C161.215 679.146 160.362 679.366 159.322 679.366ZM170.802 679.366C169.935 679.366 169.122 679.24 168.362 678.986C167.615 678.733 167.035 678.413 166.622 678.026L167.082 677.226C167.482 677.573 168.015 677.873 168.682 678.126C169.349 678.366 170.069 678.486 170.842 678.486C171.935 678.486 172.722 678.306 173.202 677.946C173.682 677.586 173.922 677.113 173.922 676.526C173.922 676.1 173.795 675.766 173.542 675.526C173.302 675.273 172.975 675.08 172.562 674.946C172.149 674.813 171.695 674.706 171.202 674.626C170.709 674.533 170.215 674.433 169.722 674.326C169.229 674.22 168.775 674.066 168.362 673.866C167.949 673.666 167.615 673.393 167.362 673.046C167.122 672.686 167.002 672.213 167.002 671.626C167.002 671.093 167.149 670.613 167.442 670.186C167.735 669.76 168.175 669.42 168.762 669.166C169.349 668.9 170.082 668.766 170.962 668.766C171.615 668.766 172.269 668.86 172.922 669.046C173.589 669.233 174.129 669.48 174.542 669.786L174.082 670.586C173.642 670.253 173.149 670.013 172.602 669.866C172.055 669.72 171.502 669.646 170.942 669.646C169.929 669.646 169.182 669.833 168.702 670.206C168.235 670.58 168.002 671.046 168.002 671.606C168.002 672.046 168.122 672.4 168.362 672.666C168.615 672.92 168.949 673.12 169.362 673.266C169.775 673.4 170.229 673.513 170.722 673.606C171.215 673.686 171.709 673.78 172.202 673.886C172.695 673.993 173.149 674.146 173.562 674.346C173.975 674.533 174.302 674.8 174.542 675.146C174.795 675.48 174.922 675.933 174.922 676.506C174.922 677.08 174.762 677.58 174.442 678.006C174.135 678.433 173.675 678.766 173.062 679.006C172.449 679.246 171.695 679.366 170.802 679.366ZM180.753 679.366C179.833 679.366 179.126 679.113 178.633 678.606C178.153 678.1 177.913 677.406 177.913 676.526V666.566H178.913V676.426C178.913 677.093 179.079 677.606 179.413 677.966C179.746 678.326 180.226 678.506 180.853 678.506C181.506 678.506 182.046 678.313 182.473 677.926L182.893 678.626C182.626 678.88 182.299 679.066 181.913 679.186C181.539 679.306 181.153 679.366 180.753 679.366ZM175.993 669.706V668.846H182.233V669.706H175.993ZM191.138 679.286V665.286H191.998L201.978 678.026H201.518V665.286H202.538V679.286H201.698L191.698 666.546H192.158V679.286H191.138ZM213.687 679.286V676.906L213.647 676.546V672.626C213.647 671.653 213.381 670.913 212.847 670.406C212.327 669.9 211.561 669.646 210.547 669.646C209.827 669.646 209.154 669.773 208.527 670.026C207.914 670.266 207.387 670.58 206.947 670.966L206.447 670.246C206.967 669.78 207.594 669.42 208.327 669.166C209.061 668.9 209.827 668.766 210.627 668.766C211.921 668.766 212.914 669.093 213.607 669.746C214.301 670.4 214.647 671.373 214.647 672.666V679.286H213.687ZM209.927 679.366C209.154 679.366 208.481 679.246 207.907 679.006C207.347 678.753 206.914 678.4 206.607 677.946C206.314 677.493 206.167 676.973 206.167 676.386C206.167 675.853 206.287 675.373 206.527 674.946C206.781 674.506 207.194 674.153 207.767 673.886C208.341 673.606 209.107 673.466 210.067 673.466H213.907V674.246H210.087C209.007 674.246 208.247 674.446 207.807 674.846C207.381 675.246 207.167 675.746 207.167 676.346C207.167 677.013 207.421 677.546 207.927 677.946C208.434 678.346 209.147 678.546 210.067 678.546C210.947 678.546 211.687 678.346 212.287 677.946C212.901 677.546 213.354 676.966 213.647 676.206L213.927 676.886C213.647 677.646 213.167 678.253 212.487 678.706C211.821 679.146 210.967 679.366 209.927 679.366ZM231.767 668.766C232.607 668.766 233.334 668.933 233.947 669.266C234.574 669.586 235.061 670.08 235.407 670.746C235.754 671.4 235.927 672.213 235.927 673.186V679.286H234.927V673.266C234.927 672.093 234.641 671.2 234.067 670.586C233.494 669.973 232.694 669.666 231.667 669.666C230.881 669.666 230.201 669.833 229.627 670.166C229.054 670.5 228.614 670.966 228.307 671.566C228.001 672.166 227.847 672.886 227.847 673.726V679.286H226.847V673.266C226.847 672.093 226.561 671.2 225.987 670.586C225.414 669.973 224.614 669.666 223.587 669.666C222.801 669.666 222.121 669.833 221.547 670.166C220.974 670.5 220.534 670.966 220.227 671.566C219.921 672.166 219.767 672.886 219.767 673.726V679.286H218.767V668.846H219.727V671.726L219.587 671.406C219.894 670.593 220.407 669.953 221.127 669.486C221.847 669.006 222.714 668.766 223.727 668.766C224.767 668.766 225.641 669.033 226.347 669.566C227.067 670.086 227.521 670.866 227.707 671.906L227.367 671.766C227.647 670.873 228.174 670.153 228.947 669.606C229.721 669.046 230.661 668.766 231.767 668.766ZM244.297 679.366C243.243 679.366 242.31 679.14 241.497 678.686C240.697 678.233 240.063 677.606 239.597 676.806C239.143 676.006 238.917 675.093 238.917 674.066C238.917 673.026 239.13 672.113 239.557 671.326C239.997 670.526 240.597 669.9 241.357 669.446C242.117 668.993 242.97 668.766 243.917 668.766C244.863 668.766 245.71 668.986 246.457 669.426C247.217 669.866 247.81 670.486 248.237 671.286C248.677 672.073 248.897 672.986 248.897 674.026C248.897 674.066 248.89 674.113 248.877 674.166C248.877 674.206 248.877 674.253 248.877 674.306H239.657V673.526H248.337L247.937 673.906C247.95 673.093 247.777 672.366 247.417 671.726C247.07 671.073 246.597 670.566 245.997 670.206C245.397 669.833 244.703 669.646 243.917 669.646C243.143 669.646 242.45 669.833 241.837 670.206C241.237 670.566 240.763 671.073 240.417 671.726C240.07 672.366 239.897 673.1 239.897 673.926V674.106C239.897 674.96 240.083 675.72 240.457 676.386C240.843 677.04 241.37 677.553 242.037 677.926C242.703 678.286 243.463 678.466 244.317 678.466C244.983 678.466 245.603 678.346 246.177 678.106C246.763 677.866 247.257 677.5 247.657 677.006L248.237 677.666C247.783 678.226 247.21 678.653 246.517 678.946C245.837 679.226 245.097 679.366 244.297 679.366Z" fill="#64748B"/>
<path d="M134.367 626V612H136.367V624.26H143.947V626H134.367ZM152.542 626V623.76L152.442 623.34V619.52C152.442 618.707 152.202 618.08 151.722 617.64C151.255 617.187 150.549 616.96 149.602 616.96C148.975 616.96 148.362 617.067 147.762 617.28C147.162 617.48 146.655 617.753 146.242 618.1L145.442 616.66C145.989 616.22 146.642 615.887 147.402 615.66C148.175 615.42 148.982 615.3 149.822 615.3C151.275 615.3 152.395 615.653 153.182 616.36C153.969 617.067 154.362 618.147 154.362 619.6V626H152.542ZM149.062 626.12C148.275 626.12 147.582 625.987 146.982 625.72C146.395 625.453 145.942 625.087 145.622 624.62C145.302 624.14 145.142 623.6 145.142 623C145.142 622.427 145.275 621.907 145.542 621.44C145.822 620.973 146.269 620.6 146.882 620.32C147.509 620.04 148.349 619.9 149.402 619.9H152.762V621.28H149.482C148.522 621.28 147.875 621.44 147.542 621.76C147.209 622.08 147.042 622.467 147.042 622.92C147.042 623.44 147.249 623.86 147.662 624.18C148.075 624.487 148.649 624.64 149.382 624.64C150.102 624.64 150.729 624.48 151.262 624.16C151.809 623.84 152.202 623.373 152.442 622.76L152.822 624.08C152.569 624.707 152.122 625.207 151.482 625.58C150.842 625.94 150.035 626.12 149.062 626.12ZM160.955 626.12C160.075 626.12 159.235 626 158.435 625.76C157.648 625.52 157.028 625.227 156.575 624.88L157.375 623.36C157.828 623.667 158.388 623.927 159.055 624.14C159.722 624.353 160.402 624.46 161.095 624.46C161.988 624.46 162.628 624.333 163.015 624.08C163.415 623.827 163.615 623.473 163.615 623.02C163.615 622.687 163.495 622.427 163.255 622.24C163.015 622.053 162.695 621.913 162.295 621.82C161.908 621.727 161.475 621.647 160.995 621.58C160.515 621.5 160.035 621.407 159.555 621.3C159.075 621.18 158.635 621.02 158.235 620.82C157.835 620.607 157.515 620.32 157.275 619.96C157.035 619.587 156.915 619.093 156.915 618.48C156.915 617.84 157.095 617.28 157.455 616.8C157.815 616.32 158.322 615.953 158.975 615.7C159.642 615.433 160.428 615.3 161.335 615.3C162.028 615.3 162.728 615.387 163.435 615.56C164.155 615.72 164.742 615.953 165.195 616.26L164.375 617.78C163.895 617.46 163.395 617.24 162.875 617.12C162.355 617 161.835 616.94 161.315 616.94C160.475 616.94 159.848 617.08 159.435 617.36C159.022 617.627 158.815 617.973 158.815 618.4C158.815 618.76 158.935 619.04 159.175 619.24C159.428 619.427 159.748 619.573 160.135 619.68C160.535 619.787 160.975 619.88 161.455 619.96C161.935 620.027 162.415 620.12 162.895 620.24C163.375 620.347 163.808 620.5 164.195 620.7C164.595 620.9 164.915 621.18 165.155 621.54C165.408 621.9 165.535 622.38 165.535 622.98C165.535 623.62 165.348 624.173 164.975 624.64C164.602 625.107 164.075 625.473 163.395 625.74C162.715 625.993 161.902 626.12 160.955 626.12ZM171.575 626.12C170.508 626.12 169.681 625.833 169.095 625.26C168.508 624.687 168.215 623.867 168.215 622.8V613.08H170.135V622.72C170.135 623.293 170.275 623.733 170.555 624.04C170.848 624.347 171.261 624.5 171.795 624.5C172.395 624.5 172.895 624.333 173.295 624L173.895 625.38C173.601 625.633 173.248 625.82 172.835 625.94C172.435 626.06 172.015 626.12 171.575 626.12ZM166.415 616.98V615.4H173.175V616.98H166.415ZM181.867 626V612H183.507L192.767 623.5H191.907V612H193.907V626H192.267L183.007 614.5H183.867V626H181.867ZM204.397 626V623.76L204.297 623.34V619.52C204.297 618.707 204.057 618.08 203.577 617.64C203.111 617.187 202.404 616.96 201.457 616.96C200.831 616.96 200.217 617.067 199.617 617.28C199.017 617.48 198.511 617.753 198.097 618.1L197.297 616.66C197.844 616.22 198.497 615.887 199.257 615.66C200.031 615.42 200.837 615.3 201.677 615.3C203.131 615.3 204.251 615.653 205.037 616.36C205.824 617.067 206.217 618.147 206.217 619.6V626H204.397ZM200.917 626.12C200.131 626.12 199.437 625.987 198.837 625.72C198.251 625.453 197.797 625.087 197.477 624.62C197.157 624.14 196.997 623.6 196.997 623C196.997 622.427 197.131 621.907 197.397 621.44C197.677 620.973 198.124 620.6 198.737 620.32C199.364 620.04 200.204 619.9 201.257 619.9H204.617V621.28H201.337C200.377 621.28 199.731 621.44 199.397 621.76C199.064 622.08 198.897 622.467 198.897 622.92C198.897 623.44 199.104 623.86 199.517 624.18C199.931 624.487 200.504 624.64 201.237 624.64C201.957 624.64 202.584 624.48 203.117 624.16C203.664 623.84 204.057 623.373 204.297 622.76L204.677 624.08C204.424 624.707 203.977 625.207 203.337 625.58C202.697 625.94 201.891 626.12 200.917 626.12ZM223.031 615.3C223.884 615.3 224.637 615.467 225.291 615.8C225.944 616.133 226.451 616.64 226.811 617.32C227.184 618 227.371 618.86 227.371 619.9V626H225.451V620.12C225.451 619.093 225.211 618.32 224.731 617.8C224.251 617.28 223.577 617.02 222.711 617.02C222.071 617.02 221.511 617.153 221.031 617.42C220.551 617.687 220.177 618.08 219.911 618.6C219.657 619.12 219.531 619.767 219.531 620.54V626H217.611V620.12C217.611 619.093 217.371 618.32 216.891 617.8C216.424 617.28 215.751 617.02 214.871 617.02C214.244 617.02 213.691 617.153 213.211 617.42C212.731 617.687 212.357 618.08 212.091 618.6C211.824 619.12 211.691 619.767 211.691 620.54V626H209.771V615.4H211.611V618.22L211.311 617.5C211.644 616.807 212.157 616.267 212.851 615.88C213.544 615.493 214.351 615.3 215.271 615.3C216.284 615.3 217.157 615.553 217.891 616.06C218.624 616.553 219.104 617.307 219.331 618.32L218.551 618C218.871 617.187 219.431 616.533 220.231 616.04C221.031 615.547 221.964 615.3 223.031 615.3ZM235.623 626.12C234.49 626.12 233.49 625.887 232.623 625.42C231.77 624.953 231.103 624.313 230.623 623.5C230.157 622.687 229.923 621.753 229.923 620.7C229.923 619.647 230.15 618.713 230.603 617.9C231.07 617.087 231.703 616.453 232.503 616C233.317 615.533 234.23 615.3 235.243 615.3C236.27 615.3 237.177 615.527 237.963 615.98C238.75 616.433 239.363 617.073 239.803 617.9C240.257 618.713 240.483 619.667 240.483 620.76C240.483 620.84 240.477 620.933 240.463 621.04C240.463 621.147 240.457 621.247 240.443 621.34H231.423V619.96H239.443L238.663 620.44C238.677 619.76 238.537 619.153 238.243 618.62C237.95 618.087 237.543 617.673 237.023 617.38C236.517 617.073 235.923 616.92 235.243 616.92C234.577 616.92 233.983 617.073 233.463 617.38C232.943 617.673 232.537 618.093 232.243 618.64C231.95 619.173 231.803 619.787 231.803 620.48V620.8C231.803 621.507 231.963 622.14 232.283 622.7C232.617 623.247 233.077 623.673 233.663 623.98C234.25 624.287 234.923 624.44 235.683 624.44C236.31 624.44 236.877 624.333 237.383 624.12C237.903 623.907 238.357 623.587 238.743 623.16L239.803 624.4C239.323 624.96 238.723 625.387 238.003 625.68C237.297 625.973 236.503 626.12 235.623 626.12Z" fill="black"/>
<rect x="133.183" y="419.847" width="524.085" height="58.9067" rx="9.5" fill="#F6F8F6"/>
<rect x="133.183" y="419.847" width="524.085" height="58.9067" rx="9.5" stroke="#A0C339"/>
<path d="M145.123 456.3V442.3H150.143C151.316 442.3 152.323 442.487 153.163 442.86C154.003 443.233 154.649 443.773 155.103 444.48C155.556 445.173 155.783 446.02 155.783 447.02C155.783 447.993 155.556 448.833 155.103 449.54C154.649 450.247 154.003 450.787 153.163 451.16C152.323 451.533 151.316 451.72 150.143 451.72H145.683L146.143 451.24V456.3H145.123ZM146.143 451.3L145.683 450.8H150.143C151.649 450.8 152.789 450.473 153.563 449.82C154.349 449.153 154.743 448.22 154.743 447.02C154.743 445.807 154.349 444.873 153.563 444.22C152.789 443.553 151.649 443.22 150.143 443.22H145.683L146.143 442.72V451.3ZM165.387 456.3V453.92L165.347 453.56V449.64C165.347 448.667 165.08 447.927 164.547 447.42C164.027 446.913 163.26 446.66 162.247 446.66C161.527 446.66 160.853 446.787 160.227 447.04C159.613 447.28 159.087 447.593 158.647 447.98L158.147 447.26C158.667 446.793 159.293 446.433 160.027 446.18C160.76 445.913 161.527 445.78 162.327 445.78C163.62 445.78 164.613 446.107 165.307 446.76C166 447.413 166.347 448.387 166.347 449.68V456.3H165.387ZM161.627 456.38C160.853 456.38 160.18 456.26 159.607 456.02C159.047 455.767 158.613 455.413 158.307 454.96C158.013 454.507 157.867 453.987 157.867 453.4C157.867 452.867 157.987 452.387 158.227 451.96C158.48 451.52 158.893 451.167 159.467 450.9C160.04 450.62 160.807 450.48 161.767 450.48H165.607V451.26H161.787C160.707 451.26 159.947 451.46 159.507 451.86C159.08 452.26 158.867 452.76 158.867 453.36C158.867 454.027 159.12 454.56 159.627 454.96C160.133 455.36 160.847 455.56 161.767 455.56C162.647 455.56 163.387 455.36 163.987 454.96C164.6 454.56 165.053 453.98 165.347 453.22L165.627 453.9C165.347 454.66 164.867 455.267 164.187 455.72C163.52 456.16 162.667 456.38 161.627 456.38ZM173.107 456.38C172.24 456.38 171.427 456.253 170.667 456C169.92 455.747 169.34 455.427 168.927 455.04L169.387 454.24C169.787 454.587 170.32 454.887 170.987 455.14C171.653 455.38 172.373 455.5 173.147 455.5C174.24 455.5 175.027 455.32 175.507 454.96C175.987 454.6 176.227 454.127 176.227 453.54C176.227 453.113 176.1 452.78 175.847 452.54C175.607 452.287 175.28 452.093 174.867 451.96C174.453 451.827 174 451.72 173.507 451.64C173.013 451.547 172.52 451.447 172.027 451.34C171.533 451.233 171.08 451.08 170.667 450.88C170.253 450.68 169.92 450.407 169.667 450.06C169.427 449.7 169.307 449.227 169.307 448.64C169.307 448.107 169.453 447.627 169.747 447.2C170.04 446.773 170.48 446.433 171.067 446.18C171.653 445.913 172.387 445.78 173.267 445.78C173.92 445.78 174.573 445.873 175.227 446.06C175.893 446.247 176.433 446.493 176.847 446.8L176.387 447.6C175.947 447.267 175.453 447.027 174.907 446.88C174.36 446.733 173.807 446.66 173.247 446.66C172.233 446.66 171.487 446.847 171.007 447.22C170.54 447.593 170.307 448.06 170.307 448.62C170.307 449.06 170.427 449.413 170.667 449.68C170.92 449.933 171.253 450.133 171.667 450.28C172.08 450.413 172.533 450.527 173.027 450.62C173.52 450.7 174.013 450.793 174.507 450.9C175 451.007 175.453 451.16 175.867 451.36C176.28 451.547 176.607 451.813 176.847 452.16C177.1 452.493 177.227 452.947 177.227 453.52C177.227 454.093 177.067 454.593 176.747 455.02C176.44 455.447 175.98 455.78 175.367 456.02C174.753 456.26 174 456.38 173.107 456.38ZM182.657 456.38C181.791 456.38 180.977 456.253 180.217 456C179.471 455.747 178.891 455.427 178.477 455.04L178.937 454.24C179.337 454.587 179.871 454.887 180.537 455.14C181.204 455.38 181.924 455.5 182.697 455.5C183.791 455.5 184.577 455.32 185.057 454.96C185.537 454.6 185.777 454.127 185.777 453.54C185.777 453.113 185.651 452.78 185.397 452.54C185.157 452.287 184.831 452.093 184.417 451.96C184.004 451.827 183.551 451.72 183.057 451.64C182.564 451.547 182.071 451.447 181.577 451.34C181.084 451.233 180.631 451.08 180.217 450.88C179.804 450.68 179.471 450.407 179.217 450.06C178.977 449.7 178.857 449.227 178.857 448.64C178.857 448.107 179.004 447.627 179.297 447.2C179.591 446.773 180.031 446.433 180.617 446.18C181.204 445.913 181.937 445.78 182.817 445.78C183.471 445.78 184.124 445.873 184.777 446.06C185.444 446.247 185.984 446.493 186.397 446.8L185.937 447.6C185.497 447.267 185.004 447.027 184.457 446.88C183.911 446.733 183.357 446.66 182.797 446.66C181.784 446.66 181.037 446.847 180.557 447.22C180.091 447.593 179.857 448.06 179.857 448.62C179.857 449.06 179.977 449.413 180.217 449.68C180.471 449.933 180.804 450.133 181.217 450.28C181.631 450.413 182.084 450.527 182.577 450.62C183.071 450.7 183.564 450.793 184.057 450.9C184.551 451.007 185.004 451.16 185.417 451.36C185.831 451.547 186.157 451.813 186.397 452.16C186.651 452.493 186.777 452.947 186.777 453.52C186.777 454.093 186.617 454.593 186.297 455.02C185.991 455.447 185.531 455.78 184.917 456.02C184.304 456.26 183.551 456.38 182.657 456.38ZM191.413 456.3L187.453 445.86H188.413L192.093 455.74H191.673L195.453 445.86H196.313L200.073 455.74H199.633L203.373 445.86H204.293L200.333 456.3H199.393L195.713 446.82H196.033L192.333 456.3H191.413ZM210.406 456.38C209.406 456.38 208.513 456.153 207.726 455.7C206.953 455.247 206.333 454.62 205.866 453.82C205.413 453.02 205.186 452.107 205.186 451.08C205.186 450.04 205.413 449.127 205.866 448.34C206.333 447.54 206.953 446.913 207.726 446.46C208.513 446.007 209.406 445.78 210.406 445.78C211.406 445.78 212.299 446.007 213.086 446.46C213.873 446.913 214.493 447.54 214.946 448.34C215.399 449.127 215.626 450.04 215.626 451.08C215.626 452.107 215.399 453.02 214.946 453.82C214.493 454.62 213.873 455.247 213.086 455.7C212.299 456.153 211.406 456.38 210.406 456.38ZM210.406 455.48C211.206 455.48 211.926 455.3 212.566 454.94C213.206 454.567 213.706 454.047 214.066 453.38C214.426 452.713 214.606 451.947 214.606 451.08C214.606 450.2 214.426 449.433 214.066 448.78C213.706 448.113 213.206 447.6 212.566 447.24C211.926 446.867 211.206 446.68 210.406 446.68C209.606 446.68 208.886 446.867 208.246 447.24C207.619 447.6 207.119 448.113 206.746 448.78C206.386 449.433 206.206 450.2 206.206 451.08C206.206 451.947 206.386 452.713 206.746 453.38C207.119 454.047 207.619 454.567 208.246 454.94C208.886 455.3 209.606 455.48 210.406 455.48ZM218.728 456.3V445.86H219.688V448.72L219.588 448.4C219.882 447.56 220.375 446.913 221.068 446.46C221.762 446.007 222.628 445.78 223.668 445.78V446.76C223.628 446.76 223.588 446.76 223.548 446.76C223.508 446.747 223.468 446.74 223.428 446.74C222.268 446.74 221.362 447.107 220.708 447.84C220.055 448.56 219.728 449.567 219.728 450.86V456.3H218.728ZM230.346 456.38C229.373 456.38 228.493 456.16 227.706 455.72C226.933 455.267 226.319 454.64 225.866 453.84C225.413 453.04 225.186 452.12 225.186 451.08C225.186 450.027 225.413 449.107 225.866 448.32C226.319 447.52 226.933 446.9 227.706 446.46C228.493 446.007 229.373 445.78 230.346 445.78C231.266 445.78 232.093 445.993 232.826 446.42C233.573 446.847 234.159 447.453 234.586 448.24C235.026 449.027 235.246 449.973 235.246 451.08C235.246 452.16 235.033 453.1 234.606 453.9C234.179 454.7 233.593 455.313 232.846 455.74C232.113 456.167 231.279 456.38 230.346 456.38ZM230.406 455.48C231.206 455.48 231.919 455.3 232.546 454.94C233.186 454.567 233.686 454.047 234.046 453.38C234.419 452.713 234.606 451.947 234.606 451.08C234.606 450.2 234.419 449.433 234.046 448.78C233.686 448.113 233.186 447.6 232.546 447.24C231.919 446.867 231.206 446.68 230.406 446.68C229.606 446.68 228.886 446.867 228.246 447.24C227.619 447.6 227.119 448.113 226.746 448.78C226.386 449.433 226.206 450.2 226.206 451.08C226.206 451.947 226.386 452.713 226.746 453.38C227.119 454.047 227.619 454.567 228.246 454.94C228.886 455.3 229.606 455.48 230.406 455.48ZM234.626 456.3V452.88L234.806 451.06L234.606 449.24V441.46H235.606V456.3H234.626Z" fill="#64748B"/>
<path d="M594.527 456.24C593.407 456.24 592.333 456.093 591.307 455.8C590.28 455.493 589.453 455.1 588.827 454.62L589.927 452.18C590.527 452.607 591.233 452.96 592.047 453.24C592.873 453.507 593.707 453.64 594.547 453.64C595.187 453.64 595.7 453.58 596.087 453.46C596.487 453.327 596.78 453.147 596.967 452.92C597.153 452.693 597.247 452.433 597.247 452.14C597.247 451.767 597.1 451.473 596.807 451.26C596.513 451.033 596.127 450.853 595.647 450.72C595.167 450.573 594.633 450.44 594.047 450.32C593.473 450.187 592.893 450.027 592.307 449.84C591.733 449.653 591.207 449.413 590.727 449.12C590.247 448.827 589.853 448.44 589.547 447.96C589.253 447.48 589.107 446.867 589.107 446.12C589.107 445.32 589.32 444.593 589.747 443.94C590.187 443.273 590.84 442.747 591.707 442.36C592.587 441.96 593.687 441.76 595.007 441.76C595.887 441.76 596.753 441.867 597.607 442.08C598.46 442.28 599.213 442.587 599.867 443L598.867 445.46C598.213 445.087 597.56 444.813 596.907 444.64C596.253 444.453 595.613 444.36 594.987 444.36C594.36 444.36 593.847 444.433 593.447 444.58C593.047 444.727 592.76 444.92 592.587 445.16C592.413 445.387 592.327 445.653 592.327 445.96C592.327 446.32 592.473 446.613 592.767 446.84C593.06 447.053 593.447 447.227 593.927 447.36C594.407 447.493 594.933 447.627 595.507 447.76C596.093 447.893 596.673 448.047 597.247 448.22C597.833 448.393 598.367 448.627 598.847 448.92C599.327 449.213 599.713 449.6 600.007 450.08C600.313 450.56 600.467 451.167 600.467 451.9C600.467 452.687 600.247 453.407 599.807 454.06C599.367 454.713 598.707 455.24 597.827 455.64C596.96 456.04 595.86 456.24 594.527 456.24ZM609.001 445.08C609.854 445.08 610.614 445.253 611.281 445.6C611.961 445.933 612.494 446.453 612.881 447.16C613.267 447.853 613.461 448.747 613.461 449.84V456H610.341V450.32C610.341 449.453 610.147 448.813 609.761 448.4C609.387 447.987 608.854 447.78 608.161 447.78C607.667 447.78 607.221 447.887 606.821 448.1C606.434 448.3 606.127 448.613 605.901 449.04C605.687 449.467 605.581 450.013 605.581 450.68V456H602.461V441.16H605.581V448.22L604.881 447.32C605.267 446.6 605.821 446.047 606.541 445.66C607.261 445.273 608.081 445.08 609.001 445.08ZM621.487 456.16C620.34 456.16 619.32 455.92 618.427 455.44C617.547 454.96 616.847 454.307 616.327 453.48C615.82 452.64 615.567 451.687 615.567 450.62C615.567 449.54 615.82 448.587 616.327 447.76C616.847 446.92 617.547 446.267 618.427 445.8C619.32 445.32 620.34 445.08 621.487 445.08C622.62 445.08 623.633 445.32 624.527 445.8C625.42 446.267 626.12 446.913 626.627 447.74C627.133 448.567 627.387 449.527 627.387 450.62C627.387 451.687 627.133 452.64 626.627 453.48C626.12 454.307 625.42 454.96 624.527 455.44C623.633 455.92 622.62 456.16 621.487 456.16ZM621.487 453.6C622.007 453.6 622.473 453.48 622.887 453.24C623.3 453 623.627 452.66 623.867 452.22C624.107 451.767 624.227 451.233 624.227 450.62C624.227 449.993 624.107 449.46 623.867 449.02C623.627 448.58 623.3 448.24 622.887 448C622.473 447.76 622.007 447.64 621.487 447.64C620.967 447.64 620.5 447.76 620.087 448C619.673 448.24 619.34 448.58 619.087 449.02C618.847 449.46 618.727 449.993 618.727 450.62C618.727 451.233 618.847 451.767 619.087 452.22C619.34 452.66 619.673 453 620.087 453.24C620.5 453.48 620.967 453.6 621.487 453.6ZM631.639 456L627.759 445.24H630.699L633.919 454.5H632.519L635.879 445.24H638.519L641.779 454.5H640.379L643.699 445.24H646.459L642.559 456H639.539L636.679 448.06H637.599L634.639 456H631.639Z" fill="#A0C339"/>
<path d="M170.927 767V753H177.767C179.527 753 180.847 753.333 181.727 754C182.62 754.667 183.067 755.547 183.067 756.64C183.067 757.373 182.887 758.013 182.527 758.56C182.167 759.093 181.674 759.507 181.047 759.8C180.42 760.093 179.7 760.24 178.887 760.24L179.267 759.42C180.147 759.42 180.927 759.567 181.607 759.86C182.287 760.14 182.814 760.56 183.187 761.12C183.574 761.68 183.767 762.367 183.767 763.18C183.767 764.38 183.294 765.32 182.347 766C181.4 766.667 180.007 767 178.167 767H170.927ZM174.147 764.56H177.927C178.767 764.56 179.4 764.427 179.827 764.16C180.267 763.88 180.487 763.44 180.487 762.84C180.487 762.253 180.267 761.82 179.827 761.54C179.4 761.247 178.767 761.1 177.927 761.1H173.907V758.74H177.367C178.154 758.74 178.754 758.607 179.167 758.34C179.594 758.06 179.807 757.64 179.807 757.08C179.807 756.533 179.594 756.127 179.167 755.86C178.754 755.58 178.154 755.44 177.367 755.44H174.147V764.56ZM192.6 767V764.9L192.4 764.44V760.68C192.4 760.013 192.193 759.493 191.78 759.12C191.38 758.747 190.76 758.56 189.92 758.56C189.347 758.56 188.78 758.653 188.22 758.84C187.673 759.013 187.207 759.253 186.82 759.56L185.7 757.38C186.287 756.967 186.993 756.647 187.82 756.42C188.647 756.193 189.487 756.08 190.34 756.08C191.98 756.08 193.253 756.467 194.16 757.24C195.067 758.013 195.52 759.22 195.52 760.86V767H192.6ZM189.32 767.16C188.48 767.16 187.76 767.02 187.16 766.74C186.56 766.447 186.1 766.053 185.78 765.56C185.46 765.067 185.3 764.513 185.3 763.9C185.3 763.26 185.453 762.7 185.76 762.22C186.08 761.74 186.58 761.367 187.26 761.1C187.94 760.82 188.827 760.68 189.92 760.68H192.78V762.5H190.26C189.527 762.5 189.02 762.62 188.74 762.86C188.473 763.1 188.34 763.4 188.34 763.76C188.34 764.16 188.493 764.48 188.8 764.72C189.12 764.947 189.553 765.06 190.1 765.06C190.62 765.06 191.087 764.94 191.5 764.7C191.913 764.447 192.213 764.08 192.4 763.6L192.88 765.04C192.653 765.733 192.24 766.26 191.64 766.62C191.04 766.98 190.267 767.16 189.32 767.16ZM203.622 767.16C202.462 767.16 201.429 766.927 200.522 766.46C199.615 765.98 198.902 765.32 198.382 764.48C197.875 763.64 197.622 762.687 197.622 761.62C197.622 760.54 197.875 759.587 198.382 758.76C198.902 757.92 199.615 757.267 200.522 756.8C201.429 756.32 202.462 756.08 203.622 756.08C204.755 756.08 205.742 756.32 206.582 756.8C207.422 757.267 208.042 757.94 208.442 758.82L206.022 760.12C205.742 759.613 205.389 759.24 204.962 759C204.549 758.76 204.095 758.64 203.602 758.64C203.069 758.64 202.589 758.76 202.162 759C201.735 759.24 201.395 759.58 201.142 760.02C200.902 760.46 200.782 760.993 200.782 761.62C200.782 762.247 200.902 762.78 201.142 763.22C201.395 763.66 201.735 764 202.162 764.24C202.589 764.48 203.069 764.6 203.602 764.6C204.095 764.6 204.549 764.487 204.962 764.26C205.389 764.02 205.742 763.64 206.022 763.12L208.442 764.44C208.042 765.307 207.422 765.98 206.582 766.46C205.742 766.927 204.755 767.16 203.622 767.16ZM212.76 764.8L212.84 761L217.86 756.24H221.58L216.76 761.14L215.14 762.46L212.76 764.8ZM210.18 767V752.16H213.3V767H210.18ZM218.2 767L214.56 762.48L216.52 760.06L221.98 767H218.2Z" fill="#A0C339"/>
<path d="M145.909 769.687L135.221 759L145.909 748.312L147.784 750.187L140.346 757.687L156.596 757.688L156.596 760.313L140.346 760.312L147.784 767.812L145.909 769.687Z" fill="#A0C339"/>
<path d="M767.372 22.2352L747.302 42.3052M747.302 22.2352L767.372 42.3052" stroke="#28544A" stroke-width="1.6" stroke-linecap="round" stroke-linejoin="round"/>
<circle cx="360.111" cy="158.111" r="11.1106" fill="#A0C339"/>
<circle cx="430.889" cy="158.111" r="11.1106" fill="#D9D9D9"/>
<circle cx="395.5" cy="158.111" r="11.1106" fill="#D9D9D9"/>
</svg>
