<svg width="791" height="940" viewBox="0 0 791 940" fill="none" xmlns="http://www.w3.org/2000/svg">
<rect width="790.45" height="939.37" rx="25" fill="white"/>
<path d="M335.411 168.48C333.171 168.48 331.024 168.187 328.971 167.6C326.917 166.987 325.264 166.2 324.011 165.24L326.211 160.36C327.411 161.213 328.824 161.92 330.451 162.48C332.104 163.013 333.771 163.28 335.451 163.28C336.731 163.28 337.757 163.16 338.531 162.92C339.331 162.653 339.917 162.293 340.291 161.84C340.664 161.387 340.851 160.867 340.851 160.28C340.851 159.533 340.557 158.947 339.971 158.52C339.384 158.067 338.611 157.707 337.651 157.44C336.691 157.147 335.624 156.88 334.451 156.64C333.304 156.373 332.144 156.053 330.971 155.68C329.824 155.307 328.771 154.827 327.811 154.24C326.851 153.653 326.064 152.88 325.451 151.92C324.864 150.96 324.571 149.733 324.571 148.24C324.571 146.64 324.997 145.187 325.851 143.88C326.731 142.547 328.037 141.493 329.771 140.72C331.531 139.92 333.731 139.52 336.371 139.52C338.131 139.52 339.864 139.733 341.571 140.16C343.277 140.56 344.784 141.173 346.091 142L344.091 146.92C342.784 146.173 341.477 145.627 340.171 145.28C338.864 144.907 337.584 144.72 336.331 144.72C335.077 144.72 334.051 144.867 333.251 145.16C332.451 145.453 331.877 145.84 331.531 146.32C331.184 146.773 331.011 147.307 331.011 147.92C331.011 148.64 331.304 149.227 331.891 149.68C332.477 150.107 333.251 150.453 334.211 150.72C335.171 150.987 336.224 151.253 337.371 151.52C338.544 151.787 339.704 152.093 340.851 152.44C342.024 152.787 343.091 153.253 344.051 153.84C345.011 154.427 345.784 155.2 346.371 156.16C346.984 157.12 347.291 158.333 347.291 159.8C347.291 161.373 346.851 162.813 345.971 164.12C345.091 165.427 343.771 166.48 342.011 167.28C340.277 168.08 338.077 168.48 335.411 168.48ZM351.278 168V146.48H357.518V168H351.278ZM354.398 143.48C353.252 143.48 352.318 143.147 351.598 142.48C350.878 141.813 350.518 140.987 350.518 140C350.518 139.013 350.878 138.187 351.598 137.52C352.318 136.853 353.252 136.52 354.398 136.52C355.545 136.52 356.478 136.84 357.198 137.48C357.918 138.093 358.278 138.893 358.278 139.88C358.278 140.92 357.918 141.787 357.198 142.48C356.505 143.147 355.572 143.48 354.398 143.48ZM373.43 176.08C371.403 176.08 369.443 175.827 367.55 175.32C365.683 174.84 364.123 174.107 362.87 173.12L365.35 168.64C366.256 169.387 367.403 169.973 368.79 170.4C370.203 170.853 371.59 171.08 372.95 171.08C375.163 171.08 376.763 170.587 377.75 169.6C378.763 168.613 379.27 167.147 379.27 165.2V161.96L379.67 156.56L379.59 151.12V146.48H385.51V164.4C385.51 168.4 384.47 171.347 382.39 173.24C380.31 175.133 377.323 176.08 373.43 176.08ZM372.47 166.96C370.47 166.96 368.656 166.533 367.03 165.68C365.43 164.8 364.136 163.587 363.15 162.04C362.19 160.467 361.71 158.64 361.71 156.56C361.71 154.453 362.19 152.627 363.15 151.08C364.136 149.507 365.43 148.293 367.03 147.44C368.656 146.587 370.47 146.16 372.47 146.16C374.283 146.16 375.883 146.533 377.27 147.28C378.656 148 379.736 149.133 380.51 150.68C381.283 152.2 381.67 154.16 381.67 156.56C381.67 158.933 381.283 160.893 380.51 162.44C379.736 163.96 378.656 165.093 377.27 165.84C375.883 166.587 374.283 166.96 372.47 166.96ZM373.71 161.84C374.803 161.84 375.776 161.627 376.63 161.2C377.483 160.747 378.15 160.12 378.63 159.32C379.11 158.52 379.35 157.6 379.35 156.56C379.35 155.493 379.11 154.573 378.63 153.8C378.15 153 377.483 152.387 376.63 151.96C375.776 151.507 374.803 151.28 373.71 151.28C372.616 151.28 371.643 151.507 370.79 151.96C369.936 152.387 369.256 153 368.75 153.8C368.27 154.573 368.03 155.493 368.03 156.56C368.03 157.6 368.27 158.52 368.75 159.32C369.256 160.12 369.936 160.747 370.79 161.2C371.643 161.627 372.616 161.84 373.71 161.84ZM404.398 146.16C406.104 146.16 407.624 146.507 408.958 147.2C410.318 147.867 411.384 148.907 412.158 150.32C412.931 151.707 413.318 153.493 413.318 155.68V168H407.078V156.64C407.078 154.907 406.691 153.627 405.918 152.8C405.171 151.973 404.104 151.56 402.718 151.56C401.731 151.56 400.838 151.773 400.038 152.2C399.264 152.6 398.651 153.227 398.198 154.08C397.771 154.933 397.558 156.027 397.558 157.36V168H391.318V146.48H397.278V152.44L396.158 150.64C396.931 149.2 398.038 148.093 399.478 147.32C400.918 146.547 402.558 146.16 404.398 146.16ZM430.302 168V146.48H436.542V168H430.302ZM433.422 143.48C432.275 143.48 431.342 143.147 430.622 142.48C429.902 141.813 429.542 140.987 429.542 140C429.542 139.013 429.902 138.187 430.622 137.52C431.342 136.853 432.275 136.52 433.422 136.52C434.569 136.52 435.502 136.84 436.222 137.48C436.942 138.093 437.302 138.893 437.302 139.88C437.302 140.92 436.942 141.787 436.222 142.48C435.529 143.147 434.595 143.48 433.422 143.48ZM455.413 146.16C457.12 146.16 458.64 146.507 459.973 147.2C461.333 147.867 462.4 148.907 463.173 150.32C463.946 151.707 464.333 153.493 464.333 155.68V168H458.093V156.64C458.093 154.907 457.706 153.627 456.933 152.8C456.186 151.973 455.12 151.56 453.733 151.56C452.746 151.56 451.853 151.773 451.053 152.2C450.28 152.6 449.666 153.227 449.213 154.08C448.786 154.933 448.573 156.027 448.573 157.36V168H442.333V146.48H448.293V152.44L447.173 150.64C447.946 149.2 449.053 148.093 450.493 147.32C451.933 146.547 453.573 146.16 455.413 146.16Z" fill="#333333"/>
<rect x="132.5" y="630.5" width="525" height="71" rx="9.5" stroke="#A0C339"/>
<g clip-path="url(#clip0_1415_459)">
<mask id="mask0_1415_459" style="mask-type:luminance" maskUnits="userSpaceOnUse" x="264" y="648" width="35" height="36">
<path d="M298.664 662.753H281.873V669.482H291.521C291.366 670.434 291.018 671.37 290.508 672.225C289.923 673.203 289.201 673.948 288.461 674.516C286.243 676.215 283.657 676.563 281.861 676.563C277.325 676.563 273.449 673.631 271.948 669.647C271.888 669.502 271.847 669.353 271.798 669.205C271.467 668.191 271.286 667.117 271.286 666.001C271.286 664.839 271.482 663.728 271.84 662.677C273.25 658.535 277.214 655.442 281.864 655.442C282.8 655.442 283.7 655.553 284.555 655.775C286.507 656.283 287.888 657.282 288.734 658.073L293.839 653.073C290.734 650.225 286.685 648.5 281.856 648.5C277.995 648.5 274.431 649.703 271.51 651.736C269.141 653.384 267.198 655.592 265.887 658.155C264.668 660.532 264 663.166 264 665.998C264 668.831 264.669 671.492 265.888 673.847V673.863C267.176 676.363 269.06 678.516 271.349 680.157C273.349 681.591 276.936 683.5 281.856 683.5C284.685 683.5 287.193 682.99 289.405 682.034C291 681.344 292.413 680.445 293.693 679.289C295.384 677.761 296.709 675.872 297.613 673.698C298.516 671.524 299 669.066 299 666.401C299 665.159 298.875 663.899 298.664 662.753V662.753Z" fill="white"/>
</mask>
<g mask="url(#mask0_1415_459)">
<g filter="url(#filter0_f_1415_459)">
<path d="M263.742 666.117C263.761 668.905 264.555 671.781 265.758 674.103V674.119C266.626 675.805 267.814 677.137 269.166 678.456L277.334 675.476C275.788 674.691 275.553 674.21 274.445 673.333C273.313 672.191 272.469 670.881 271.944 669.344H271.923L271.944 669.328C271.598 668.314 271.564 667.237 271.551 666.117H263.742Z" fill="url(#paint0_radial_1415_459)"/>
</g>
<g filter="url(#filter1_f_1415_459)">
<path d="M281.873 648.373C281.066 651.209 281.374 653.966 281.873 655.57C282.805 655.571 283.703 655.682 284.555 655.903C286.507 656.411 287.888 657.41 288.734 658.201L293.97 653.073C290.868 650.229 287.135 648.378 281.873 648.373Z" fill="url(#paint1_radial_1415_459)"/>
</g>
<g filter="url(#filter2_f_1415_459)">
<path d="M281.855 648.351C277.895 648.351 274.24 649.584 271.244 651.669C270.131 652.444 269.111 653.338 268.202 654.332C267.963 656.566 269.984 659.312 273.986 659.289C275.927 657.031 278.799 655.57 281.995 655.57C281.998 655.57 282 655.57 282.003 655.57L281.873 648.351C281.867 648.351 281.861 648.351 281.855 648.351Z" fill="url(#paint2_radial_1415_459)"/>
</g>
<g filter="url(#filter3_f_1415_459)">
<path d="M294.925 666.926L291.391 669.355C291.236 670.307 290.887 671.243 290.377 672.098C289.793 673.076 289.07 673.821 288.33 674.389C286.117 676.085 283.538 676.434 281.742 676.435C279.887 679.596 279.561 681.179 281.873 683.73C284.733 683.728 287.269 683.211 289.506 682.244C291.122 681.545 292.555 680.634 293.852 679.462C295.565 677.914 296.908 675.999 297.824 673.796C298.74 671.593 299.23 669.102 299.23 666.401L294.925 666.926Z" fill="url(#paint3_radial_1415_459)"/>
</g>
<g filter="url(#filter4_f_1415_459)">
<path d="M281.612 662.498V669.737H298.617C298.766 668.746 299.261 667.463 299.261 666.401C299.261 665.16 299.136 663.644 298.925 662.498H281.612Z" fill="#3086FF"/>
</g>
<g filter="url(#filter5_f_1415_459)">
<path d="M268.283 654.077C267.233 655.225 266.337 656.51 265.626 657.9C264.407 660.277 263.739 663.167 263.739 665.999C263.739 666.039 263.742 666.078 263.742 666.118C264.283 667.153 271.203 666.955 271.551 666.118C271.551 666.079 271.547 666.041 271.547 666.002C271.547 664.84 271.743 663.984 272.101 662.934C272.542 661.638 273.233 660.445 274.116 659.418C274.317 659.162 274.851 658.612 275.007 658.282C275.066 658.157 274.899 658.086 274.89 658.042C274.879 657.993 274.655 658.032 274.605 657.996C274.445 657.879 274.13 657.818 273.938 657.763C273.528 657.647 272.849 657.391 272.472 657.126C271.28 656.288 269.419 655.286 268.283 654.077Z" fill="url(#paint4_radial_1415_459)"/>
</g>
<g filter="url(#filter6_f_1415_459)">
<path d="M272.498 658.047C275.262 659.722 276.057 657.202 277.896 656.413L274.698 649.782C273.522 650.277 272.41 650.891 271.379 651.608C269.839 652.68 268.48 653.988 267.356 655.476L272.498 658.047Z" fill="url(#paint5_radial_1415_459)"/>
</g>
<g filter="url(#filter7_f_1415_459)">
<path d="M273.623 674.964C269.912 676.304 269.331 676.352 268.989 678.652C269.642 679.289 270.343 679.879 271.088 680.413C273.089 681.847 276.936 683.756 281.856 683.756C281.862 683.756 281.867 683.755 281.873 683.755V676.307C281.869 676.307 281.865 676.307 281.861 676.307C280.019 676.307 278.546 675.823 277.037 674.982C276.665 674.774 275.989 675.332 275.646 675.082C275.173 674.739 274.033 675.378 273.623 674.964Z" fill="url(#paint6_radial_1415_459)"/>
</g>
<g opacity="0.5" filter="url(#filter8_f_1415_459)">
<path d="M279.699 676.072V683.626C280.388 683.707 281.104 683.756 281.856 683.756C282.609 683.756 283.338 683.717 284.046 683.646V676.123C283.253 676.259 282.505 676.307 281.861 676.307C281.119 676.307 280.398 676.221 279.699 676.072Z" fill="url(#paint7_linear_1415_459)"/>
</g>
</g>
</g>
<path d="M317.36 673.1C316.32 673.1 315.353 672.927 314.46 672.58C313.58 672.22 312.813 671.72 312.16 671.08C311.507 670.44 311 669.693 310.64 668.84C310.28 667.973 310.1 667.027 310.1 666C310.1 664.973 310.28 664.033 310.64 663.18C311 662.313 311.507 661.56 312.16 660.92C312.827 660.28 313.6 659.787 314.48 659.44C315.36 659.08 316.32 658.9 317.36 658.9C318.347 658.9 319.267 659.06 320.12 659.38C320.987 659.7 321.727 660.187 322.34 660.84L321.7 661.5C321.1 660.913 320.433 660.493 319.7 660.24C318.98 659.973 318.213 659.84 317.4 659.84C316.507 659.84 315.673 659.993 314.9 660.3C314.14 660.607 313.473 661.04 312.9 661.6C312.34 662.16 311.9 662.813 311.58 663.56C311.273 664.307 311.12 665.12 311.12 666C311.12 666.88 311.273 667.693 311.58 668.44C311.9 669.187 312.34 669.84 312.9 670.4C313.473 670.96 314.14 671.393 314.9 671.7C315.673 672.007 316.507 672.16 317.4 672.16C318.213 672.16 318.98 672.033 319.7 671.78C320.433 671.513 321.1 671.08 321.7 670.48L322.34 671.14C321.727 671.793 320.987 672.287 320.12 672.62C319.267 672.94 318.347 673.1 317.36 673.1ZM329.028 673.08C328.028 673.08 327.135 672.853 326.348 672.4C325.575 671.947 324.955 671.32 324.488 670.52C324.035 669.72 323.808 668.807 323.808 667.78C323.808 666.74 324.035 665.827 324.488 665.04C324.955 664.24 325.575 663.613 326.348 663.16C327.135 662.707 328.028 662.48 329.028 662.48C330.028 662.48 330.921 662.707 331.708 663.16C332.495 663.613 333.115 664.24 333.568 665.04C334.021 665.827 334.248 666.74 334.248 667.78C334.248 668.807 334.021 669.72 333.568 670.52C333.115 671.32 332.495 671.947 331.708 672.4C330.921 672.853 330.028 673.08 329.028 673.08ZM329.028 672.18C329.828 672.18 330.548 672 331.188 671.64C331.828 671.267 332.328 670.747 332.688 670.08C333.048 669.413 333.228 668.647 333.228 667.78C333.228 666.9 333.048 666.133 332.688 665.48C332.328 664.813 331.828 664.3 331.188 663.94C330.548 663.567 329.828 663.38 329.028 663.38C328.228 663.38 327.508 663.567 326.868 663.94C326.241 664.3 325.741 664.813 325.368 665.48C325.008 666.133 324.828 666.9 324.828 667.78C324.828 668.647 325.008 669.413 325.368 670.08C325.741 670.747 326.241 671.267 326.868 671.64C327.508 672 328.228 672.18 329.028 672.18ZM342.45 662.48C343.304 662.48 344.044 662.647 344.67 662.98C345.31 663.3 345.804 663.793 346.15 664.46C346.51 665.113 346.69 665.927 346.69 666.9V673H345.69V666.98C345.69 665.807 345.39 664.913 344.79 664.3C344.204 663.687 343.377 663.38 342.31 663.38C341.497 663.38 340.79 663.547 340.19 663.88C339.59 664.213 339.13 664.68 338.81 665.28C338.504 665.88 338.35 666.6 338.35 667.44V673H337.35V662.56H338.31V665.46L338.17 665.14C338.49 664.313 339.017 663.667 339.75 663.2C340.484 662.72 341.384 662.48 342.45 662.48ZM353.848 673.08C352.928 673.08 352.221 672.827 351.728 672.32C351.248 671.813 351.008 671.12 351.008 670.24V660.28H352.008V670.14C352.008 670.807 352.174 671.32 352.508 671.68C352.841 672.04 353.321 672.22 353.948 672.22C354.601 672.22 355.141 672.027 355.568 671.64L355.988 672.34C355.721 672.593 355.394 672.78 355.008 672.9C354.634 673.02 354.248 673.08 353.848 673.08ZM349.088 663.42V662.56H355.328V663.42H349.088ZM358.776 673V662.56H359.776V673H358.776ZM359.276 660.02C359.05 660.02 358.856 659.94 358.696 659.78C358.536 659.62 358.456 659.433 358.456 659.22C358.456 658.993 358.536 658.8 358.696 658.64C358.856 658.48 359.05 658.4 359.276 658.4C359.516 658.4 359.71 658.48 359.856 658.64C360.016 658.787 360.096 658.973 360.096 659.2C360.096 659.427 360.016 659.62 359.856 659.78C359.71 659.94 359.516 660.02 359.276 660.02ZM369.091 662.48C369.944 662.48 370.684 662.647 371.311 662.98C371.951 663.3 372.444 663.793 372.791 664.46C373.151 665.113 373.331 665.927 373.331 666.9V673H372.331V666.98C372.331 665.807 372.031 664.913 371.431 664.3C370.844 663.687 370.018 663.38 368.951 663.38C368.138 663.38 367.431 663.547 366.831 663.88C366.231 664.213 365.771 664.68 365.451 665.28C365.144 665.88 364.991 666.6 364.991 667.44V673H363.991V662.56H364.951V665.46L364.811 665.14C365.131 664.313 365.658 663.667 366.391 663.2C367.124 662.72 368.024 662.48 369.091 662.48ZM381.688 673.08C380.795 673.08 380.021 672.92 379.368 672.6C378.715 672.267 378.208 671.773 377.848 671.12C377.501 670.453 377.328 669.633 377.328 668.66V662.56H378.328V668.58C378.328 669.753 378.628 670.647 379.228 671.26C379.828 671.873 380.675 672.18 381.768 672.18C382.555 672.18 383.235 672.013 383.808 671.68C384.381 671.347 384.821 670.88 385.128 670.28C385.435 669.667 385.588 668.947 385.588 668.12V662.56H386.588V673H385.628V670.1L385.768 670.44C385.461 671.253 384.948 671.9 384.228 672.38C383.521 672.847 382.675 673.08 381.688 673.08ZM395.067 673.08C394.014 673.08 393.08 672.853 392.267 672.4C391.467 671.947 390.834 671.32 390.367 670.52C389.914 669.72 389.687 668.807 389.687 667.78C389.687 666.74 389.9 665.827 390.327 665.04C390.767 664.24 391.367 663.613 392.127 663.16C392.887 662.707 393.74 662.48 394.687 662.48C395.634 662.48 396.48 662.7 397.227 663.14C397.987 663.58 398.58 664.2 399.007 665C399.447 665.787 399.667 666.7 399.667 667.74C399.667 667.78 399.66 667.827 399.647 667.88C399.647 667.92 399.647 667.967 399.647 668.02H390.427V667.24H399.107L398.707 667.62C398.72 666.807 398.547 666.08 398.187 665.44C397.84 664.787 397.367 664.28 396.767 663.92C396.167 663.547 395.474 663.36 394.687 663.36C393.914 663.36 393.22 663.547 392.607 663.92C392.007 664.28 391.534 664.787 391.187 665.44C390.84 666.08 390.667 666.813 390.667 667.64V667.82C390.667 668.673 390.854 669.433 391.227 670.1C391.614 670.753 392.14 671.267 392.807 671.64C393.474 672 394.234 672.18 395.087 672.18C395.754 672.18 396.374 672.06 396.947 671.82C397.534 671.58 398.027 671.213 398.427 670.72L399.007 671.38C398.554 671.94 397.98 672.367 397.287 672.66C396.607 672.94 395.867 673.08 395.067 673.08ZM409.937 673L405.977 662.56H406.937L410.617 672.44H410.197L413.977 662.56H414.837L418.597 672.44H418.157L421.897 662.56H422.817L418.857 673H417.917L414.237 663.52H414.557L410.857 673H409.937ZM425.143 673V662.56H426.143V673H425.143ZM425.643 660.02C425.417 660.02 425.223 659.94 425.063 659.78C424.903 659.62 424.823 659.433 424.823 659.22C424.823 658.993 424.903 658.8 425.063 658.64C425.223 658.48 425.417 658.4 425.643 658.4C425.883 658.4 426.077 658.48 426.223 658.64C426.383 658.787 426.463 658.973 426.463 659.2C426.463 659.427 426.383 659.62 426.223 659.78C426.077 659.94 425.883 660.02 425.643 660.02ZM433.398 673.08C432.478 673.08 431.772 672.827 431.278 672.32C430.798 671.813 430.558 671.12 430.558 670.24V660.28H431.558V670.14C431.558 670.807 431.725 671.32 432.058 671.68C432.392 672.04 432.872 672.22 433.498 672.22C434.152 672.22 434.692 672.027 435.118 671.64L435.538 672.34C435.272 672.593 434.945 672.78 434.558 672.9C434.185 673.02 433.798 673.08 433.398 673.08ZM428.638 663.42V662.56H434.878V663.42H428.638ZM443.427 662.48C444.28 662.48 445.02 662.647 445.647 662.98C446.287 663.3 446.78 663.793 447.127 664.46C447.487 665.113 447.667 665.927 447.667 666.9V673H446.667V666.98C446.667 665.807 446.367 664.913 445.767 664.3C445.18 663.687 444.354 663.38 443.287 663.38C442.474 663.38 441.767 663.547 441.167 663.88C440.567 664.213 440.107 664.68 439.787 665.28C439.48 665.88 439.327 666.6 439.327 667.44V673H438.327V658.16H439.327V665.46L439.147 665.14C439.467 664.313 439.994 663.667 440.727 663.2C441.46 662.72 442.36 662.48 443.427 662.48ZM463.221 673.1C462.167 673.1 461.194 672.927 460.301 672.58C459.407 672.22 458.627 671.72 457.961 671.08C457.307 670.44 456.801 669.693 456.441 668.84C456.081 667.973 455.901 667.027 455.901 666C455.901 664.973 456.081 664.033 456.441 663.18C456.801 662.313 457.314 661.56 457.981 660.92C458.647 660.28 459.421 659.787 460.301 659.44C461.194 659.08 462.174 658.9 463.241 658.9C464.254 658.9 465.194 659.06 466.061 659.38C466.927 659.7 467.667 660.18 468.281 660.82L467.641 661.5C467.027 660.9 466.354 660.473 465.621 660.22C464.901 659.967 464.114 659.84 463.261 659.84C462.354 659.84 461.514 659.993 460.741 660.3C459.967 660.607 459.294 661.04 458.721 661.6C458.147 662.16 457.701 662.813 457.381 663.56C457.074 664.307 456.921 665.12 456.921 666C456.921 666.88 457.074 667.693 457.381 668.44C457.701 669.187 458.147 669.84 458.721 670.4C459.294 670.96 459.967 671.393 460.741 671.7C461.514 672.007 462.354 672.16 463.261 672.16C464.087 672.16 464.867 672.033 465.601 671.78C466.347 671.527 467.027 671.107 467.641 670.52L468.221 671.3C467.594 671.9 466.841 672.353 465.961 672.66C465.094 672.953 464.181 673.1 463.221 673.1ZM467.241 671.2V666.06H468.221V671.3L467.241 671.2ZM476.47 673.08C475.47 673.08 474.576 672.853 473.79 672.4C473.016 671.947 472.396 671.32 471.93 670.52C471.476 669.72 471.25 668.807 471.25 667.78C471.25 666.74 471.476 665.827 471.93 665.04C472.396 664.24 473.016 663.613 473.79 663.16C474.576 662.707 475.47 662.48 476.47 662.48C477.47 662.48 478.363 662.707 479.15 663.16C479.936 663.613 480.556 664.24 481.01 665.04C481.463 665.827 481.69 666.74 481.69 667.78C481.69 668.807 481.463 669.72 481.01 670.52C480.556 671.32 479.936 671.947 479.15 672.4C478.363 672.853 477.47 673.08 476.47 673.08ZM476.47 672.18C477.27 672.18 477.99 672 478.63 671.64C479.27 671.267 479.77 670.747 480.13 670.08C480.49 669.413 480.67 668.647 480.67 667.78C480.67 666.9 480.49 666.133 480.13 665.48C479.77 664.813 479.27 664.3 478.63 663.94C477.99 663.567 477.27 663.38 476.47 663.38C475.67 663.38 474.95 663.567 474.31 663.94C473.683 664.3 473.183 664.813 472.81 665.48C472.45 666.133 472.27 666.9 472.27 667.78C472.27 668.647 472.45 669.413 472.81 670.08C473.183 670.747 473.683 671.267 474.31 671.64C474.95 672 475.67 672.18 476.47 672.18ZM488.872 673.08C487.872 673.08 486.979 672.853 486.192 672.4C485.419 671.947 484.799 671.32 484.332 670.52C483.879 669.72 483.652 668.807 483.652 667.78C483.652 666.74 483.879 665.827 484.332 665.04C484.799 664.24 485.419 663.613 486.192 663.16C486.979 662.707 487.872 662.48 488.872 662.48C489.872 662.48 490.765 662.707 491.552 663.16C492.339 663.613 492.959 664.24 493.412 665.04C493.865 665.827 494.092 666.74 494.092 667.78C494.092 668.807 493.865 669.72 493.412 670.52C492.959 671.32 492.339 671.947 491.552 672.4C490.765 672.853 489.872 673.08 488.872 673.08ZM488.872 672.18C489.672 672.18 490.392 672 491.032 671.64C491.672 671.267 492.172 670.747 492.532 670.08C492.892 669.413 493.072 668.647 493.072 667.78C493.072 666.9 492.892 666.133 492.532 665.48C492.172 664.813 491.672 664.3 491.032 663.94C490.392 663.567 489.672 663.38 488.872 663.38C488.072 663.38 487.352 663.567 486.712 663.94C486.085 664.3 485.585 664.813 485.212 665.48C484.852 666.133 484.672 666.9 484.672 667.78C484.672 668.647 484.852 669.413 485.212 670.08C485.585 670.747 486.085 671.267 486.712 671.64C487.352 672 488.072 672.18 488.872 672.18ZM501.534 676.96C500.588 676.96 499.688 676.813 498.834 676.52C497.981 676.227 497.288 675.82 496.754 675.3L497.294 674.54C497.814 675.02 498.434 675.393 499.154 675.66C499.888 675.927 500.674 676.06 501.514 676.06C502.914 676.06 503.941 675.733 504.594 675.08C505.261 674.427 505.594 673.4 505.594 672V669.1L505.794 667.54L505.634 665.98V662.56H506.594V671.88C506.594 673.627 506.168 674.907 505.314 675.72C504.474 676.547 503.214 676.96 501.534 676.96ZM501.254 672.62C500.268 672.62 499.381 672.407 498.594 671.98C497.821 671.54 497.201 670.94 496.734 670.18C496.281 669.407 496.054 668.527 496.054 667.54C496.054 666.54 496.281 665.66 496.734 664.9C497.201 664.14 497.821 663.547 498.594 663.12C499.381 662.693 500.268 662.48 501.254 662.48C502.201 662.48 503.048 662.687 503.794 663.1C504.554 663.5 505.154 664.08 505.594 664.84C506.034 665.587 506.254 666.487 506.254 667.54C506.254 668.58 506.034 669.48 505.594 670.24C505.154 671 504.554 671.587 503.794 672C503.048 672.413 502.201 672.62 501.254 672.62ZM501.334 671.72C502.174 671.72 502.914 671.547 503.554 671.2C504.194 670.84 504.694 670.347 505.054 669.72C505.428 669.08 505.614 668.353 505.614 667.54C505.614 666.713 505.428 665.987 505.054 665.36C504.694 664.733 504.194 664.247 503.554 663.9C502.914 663.553 502.174 663.38 501.334 663.38C500.521 663.38 499.788 663.553 499.134 663.9C498.494 664.247 497.988 664.733 497.614 665.36C497.254 665.987 497.074 666.713 497.074 667.54C497.074 668.353 497.254 669.08 497.614 669.72C497.988 670.347 498.494 670.84 499.134 671.2C499.788 671.547 500.521 671.72 501.334 671.72ZM510.827 673V658.16H511.827V673H510.827ZM520.282 673.08C519.229 673.08 518.295 672.853 517.482 672.4C516.682 671.947 516.049 671.32 515.582 670.52C515.129 669.72 514.902 668.807 514.902 667.78C514.902 666.74 515.115 665.827 515.542 665.04C515.982 664.24 516.582 663.613 517.342 663.16C518.102 662.707 518.955 662.48 519.902 662.48C520.849 662.48 521.695 662.7 522.442 663.14C523.202 663.58 523.795 664.2 524.222 665C524.662 665.787 524.882 666.7 524.882 667.74C524.882 667.78 524.875 667.827 524.862 667.88C524.862 667.92 524.862 667.967 524.862 668.02H515.642V667.24H524.322L523.922 667.62C523.935 666.807 523.762 666.08 523.402 665.44C523.055 664.787 522.582 664.28 521.982 663.92C521.382 663.547 520.689 663.36 519.902 663.36C519.129 663.36 518.435 663.547 517.822 663.92C517.222 664.28 516.749 664.787 516.402 665.44C516.055 666.08 515.882 666.813 515.882 667.64V667.82C515.882 668.673 516.069 669.433 516.442 670.1C516.829 670.753 517.355 671.267 518.022 671.64C518.689 672 519.449 672.18 520.302 672.18C520.969 672.18 521.589 672.06 522.162 671.82C522.749 671.58 523.242 671.213 523.642 670.72L524.222 671.38C523.769 671.94 523.195 672.367 522.502 672.66C521.822 672.94 521.082 673.08 520.282 673.08Z" fill="black"/>
<rect x="132" y="477" width="526" height="72" rx="10" fill="#28544A"/>
<path d="M364.76 520.24C363.64 520.24 362.567 520.093 361.54 519.8C360.513 519.493 359.687 519.1 359.06 518.62L360.16 516.18C360.76 516.607 361.467 516.96 362.28 517.24C363.107 517.507 363.94 517.64 364.78 517.64C365.42 517.64 365.933 517.58 366.32 517.46C366.72 517.327 367.013 517.147 367.2 516.92C367.387 516.693 367.48 516.433 367.48 516.14C367.48 515.767 367.333 515.473 367.04 515.26C366.747 515.033 366.36 514.853 365.88 514.72C365.4 514.573 364.867 514.44 364.28 514.32C363.707 514.187 363.127 514.027 362.54 513.84C361.967 513.653 361.44 513.413 360.96 513.12C360.48 512.827 360.087 512.44 359.78 511.96C359.487 511.48 359.34 510.867 359.34 510.12C359.34 509.32 359.553 508.593 359.98 507.94C360.42 507.273 361.073 506.747 361.94 506.36C362.82 505.96 363.92 505.76 365.24 505.76C366.12 505.76 366.987 505.867 367.84 506.08C368.693 506.28 369.447 506.587 370.1 507L369.1 509.46C368.447 509.087 367.793 508.813 367.14 508.64C366.487 508.453 365.847 508.36 365.22 508.36C364.593 508.36 364.08 508.433 363.68 508.58C363.28 508.727 362.993 508.92 362.82 509.16C362.647 509.387 362.56 509.653 362.56 509.96C362.56 510.32 362.707 510.613 363 510.84C363.293 511.053 363.68 511.227 364.16 511.36C364.64 511.493 365.167 511.627 365.74 511.76C366.327 511.893 366.907 512.047 367.48 512.22C368.067 512.393 368.6 512.627 369.08 512.92C369.56 513.213 369.947 513.6 370.24 514.08C370.547 514.56 370.7 515.167 370.7 515.9C370.7 516.687 370.48 517.407 370.04 518.06C369.6 518.713 368.94 519.24 368.06 519.64C367.193 520.04 366.093 520.24 364.76 520.24ZM372.694 520V509.24H375.814V520H372.694ZM374.254 507.74C373.681 507.74 373.214 507.573 372.854 507.24C372.494 506.907 372.314 506.493 372.314 506C372.314 505.507 372.494 505.093 372.854 504.76C373.214 504.427 373.681 504.26 374.254 504.26C374.827 504.26 375.294 504.42 375.654 504.74C376.014 505.047 376.194 505.447 376.194 505.94C376.194 506.46 376.014 506.893 375.654 507.24C375.307 507.573 374.841 507.74 374.254 507.74ZM383.77 524.04C382.756 524.04 381.776 523.913 380.83 523.66C379.896 523.42 379.116 523.053 378.49 522.56L379.73 520.32C380.183 520.693 380.756 520.987 381.45 521.2C382.156 521.427 382.85 521.54 383.53 521.54C384.636 521.54 385.436 521.293 385.93 520.8C386.436 520.307 386.69 519.573 386.69 518.6V516.98L386.89 514.28L386.85 511.56V509.24H389.81V518.2C389.81 520.2 389.29 521.673 388.25 522.62C387.21 523.567 385.716 524.04 383.77 524.04ZM383.29 519.48C382.29 519.48 381.383 519.267 380.57 518.84C379.77 518.4 379.123 517.793 378.63 517.02C378.15 516.233 377.91 515.32 377.91 514.28C377.91 513.227 378.15 512.313 378.63 511.54C379.123 510.753 379.77 510.147 380.57 509.72C381.383 509.293 382.29 509.08 383.29 509.08C384.196 509.08 384.996 509.267 385.69 509.64C386.383 510 386.923 510.567 387.31 511.34C387.696 512.1 387.89 513.08 387.89 514.28C387.89 515.467 387.696 516.447 387.31 517.22C386.923 517.98 386.383 518.547 385.69 518.92C384.996 519.293 384.196 519.48 383.29 519.48ZM383.91 516.92C384.456 516.92 384.943 516.813 385.37 516.6C385.796 516.373 386.13 516.06 386.37 515.66C386.61 515.26 386.73 514.8 386.73 514.28C386.73 513.747 386.61 513.287 386.37 512.9C386.13 512.5 385.796 512.193 385.37 511.98C384.943 511.753 384.456 511.64 383.91 511.64C383.363 511.64 382.876 511.753 382.45 511.98C382.023 512.193 381.683 512.5 381.43 512.9C381.19 513.287 381.07 513.747 381.07 514.28C381.07 514.8 381.19 515.26 381.43 515.66C381.683 516.06 382.023 516.373 382.45 516.6C382.876 516.813 383.363 516.92 383.91 516.92ZM399.253 509.08C400.107 509.08 400.867 509.253 401.533 509.6C402.213 509.933 402.747 510.453 403.133 511.16C403.52 511.853 403.713 512.747 403.713 513.84V520H400.593V514.32C400.593 513.453 400.4 512.813 400.013 512.4C399.64 511.987 399.107 511.78 398.413 511.78C397.92 511.78 397.473 511.887 397.073 512.1C396.687 512.3 396.38 512.613 396.153 513.04C395.94 513.467 395.833 514.013 395.833 514.68V520H392.713V509.24H395.693V512.22L395.133 511.32C395.52 510.6 396.073 510.047 396.793 509.66C397.513 509.273 398.333 509.08 399.253 509.08ZM412.206 520V509.24H415.326V520H412.206ZM413.766 507.74C413.192 507.74 412.726 507.573 412.366 507.24C412.006 506.907 411.826 506.493 411.826 506C411.826 505.507 412.006 505.093 412.366 504.76C412.726 504.427 413.192 504.26 413.766 504.26C414.339 504.26 414.806 504.42 415.166 504.74C415.526 505.047 415.706 505.447 415.706 505.94C415.706 506.46 415.526 506.893 415.166 507.24C414.819 507.573 414.352 507.74 413.766 507.74ZM424.761 509.08C425.615 509.08 426.375 509.253 427.041 509.6C427.721 509.933 428.255 510.453 428.641 511.16C429.028 511.853 429.221 512.747 429.221 513.84V520H426.101V514.32C426.101 513.453 425.908 512.813 425.521 512.4C425.148 511.987 424.615 511.78 423.921 511.78C423.428 511.78 422.981 511.887 422.581 512.1C422.195 512.3 421.888 512.613 421.661 513.04C421.448 513.467 421.341 514.013 421.341 514.68V520H418.221V509.24H421.201V512.22L420.641 511.32C421.028 510.6 421.581 510.047 422.301 509.66C423.021 509.273 423.841 509.08 424.761 509.08Z" fill="white"/>
<path d="M391.065 601.1C390.025 601.1 389.059 600.927 388.165 600.58C387.285 600.22 386.512 599.72 385.845 599.08C385.192 598.427 384.685 597.673 384.325 596.82C383.965 595.953 383.785 595.013 383.785 594C383.785 592.987 383.965 592.053 384.325 591.2C384.685 590.333 385.192 589.58 385.845 588.94C386.512 588.287 387.285 587.787 388.165 587.44C389.059 587.08 390.025 586.9 391.065 586.9C392.105 586.9 393.065 587.08 393.945 587.44C394.839 587.787 395.612 588.28 396.265 588.92C396.919 589.56 397.425 590.313 397.785 591.18C398.159 592.033 398.345 592.973 398.345 594C398.345 595.027 398.159 595.973 397.785 596.84C397.425 597.693 396.919 598.44 396.265 599.08C395.612 599.72 394.839 600.22 393.945 600.58C393.065 600.927 392.105 601.1 391.065 601.1ZM391.065 600.16C391.959 600.16 392.785 600.007 393.545 599.7C394.305 599.393 394.965 598.96 395.525 598.4C396.085 597.84 396.519 597.187 396.825 596.44C397.145 595.693 397.305 594.88 397.305 594C397.305 593.107 397.145 592.293 396.825 591.56C396.519 590.813 396.085 590.16 395.525 589.6C394.965 589.04 394.305 588.607 393.545 588.3C392.785 587.993 391.959 587.84 391.065 587.84C390.172 587.84 389.345 587.993 388.585 588.3C387.825 588.607 387.159 589.04 386.585 589.6C386.025 590.16 385.585 590.813 385.265 591.56C384.959 592.293 384.805 593.107 384.805 594C384.805 594.88 384.959 595.693 385.265 596.44C385.585 597.187 386.025 597.84 386.585 598.4C387.159 598.96 387.825 599.393 388.585 599.7C389.345 600.007 390.172 600.16 391.065 600.16ZM401.563 601V590.56H402.523V593.42L402.423 593.1C402.717 592.26 403.21 591.613 403.903 591.16C404.597 590.707 405.463 590.48 406.503 590.48V591.46C406.463 591.46 406.423 591.46 406.383 591.46C406.343 591.447 406.303 591.44 406.263 591.44C405.103 591.44 404.197 591.807 403.543 592.54C402.89 593.26 402.563 594.267 402.563 595.56V601H401.563Z" fill="black"/>
<rect x="132" y="594" width="234.619" height="1" fill="#D9D9D9"/>
<rect x="423.381" y="594" width="234.619" height="1" fill="#D9D9D9"/>
<path d="M141.058 431.3H147.778V433.9H141.058V431.3ZM141.298 439H138.058V425H148.638V427.6H141.298V439ZM155.478 439.16C154.331 439.16 153.311 438.92 152.418 438.44C151.538 437.96 150.838 437.307 150.318 436.48C149.811 435.64 149.558 434.687 149.558 433.62C149.558 432.54 149.811 431.587 150.318 430.76C150.838 429.92 151.538 429.267 152.418 428.8C153.311 428.32 154.331 428.08 155.478 428.08C156.611 428.08 157.625 428.32 158.518 428.8C159.411 429.267 160.111 429.913 160.618 430.74C161.125 431.567 161.378 432.527 161.378 433.62C161.378 434.687 161.125 435.64 160.618 436.48C160.111 437.307 159.411 437.96 158.518 438.44C157.625 438.92 156.611 439.16 155.478 439.16ZM155.478 436.6C155.998 436.6 156.465 436.48 156.878 436.24C157.291 436 157.618 435.66 157.858 435.22C158.098 434.767 158.218 434.233 158.218 433.62C158.218 432.993 158.098 432.46 157.858 432.02C157.618 431.58 157.291 431.24 156.878 431C156.465 430.76 155.998 430.64 155.478 430.64C154.958 430.64 154.491 430.76 154.078 431C153.665 431.24 153.331 431.58 153.078 432.02C152.838 432.46 152.718 432.993 152.718 433.62C152.718 434.233 152.838 434.767 153.078 435.22C153.331 435.66 153.665 436 154.078 436.24C154.491 436.48 154.958 436.6 155.478 436.6ZM163.463 439V428.24H166.443V431.28L166.023 430.4C166.343 429.64 166.857 429.067 167.563 428.68C168.27 428.28 169.13 428.08 170.143 428.08V430.96C170.01 430.947 169.89 430.94 169.783 430.94C169.677 430.927 169.563 430.92 169.443 430.92C168.59 430.92 167.897 431.167 167.363 431.66C166.843 432.14 166.583 432.893 166.583 433.92V439H163.463ZM176.98 443.04C175.967 443.04 174.987 442.913 174.04 442.66C173.107 442.42 172.327 442.053 171.7 441.56L172.94 439.32C173.394 439.693 173.967 439.987 174.66 440.2C175.367 440.427 176.06 440.54 176.74 440.54C177.847 440.54 178.647 440.293 179.14 439.8C179.647 439.307 179.9 438.573 179.9 437.6V435.98L180.1 433.28L180.06 430.56V428.24H183.02V437.2C183.02 439.2 182.5 440.673 181.46 441.62C180.42 442.567 178.927 443.04 176.98 443.04ZM176.5 438.48C175.5 438.48 174.594 438.267 173.78 437.84C172.98 437.4 172.334 436.793 171.84 436.02C171.36 435.233 171.12 434.32 171.12 433.28C171.12 432.227 171.36 431.313 171.84 430.54C172.334 429.753 172.98 429.147 173.78 428.72C174.594 428.293 175.5 428.08 176.5 428.08C177.407 428.08 178.207 428.267 178.9 428.64C179.594 429 180.134 429.567 180.52 430.34C180.907 431.1 181.1 432.08 181.1 433.28C181.1 434.467 180.907 435.447 180.52 436.22C180.134 436.98 179.594 437.547 178.9 437.92C178.207 438.293 177.407 438.48 176.5 438.48ZM177.12 435.92C177.667 435.92 178.154 435.813 178.58 435.6C179.007 435.373 179.34 435.06 179.58 434.66C179.82 434.26 179.94 433.8 179.94 433.28C179.94 432.747 179.82 432.287 179.58 431.9C179.34 431.5 179.007 431.193 178.58 430.98C178.154 430.753 177.667 430.64 177.12 430.64C176.574 430.64 176.087 430.753 175.66 430.98C175.234 431.193 174.894 431.5 174.64 431.9C174.4 432.287 174.28 432.747 174.28 433.28C174.28 433.8 174.4 434.26 174.64 434.66C174.894 435.06 175.234 435.373 175.66 435.6C176.087 435.813 176.574 435.92 177.12 435.92ZM191.044 439.16C189.898 439.16 188.878 438.92 187.984 438.44C187.104 437.96 186.404 437.307 185.884 436.48C185.378 435.64 185.124 434.687 185.124 433.62C185.124 432.54 185.378 431.587 185.884 430.76C186.404 429.92 187.104 429.267 187.984 428.8C188.878 428.32 189.898 428.08 191.044 428.08C192.178 428.08 193.191 428.32 194.084 428.8C194.978 429.267 195.678 429.913 196.184 430.74C196.691 431.567 196.944 432.527 196.944 433.62C196.944 434.687 196.691 435.64 196.184 436.48C195.678 437.307 194.978 437.96 194.084 438.44C193.191 438.92 192.178 439.16 191.044 439.16ZM191.044 436.6C191.564 436.6 192.031 436.48 192.444 436.24C192.858 436 193.184 435.66 193.424 435.22C193.664 434.767 193.784 434.233 193.784 433.62C193.784 432.993 193.664 432.46 193.424 432.02C193.184 431.58 192.858 431.24 192.444 431C192.031 430.76 191.564 430.64 191.044 430.64C190.524 430.64 190.058 430.76 189.644 431C189.231 431.24 188.898 431.58 188.644 432.02C188.404 432.46 188.284 432.993 188.284 433.62C188.284 434.233 188.404 434.767 188.644 435.22C188.898 435.66 189.231 436 189.644 436.24C190.058 436.48 190.524 436.6 191.044 436.6ZM203.43 439.16C202.163 439.16 201.177 438.84 200.47 438.2C199.763 437.547 199.41 436.58 199.41 435.3V425.86H202.53V435.26C202.53 435.713 202.65 436.067 202.89 436.32C203.13 436.56 203.457 436.68 203.87 436.68C204.363 436.68 204.783 436.547 205.13 436.28L205.97 438.48C205.65 438.707 205.263 438.88 204.81 439C204.37 439.107 203.91 439.16 203.43 439.16ZM197.75 430.88V428.48H205.21V430.88H197.75ZM219.745 439.16C218.839 439.16 218.045 438.96 217.365 438.56C216.685 438.16 216.152 437.553 215.765 436.74C215.392 435.913 215.205 434.873 215.205 433.62C215.205 432.353 215.385 431.313 215.745 430.5C216.105 429.687 216.625 429.08 217.305 428.68C217.985 428.28 218.799 428.08 219.745 428.08C220.759 428.08 221.665 428.313 222.465 428.78C223.279 429.233 223.919 429.873 224.385 430.7C224.865 431.527 225.105 432.5 225.105 433.62C225.105 434.753 224.865 435.733 224.385 436.56C223.919 437.387 223.279 438.027 222.465 438.48C221.665 438.933 220.759 439.16 219.745 439.16ZM213.385 442.88V428.24H216.365V430.44L216.305 433.64L216.505 436.82V442.88H213.385ZM219.205 436.6C219.725 436.6 220.185 436.48 220.585 436.24C220.999 436 221.325 435.66 221.565 435.22C221.819 434.767 221.945 434.233 221.945 433.62C221.945 432.993 221.819 432.46 221.565 432.02C221.325 431.58 220.999 431.24 220.585 431C220.185 430.76 219.725 430.64 219.205 430.64C218.685 430.64 218.219 430.76 217.805 431C217.392 431.24 217.065 431.58 216.825 432.02C216.585 432.46 216.465 432.993 216.465 433.62C216.465 434.233 216.585 434.767 216.825 435.22C217.065 435.66 217.392 436 217.805 436.24C218.219 436.48 218.685 436.6 219.205 436.6ZM233.618 439V436.9L233.418 436.44V432.68C233.418 432.013 233.211 431.493 232.798 431.12C232.398 430.747 231.778 430.56 230.938 430.56C230.365 430.56 229.798 430.653 229.238 430.84C228.691 431.013 228.225 431.253 227.838 431.56L226.718 429.38C227.305 428.967 228.011 428.647 228.838 428.42C229.665 428.193 230.505 428.08 231.358 428.08C232.998 428.08 234.271 428.467 235.178 429.24C236.085 430.013 236.538 431.22 236.538 432.86V439H233.618ZM230.338 439.16C229.498 439.16 228.778 439.02 228.178 438.74C227.578 438.447 227.118 438.053 226.798 437.56C226.478 437.067 226.318 436.513 226.318 435.9C226.318 435.26 226.471 434.7 226.778 434.22C227.098 433.74 227.598 433.367 228.278 433.1C228.958 432.82 229.845 432.68 230.938 432.68H233.798V434.5H231.278C230.545 434.5 230.038 434.62 229.758 434.86C229.491 435.1 229.358 435.4 229.358 435.76C229.358 436.16 229.511 436.48 229.818 436.72C230.138 436.947 230.571 437.06 231.118 437.06C231.638 437.06 232.105 436.94 232.518 436.7C232.931 436.447 233.231 436.08 233.418 435.6L233.898 437.04C233.671 437.733 233.258 438.26 232.658 438.62C232.058 438.98 231.285 439.16 230.338 439.16ZM242.982 439.16C242.062 439.16 241.175 439.053 240.322 438.84C239.482 438.613 238.815 438.333 238.322 438L239.362 435.76C239.855 436.067 240.435 436.32 241.102 436.52C241.782 436.707 242.449 436.8 243.102 436.8C243.822 436.8 244.329 436.713 244.622 436.54C244.929 436.367 245.082 436.127 245.082 435.82C245.082 435.567 244.962 435.38 244.722 435.26C244.495 435.127 244.189 435.027 243.802 434.96C243.415 434.893 242.989 434.827 242.522 434.76C242.069 434.693 241.609 434.607 241.142 434.5C240.675 434.38 240.249 434.207 239.862 433.98C239.475 433.753 239.162 433.447 238.922 433.06C238.695 432.673 238.582 432.173 238.582 431.56C238.582 430.88 238.775 430.28 239.162 429.76C239.562 429.24 240.135 428.833 240.882 428.54C241.629 428.233 242.522 428.08 243.562 428.08C244.295 428.08 245.042 428.16 245.802 428.32C246.562 428.48 247.195 428.713 247.702 429.02L246.662 431.24C246.142 430.933 245.615 430.727 245.082 430.62C244.562 430.5 244.055 430.44 243.562 430.44C242.869 430.44 242.362 430.533 242.042 430.72C241.722 430.907 241.562 431.147 241.562 431.44C241.562 431.707 241.675 431.907 241.902 432.04C242.142 432.173 242.455 432.28 242.842 432.36C243.229 432.44 243.649 432.513 244.102 432.58C244.569 432.633 245.035 432.72 245.502 432.84C245.969 432.96 246.389 433.133 246.762 433.36C247.149 433.573 247.462 433.873 247.702 434.26C247.942 434.633 248.062 435.127 248.062 435.74C248.062 436.407 247.862 437 247.462 437.52C247.062 438.027 246.482 438.427 245.722 438.72C244.975 439.013 244.062 439.16 242.982 439.16ZM253.607 439.16C252.687 439.16 251.8 439.053 250.947 438.84C250.107 438.613 249.44 438.333 248.947 438L249.987 435.76C250.48 436.067 251.06 436.32 251.727 436.52C252.407 436.707 253.074 436.8 253.727 436.8C254.447 436.8 254.954 436.713 255.247 436.54C255.554 436.367 255.707 436.127 255.707 435.82C255.707 435.567 255.587 435.38 255.347 435.26C255.12 435.127 254.814 435.027 254.427 434.96C254.04 434.893 253.614 434.827 253.147 434.76C252.694 434.693 252.234 434.607 251.767 434.5C251.3 434.38 250.874 434.207 250.487 433.98C250.1 433.753 249.787 433.447 249.547 433.06C249.32 432.673 249.207 432.173 249.207 431.56C249.207 430.88 249.4 430.28 249.787 429.76C250.187 429.24 250.76 428.833 251.507 428.54C252.254 428.233 253.147 428.08 254.187 428.08C254.92 428.08 255.667 428.16 256.427 428.32C257.187 428.48 257.82 428.713 258.327 429.02L257.287 431.24C256.767 430.933 256.24 430.727 255.707 430.62C255.187 430.5 254.68 430.44 254.187 430.44C253.494 430.44 252.987 430.533 252.667 430.72C252.347 430.907 252.187 431.147 252.187 431.44C252.187 431.707 252.3 431.907 252.527 432.04C252.767 432.173 253.08 432.28 253.467 432.36C253.854 432.44 254.274 432.513 254.727 432.58C255.194 432.633 255.66 432.72 256.127 432.84C256.594 432.96 257.014 433.133 257.387 433.36C257.774 433.573 258.087 433.873 258.327 434.26C258.567 434.633 258.687 435.127 258.687 435.74C258.687 436.407 258.487 437 258.087 437.52C257.687 438.027 257.107 438.427 256.347 438.72C255.6 439.013 254.687 439.16 253.607 439.16ZM262.877 439L258.997 428.24H261.937L265.157 437.5H263.757L267.117 428.24H269.757L273.017 437.5H271.617L274.937 428.24H277.697L273.797 439H270.777L267.917 431.06H268.837L265.877 439H262.877ZM283.974 439.16C282.827 439.16 281.807 438.92 280.914 438.44C280.034 437.96 279.334 437.307 278.814 436.48C278.307 435.64 278.054 434.687 278.054 433.62C278.054 432.54 278.307 431.587 278.814 430.76C279.334 429.92 280.034 429.267 280.914 428.8C281.807 428.32 282.827 428.08 283.974 428.08C285.107 428.08 286.121 428.32 287.014 428.8C287.907 429.267 288.607 429.913 289.114 430.74C289.621 431.567 289.874 432.527 289.874 433.62C289.874 434.687 289.621 435.64 289.114 436.48C288.607 437.307 287.907 437.96 287.014 438.44C286.121 438.92 285.107 439.16 283.974 439.16ZM283.974 436.6C284.494 436.6 284.961 436.48 285.374 436.24C285.787 436 286.114 435.66 286.354 435.22C286.594 434.767 286.714 434.233 286.714 433.62C286.714 432.993 286.594 432.46 286.354 432.02C286.114 431.58 285.787 431.24 285.374 431C284.961 430.76 284.494 430.64 283.974 430.64C283.454 430.64 282.987 430.76 282.574 431C282.161 431.24 281.827 431.58 281.574 432.02C281.334 432.46 281.214 432.993 281.214 433.62C281.214 434.233 281.334 434.767 281.574 435.22C281.827 435.66 282.161 436 282.574 436.24C282.987 436.48 283.454 436.6 283.974 436.6ZM291.96 439V428.24H294.94V431.28L294.52 430.4C294.84 429.64 295.353 429.067 296.06 428.68C296.766 428.28 297.626 428.08 298.64 428.08V430.96C298.506 430.947 298.386 430.94 298.28 430.94C298.173 430.927 298.06 430.92 297.94 430.92C297.086 430.92 296.393 431.167 295.86 431.66C295.34 432.14 295.08 432.893 295.08 433.92V439H291.96ZM305.037 439.16C304.023 439.16 303.11 438.933 302.297 438.48C301.483 438.013 300.837 437.367 300.357 436.54C299.89 435.713 299.657 434.74 299.657 433.62C299.657 432.487 299.89 431.507 300.357 430.68C300.837 429.853 301.483 429.213 302.297 428.76C303.11 428.307 304.023 428.08 305.037 428.08C305.943 428.08 306.737 428.28 307.417 428.68C308.097 429.08 308.623 429.687 308.997 430.5C309.37 431.313 309.557 432.353 309.557 433.62C309.557 434.873 309.377 435.913 309.017 436.74C308.657 437.553 308.137 438.16 307.457 438.56C306.79 438.96 305.983 439.16 305.037 439.16ZM305.577 436.6C306.083 436.6 306.543 436.48 306.957 436.24C307.37 436 307.697 435.66 307.937 435.22C308.19 434.767 308.317 434.233 308.317 433.62C308.317 432.993 308.19 432.46 307.937 432.02C307.697 431.58 307.37 431.24 306.957 431C306.543 430.76 306.083 430.64 305.577 430.64C305.057 430.64 304.59 430.76 304.177 431C303.763 431.24 303.43 431.58 303.177 432.02C302.937 432.46 302.817 432.993 302.817 433.62C302.817 434.233 302.937 434.767 303.177 435.22C303.43 435.66 303.763 436 304.177 436.24C304.59 436.48 305.057 436.6 305.577 436.6ZM308.397 439V436.8L308.457 433.6L308.257 430.42V424.16H311.377V439H308.397ZM317.164 434.14C317.164 433.673 317.238 433.26 317.384 432.9C317.544 432.54 317.738 432.22 317.964 431.94C318.204 431.66 318.458 431.4 318.724 431.16C318.991 430.92 319.238 430.693 319.464 430.48C319.704 430.253 319.898 430.02 320.044 429.78C320.204 429.54 320.284 429.273 320.284 428.98C320.284 428.5 320.084 428.113 319.684 427.82C319.298 427.527 318.778 427.38 318.124 427.38C317.498 427.38 316.938 427.513 316.444 427.78C315.951 428.033 315.544 428.393 315.224 428.86L312.804 427.44C313.338 426.627 314.078 425.98 315.024 425.5C315.971 425.007 317.118 424.76 318.464 424.76C319.464 424.76 320.344 424.907 321.104 425.2C321.864 425.48 322.458 425.893 322.884 426.44C323.324 426.987 323.544 427.66 323.544 428.46C323.544 428.98 323.464 429.44 323.304 429.84C323.144 430.24 322.938 430.587 322.684 430.88C322.431 431.173 322.158 431.447 321.864 431.7C321.584 431.953 321.318 432.2 321.064 432.44C320.811 432.68 320.598 432.933 320.424 433.2C320.264 433.467 320.184 433.78 320.184 434.14H317.164ZM318.684 439.16C318.124 439.16 317.664 438.98 317.304 438.62C316.944 438.26 316.764 437.833 316.764 437.34C316.764 436.833 316.944 436.413 317.304 436.08C317.664 435.733 318.124 435.56 318.684 435.56C319.258 435.56 319.718 435.733 320.064 436.08C320.424 436.413 320.604 436.833 320.604 437.34C320.604 437.833 320.424 438.26 320.064 438.62C319.718 438.98 319.258 439.16 318.684 439.16Z" fill="#A0C339"/>
<path d="M255.415 802V788H256.635L266.295 800.16H265.655V788H267.115V802H265.895L256.255 789.84H256.895V802H255.415ZM275.844 802.1C274.751 802.1 273.791 801.873 272.964 801.42C272.138 800.953 271.491 800.32 271.024 799.52C270.558 798.707 270.324 797.78 270.324 796.74C270.324 795.7 270.544 794.78 270.984 793.98C271.438 793.18 272.051 792.553 272.824 792.1C273.611 791.633 274.491 791.4 275.464 791.4C276.451 791.4 277.324 791.627 278.084 792.08C278.858 792.52 279.464 793.147 279.904 793.96C280.344 794.76 280.564 795.687 280.564 796.74C280.564 796.807 280.558 796.88 280.544 796.96C280.544 797.027 280.544 797.1 280.544 797.18H271.404V796.12H279.784L279.224 796.54C279.224 795.78 279.058 795.107 278.724 794.52C278.404 793.92 277.964 793.453 277.404 793.12C276.844 792.787 276.198 792.62 275.464 792.62C274.744 792.62 274.098 792.787 273.524 793.12C272.951 793.453 272.504 793.92 272.184 794.52C271.864 795.12 271.704 795.807 271.704 796.58V796.8C271.704 797.6 271.878 798.307 272.224 798.92C272.584 799.52 273.078 799.993 273.704 800.34C274.344 800.673 275.071 800.84 275.884 800.84C276.524 800.84 277.118 800.727 277.664 800.5C278.224 800.273 278.704 799.927 279.104 799.46L279.904 800.38C279.438 800.94 278.851 801.367 278.144 801.66C277.451 801.953 276.684 802.1 275.844 802.1ZM285.399 802L281.439 791.5H282.799L286.399 801.24H285.779L289.479 791.5H290.699L294.359 801.24H293.739L297.399 791.5H298.699L294.719 802H293.379L289.859 792.84H290.279L286.739 802H285.399ZM309.392 802.1C308.405 802.1 307.645 801.833 307.112 801.3C306.578 800.767 306.312 800.013 306.312 799.04V789.18H307.732V798.96C307.732 799.573 307.885 800.047 308.192 800.38C308.512 800.713 308.965 800.88 309.552 800.88C310.178 800.88 310.698 800.7 311.112 800.34L311.612 801.36C311.332 801.613 310.992 801.8 310.592 801.92C310.205 802.04 309.805 802.1 309.392 802.1ZM304.432 792.68V791.5H310.932V792.68H304.432ZM318.106 802.1C317.092 802.1 316.179 801.873 315.366 801.42C314.566 800.953 313.932 800.32 313.466 799.52C312.999 798.707 312.766 797.78 312.766 796.74C312.766 795.687 312.999 794.76 313.466 793.96C313.932 793.16 314.566 792.533 315.366 792.08C316.166 791.627 317.079 791.4 318.106 791.4C319.146 791.4 320.066 791.627 320.866 792.08C321.679 792.533 322.312 793.16 322.766 793.96C323.232 794.76 323.466 795.687 323.466 796.74C323.466 797.78 323.232 798.707 322.766 799.52C322.312 800.32 321.679 800.953 320.866 801.42C320.052 801.873 319.132 802.1 318.106 802.1ZM318.106 800.84C318.866 800.84 319.539 800.673 320.126 800.34C320.712 799.993 321.172 799.513 321.506 798.9C321.852 798.273 322.026 797.553 322.026 796.74C322.026 795.913 321.852 795.193 321.506 794.58C321.172 793.967 320.712 793.493 320.126 793.16C319.539 792.813 318.872 792.64 318.126 792.64C317.379 792.64 316.712 792.813 316.126 793.16C315.539 793.493 315.072 793.967 314.726 794.58C314.379 795.193 314.206 795.913 314.206 796.74C314.206 797.553 314.379 798.273 314.726 798.9C315.072 799.513 315.539 799.993 316.126 800.34C316.712 800.673 317.372 800.84 318.106 800.84ZM331.899 802V788H333.119L339.519 798.92H338.879L345.219 788H346.439V802H345.019V790.22H345.359L339.519 800.22H338.819L332.939 790.22H333.319V802H331.899ZM354.981 802.1C353.967 802.1 353.054 801.873 352.241 801.42C351.441 800.953 350.807 800.32 350.341 799.52C349.874 798.707 349.641 797.78 349.641 796.74C349.641 795.687 349.874 794.76 350.341 793.96C350.807 793.16 351.441 792.533 352.241 792.08C353.041 791.627 353.954 791.4 354.981 791.4C356.021 791.4 356.941 791.627 357.741 792.08C358.554 792.533 359.187 793.16 359.641 793.96C360.107 794.76 360.341 795.687 360.341 796.74C360.341 797.78 360.107 798.707 359.641 799.52C359.187 800.32 358.554 800.953 357.741 801.42C356.927 801.873 356.007 802.1 354.981 802.1ZM354.981 800.84C355.741 800.84 356.414 800.673 357.001 800.34C357.587 799.993 358.047 799.513 358.381 798.9C358.727 798.273 358.901 797.553 358.901 796.74C358.901 795.913 358.727 795.193 358.381 794.58C358.047 793.967 357.587 793.493 357.001 793.16C356.414 792.813 355.747 792.64 355.001 792.64C354.254 792.64 353.587 792.813 353.001 793.16C352.414 793.493 351.947 793.967 351.601 794.58C351.254 795.193 351.081 795.913 351.081 796.74C351.081 797.553 351.254 798.273 351.601 798.9C351.947 799.513 352.414 799.993 353.001 800.34C353.587 800.673 354.247 800.84 354.981 800.84ZM366.06 802.1C365.193 802.1 364.373 801.98 363.6 801.74C362.826 801.487 362.22 801.173 361.78 800.8L362.42 799.68C362.846 800 363.393 800.28 364.06 800.52C364.726 800.747 365.426 800.86 366.16 800.86C367.16 800.86 367.88 800.707 368.32 800.4C368.76 800.08 368.98 799.66 368.98 799.14C368.98 798.753 368.853 798.453 368.6 798.24C368.36 798.013 368.04 797.847 367.64 797.74C367.24 797.62 366.793 797.52 366.3 797.44C365.806 797.36 365.313 797.267 364.82 797.16C364.34 797.053 363.9 796.9 363.5 796.7C363.1 796.487 362.773 796.2 362.52 795.84C362.28 795.48 362.16 795 362.16 794.4C362.16 793.827 362.32 793.313 362.64 792.86C362.96 792.407 363.426 792.053 364.04 791.8C364.666 791.533 365.426 791.4 366.32 791.4C367 791.4 367.68 791.493 368.36 791.68C369.04 791.853 369.6 792.087 370.04 792.38L369.42 793.52C368.953 793.2 368.453 792.973 367.92 792.84C367.386 792.693 366.853 792.62 366.32 792.62C365.373 792.62 364.673 792.787 364.22 793.12C363.78 793.44 363.56 793.853 363.56 794.36C363.56 794.76 363.68 795.073 363.92 795.3C364.173 795.527 364.5 795.707 364.9 795.84C365.313 795.96 365.76 796.06 366.24 796.14C366.733 796.22 367.22 796.32 367.7 796.44C368.193 796.547 368.64 796.7 369.04 796.9C369.453 797.087 369.78 797.36 370.02 797.72C370.273 798.067 370.4 798.527 370.4 799.1C370.4 799.713 370.226 800.247 369.88 800.7C369.546 801.14 369.053 801.487 368.4 801.74C367.76 801.98 366.98 802.1 366.06 802.1ZM379.585 802V799.68L379.525 799.3V795.42C379.525 794.527 379.272 793.84 378.765 793.36C378.272 792.88 377.532 792.64 376.545 792.64C375.865 792.64 375.219 792.753 374.605 792.98C373.992 793.207 373.472 793.507 373.045 793.88L372.405 792.82C372.939 792.367 373.579 792.02 374.325 791.78C375.072 791.527 375.859 791.4 376.685 791.4C378.045 791.4 379.092 791.74 379.825 792.42C380.572 793.087 380.945 794.107 380.945 795.48V802H379.585ZM375.965 802.1C375.179 802.1 374.492 801.973 373.905 801.72C373.332 801.453 372.892 801.093 372.585 800.64C372.279 800.173 372.125 799.64 372.125 799.04C372.125 798.493 372.252 798 372.505 797.56C372.772 797.107 373.199 796.747 373.785 796.48C374.385 796.2 375.185 796.06 376.185 796.06H379.805V797.12H376.225C375.212 797.12 374.505 797.3 374.105 797.66C373.719 798.02 373.525 798.467 373.525 799C373.525 799.6 373.759 800.08 374.225 800.44C374.692 800.8 375.345 800.98 376.185 800.98C376.985 800.98 377.672 800.8 378.245 800.44C378.832 800.067 379.259 799.533 379.525 798.84L379.845 799.82C379.579 800.513 379.112 801.067 378.445 801.48C377.792 801.893 376.965 802.1 375.965 802.1ZM397.922 791.4C398.776 791.4 399.516 791.567 400.142 791.9C400.782 792.22 401.276 792.713 401.622 793.38C401.982 794.047 402.162 794.887 402.162 795.9V802H400.742V796.04C400.742 794.933 400.476 794.1 399.942 793.54C399.422 792.967 398.682 792.68 397.722 792.68C397.002 792.68 396.376 792.833 395.842 793.14C395.322 793.433 394.916 793.867 394.622 794.44C394.342 795 394.202 795.68 394.202 796.48V802H392.782V796.04C392.782 794.933 392.516 794.1 391.982 793.54C391.449 792.967 390.702 792.68 389.742 792.68C389.036 792.68 388.416 792.833 387.882 793.14C387.349 793.433 386.936 793.867 386.642 794.44C386.362 795 386.222 795.68 386.222 796.48V802H384.802V791.5H386.162V794.34L385.942 793.84C386.262 793.08 386.776 792.487 387.482 792.06C388.202 791.62 389.049 791.4 390.022 791.4C391.049 791.4 391.922 791.66 392.642 792.18C393.362 792.687 393.829 793.453 394.042 794.48L393.482 794.26C393.789 793.407 394.329 792.72 395.102 792.2C395.889 791.667 396.829 791.4 397.922 791.4ZM411.433 802.1C410.513 802.1 409.687 801.893 408.953 801.48C408.22 801.053 407.64 800.44 407.213 799.64C406.787 798.84 406.573 797.873 406.573 796.74C406.573 795.593 406.787 794.627 407.213 793.84C407.653 793.04 408.24 792.433 408.973 792.02C409.707 791.607 410.527 791.4 411.433 791.4C412.433 791.4 413.327 791.627 414.113 792.08C414.913 792.52 415.54 793.14 415.993 793.94C416.447 794.74 416.673 795.673 416.673 796.74C416.673 797.793 416.447 798.727 415.993 799.54C415.54 800.34 414.913 800.967 414.113 801.42C413.327 801.873 412.433 802.1 411.433 802.1ZM406.013 802V787.16H407.433V794.6L407.233 796.72L407.373 798.84V802H406.013ZM411.333 800.84C412.08 800.84 412.747 800.673 413.333 800.34C413.92 799.993 414.387 799.513 414.733 798.9C415.08 798.273 415.253 797.553 415.253 796.74C415.253 795.913 415.08 795.193 414.733 794.58C414.387 793.967 413.92 793.493 413.333 793.16C412.747 792.813 412.08 792.64 411.333 792.64C410.587 792.64 409.913 792.813 409.313 793.16C408.727 793.493 408.26 793.967 407.913 794.58C407.58 795.193 407.413 795.913 407.413 796.74C407.413 797.553 407.58 798.273 407.913 798.9C408.26 799.513 408.727 799.993 409.313 800.34C409.913 800.673 410.587 800.84 411.333 800.84ZM419.568 802V791.5H420.988V802H419.568ZM420.288 789.18C419.995 789.18 419.748 789.08 419.548 788.88C419.348 788.68 419.248 788.44 419.248 788.16C419.248 787.88 419.348 787.647 419.548 787.46C419.748 787.26 419.995 787.16 420.288 787.16C420.581 787.16 420.828 787.253 421.028 787.44C421.228 787.627 421.328 787.86 421.328 788.14C421.328 788.433 421.228 788.68 421.028 788.88C420.841 789.08 420.595 789.18 420.288 789.18ZM427.854 797.8C427.854 797.24 427.941 796.76 428.114 796.36C428.301 795.96 428.528 795.607 428.794 795.3C429.074 794.993 429.368 794.707 429.674 794.44C429.994 794.173 430.294 793.907 430.574 793.64C430.854 793.36 431.081 793.06 431.254 792.74C431.428 792.407 431.514 792.02 431.514 791.58C431.514 790.86 431.234 790.273 430.674 789.82C430.114 789.367 429.321 789.14 428.294 789.14C427.441 789.14 426.701 789.28 426.074 789.56C425.448 789.827 424.914 790.227 424.474 790.76L423.414 789.96C423.948 789.293 424.634 788.78 425.474 788.42C426.314 788.06 427.288 787.88 428.394 787.88C429.328 787.88 430.134 788.02 430.814 788.3C431.508 788.58 432.041 788.98 432.414 789.5C432.801 790.02 432.994 790.64 432.994 791.36C432.994 791.933 432.901 792.427 432.714 792.84C432.541 793.24 432.314 793.6 432.034 793.92C431.768 794.227 431.474 794.52 431.154 794.8C430.848 795.067 430.554 795.34 430.274 795.62C429.994 795.9 429.768 796.213 429.594 796.56C429.421 796.907 429.334 797.32 429.334 797.8H427.854ZM428.594 802.1C428.314 802.1 428.068 802 427.854 801.8C427.654 801.587 427.554 801.34 427.554 801.06C427.554 800.767 427.654 800.527 427.854 800.34C428.068 800.14 428.314 800.04 428.594 800.04C428.901 800.04 429.154 800.14 429.354 800.34C429.554 800.527 429.654 800.767 429.654 801.06C429.654 801.34 429.554 801.587 429.354 801.8C429.154 802 428.901 802.1 428.594 802.1Z" fill="black"/>
<path d="M443.976 802.24C443.03 802.24 442.156 802.067 441.356 801.72C440.57 801.36 439.923 800.853 439.416 800.2L441.216 798.04C441.603 798.547 442.01 798.933 442.436 799.2C442.863 799.453 443.323 799.58 443.816 799.58C445.136 799.58 445.796 798.807 445.796 797.26V790.6H440.876V788H449.016V797.08C449.016 798.813 448.59 800.107 447.736 800.96C446.883 801.813 445.63 802.24 443.976 802.24ZM457.117 802.16C455.97 802.16 454.95 801.92 454.057 801.44C453.177 800.96 452.477 800.307 451.957 799.48C451.45 798.64 451.197 797.687 451.197 796.62C451.197 795.54 451.45 794.587 451.957 793.76C452.477 792.92 453.177 792.267 454.057 791.8C454.95 791.32 455.97 791.08 457.117 791.08C458.25 791.08 459.263 791.32 460.157 791.8C461.05 792.267 461.75 792.913 462.257 793.74C462.763 794.567 463.017 795.527 463.017 796.62C463.017 797.687 462.763 798.64 462.257 799.48C461.75 800.307 461.05 800.96 460.157 801.44C459.263 801.92 458.25 802.16 457.117 802.16ZM457.117 799.6C457.637 799.6 458.103 799.48 458.517 799.24C458.93 799 459.257 798.66 459.497 798.22C459.737 797.767 459.857 797.233 459.857 796.62C459.857 795.993 459.737 795.46 459.497 795.02C459.257 794.58 458.93 794.24 458.517 794C458.103 793.76 457.637 793.64 457.117 793.64C456.597 793.64 456.13 793.76 455.717 794C455.303 794.24 454.97 794.58 454.717 795.02C454.477 795.46 454.357 795.993 454.357 796.62C454.357 797.233 454.477 797.767 454.717 798.22C454.97 798.66 455.303 799 455.717 799.24C456.13 799.48 456.597 799.6 457.117 799.6ZM465.102 802V791.24H468.222V802H465.102ZM466.662 789.74C466.089 789.74 465.622 789.573 465.262 789.24C464.902 788.907 464.722 788.493 464.722 788C464.722 787.507 464.902 787.093 465.262 786.76C465.622 786.427 466.089 786.26 466.662 786.26C467.235 786.26 467.702 786.42 468.062 786.74C468.422 787.047 468.602 787.447 468.602 787.94C468.602 788.46 468.422 788.893 468.062 789.24C467.715 789.573 467.249 789.74 466.662 789.74ZM477.658 791.08C478.511 791.08 479.271 791.253 479.938 791.6C480.618 791.933 481.151 792.453 481.538 793.16C481.924 793.853 482.118 794.747 482.118 795.84V802H478.998V796.32C478.998 795.453 478.804 794.813 478.418 794.4C478.044 793.987 477.511 793.78 476.818 793.78C476.324 793.78 475.878 793.887 475.478 794.1C475.091 794.3 474.784 794.613 474.558 795.04C474.344 795.467 474.238 796.013 474.238 796.68V802H471.118V791.24H474.098V794.22L473.538 793.32C473.924 792.6 474.478 792.047 475.198 791.66C475.918 791.273 476.738 791.08 477.658 791.08ZM490.83 802V788H493.51L501.77 798.08H500.47V788H503.67V802H501.01L492.73 791.92H494.03V802H490.83ZM511.882 802.16C510.736 802.16 509.716 801.92 508.822 801.44C507.942 800.96 507.242 800.307 506.722 799.48C506.216 798.64 505.962 797.687 505.962 796.62C505.962 795.54 506.216 794.587 506.722 793.76C507.242 792.92 507.942 792.267 508.822 791.8C509.716 791.32 510.736 791.08 511.882 791.08C513.016 791.08 514.029 791.32 514.922 791.8C515.816 792.267 516.516 792.913 517.022 793.74C517.529 794.567 517.782 795.527 517.782 796.62C517.782 797.687 517.529 798.64 517.022 799.48C516.516 800.307 515.816 800.96 514.922 801.44C514.029 801.92 513.016 802.16 511.882 802.16ZM511.882 799.6C512.402 799.6 512.869 799.48 513.282 799.24C513.696 799 514.022 798.66 514.262 798.22C514.502 797.767 514.622 797.233 514.622 796.62C514.622 795.993 514.502 795.46 514.262 795.02C514.022 794.58 513.696 794.24 513.282 794C512.869 793.76 512.402 793.64 511.882 793.64C511.362 793.64 510.896 793.76 510.482 794C510.069 794.24 509.736 794.58 509.482 795.02C509.242 795.46 509.122 795.993 509.122 796.62C509.122 797.233 509.242 797.767 509.482 798.22C509.736 798.66 510.069 799 510.482 799.24C510.896 799.48 511.362 799.6 511.882 799.6ZM522.035 802L518.155 791.24H521.095L524.315 800.5H522.915L526.275 791.24H528.915L532.175 800.5H530.775L534.095 791.24H536.855L532.955 802H529.935L527.075 794.06H527.995L525.035 802H522.035Z" fill="#A0C339"/>
<path d="M767.372 22.2354L747.302 42.3054M747.302 22.2354L767.372 42.3054" stroke="#28544A" stroke-width="1.6" stroke-linecap="round" stroke-linejoin="round"/>
<rect x="132.916" y="232.354" width="524.085" height="58.9067" rx="9.5" fill="#F6F8F6"/>
<rect x="132.916" y="232.354" width="524.085" height="58.9067" rx="9.5" stroke="#A0C339"/>
<path d="M145.756 261.247H153.336V262.147H145.756V261.247ZM145.876 267.887H154.516V268.807H144.856V254.807H154.216V255.727H145.876V267.887ZM170.915 258.287C171.755 258.287 172.481 258.453 173.095 258.787C173.721 259.107 174.208 259.6 174.555 260.267C174.901 260.92 175.075 261.733 175.075 262.707V268.807H174.075V262.787C174.075 261.613 173.788 260.72 173.215 260.107C172.641 259.493 171.841 259.187 170.815 259.187C170.028 259.187 169.348 259.353 168.775 259.687C168.201 260.02 167.761 260.487 167.455 261.087C167.148 261.687 166.995 262.407 166.995 263.247V268.807H165.995V262.787C165.995 261.613 165.708 260.72 165.135 260.107C164.561 259.493 163.761 259.187 162.735 259.187C161.948 259.187 161.268 259.353 160.695 259.687C160.121 260.02 159.681 260.487 159.375 261.087C159.068 261.687 158.915 262.407 158.915 263.247V268.807H157.915V258.367H158.875V261.247L158.735 260.927C159.041 260.113 159.555 259.473 160.275 259.007C160.995 258.527 161.861 258.287 162.875 258.287C163.915 258.287 164.788 258.553 165.495 259.087C166.215 259.607 166.668 260.387 166.855 261.427L166.515 261.287C166.795 260.393 167.321 259.673 168.095 259.127C168.868 258.567 169.808 258.287 170.915 258.287ZM185.784 268.807V266.427L185.744 266.067V262.147C185.744 261.173 185.477 260.433 184.944 259.927C184.424 259.42 183.657 259.167 182.644 259.167C181.924 259.167 181.25 259.293 180.624 259.547C180.01 259.787 179.484 260.1 179.044 260.487L178.544 259.767C179.064 259.3 179.69 258.94 180.424 258.687C181.157 258.42 181.924 258.287 182.724 258.287C184.017 258.287 185.01 258.613 185.704 259.267C186.397 259.92 186.744 260.893 186.744 262.187V268.807H185.784ZM182.024 268.887C181.25 268.887 180.577 268.767 180.004 268.527C179.444 268.273 179.01 267.92 178.704 267.467C178.41 267.013 178.264 266.493 178.264 265.907C178.264 265.373 178.384 264.893 178.624 264.467C178.877 264.027 179.29 263.673 179.864 263.407C180.437 263.127 181.204 262.987 182.164 262.987H186.004V263.767H182.184C181.104 263.767 180.344 263.967 179.904 264.367C179.477 264.767 179.264 265.267 179.264 265.867C179.264 266.533 179.517 267.067 180.024 267.467C180.53 267.867 181.244 268.067 182.164 268.067C183.044 268.067 183.784 267.867 184.384 267.467C184.997 267.067 185.45 266.487 185.744 265.727L186.024 266.407C185.744 267.167 185.264 267.773 184.584 268.227C183.917 268.667 183.064 268.887 182.024 268.887ZM190.864 268.807V258.367H191.864V268.807H190.864ZM191.364 255.827C191.137 255.827 190.944 255.747 190.784 255.587C190.624 255.427 190.544 255.24 190.544 255.027C190.544 254.8 190.624 254.607 190.784 254.447C190.944 254.287 191.137 254.207 191.364 254.207C191.604 254.207 191.797 254.287 191.944 254.447C192.104 254.593 192.184 254.78 192.184 255.007C192.184 255.233 192.104 255.427 191.944 255.587C191.797 255.747 191.604 255.827 191.364 255.827ZM196.079 268.807V253.967H197.079V268.807H196.079Z" fill="#64748B"/>
<path d="M135.92 208.04H143.12V209.74H135.92V208.04ZM136.1 214.26H144.26V216H134.1V202H143.98V203.74H136.1V214.26ZM160.478 205.3C161.332 205.3 162.085 205.467 162.738 205.8C163.392 206.133 163.898 206.64 164.258 207.32C164.632 208 164.818 208.86 164.818 209.9V216H162.898V210.12C162.898 209.093 162.658 208.32 162.178 207.8C161.698 207.28 161.025 207.02 160.158 207.02C159.518 207.02 158.958 207.153 158.478 207.42C157.998 207.687 157.625 208.08 157.358 208.6C157.105 209.12 156.978 209.767 156.978 210.54V216H155.058V210.12C155.058 209.093 154.818 208.32 154.338 207.8C153.872 207.28 153.198 207.02 152.318 207.02C151.692 207.02 151.138 207.153 150.658 207.42C150.178 207.687 149.805 208.08 149.538 208.6C149.272 209.12 149.138 209.767 149.138 210.54V216H147.218V205.4H149.058V208.22L148.758 207.5C149.092 206.807 149.605 206.267 150.298 205.88C150.992 205.493 151.798 205.3 152.718 205.3C153.732 205.3 154.605 205.553 155.338 206.06C156.072 206.553 156.552 207.307 156.778 208.32L155.998 208C156.318 207.187 156.878 206.533 157.678 206.04C158.478 205.547 159.412 205.3 160.478 205.3ZM174.931 216V213.76L174.831 213.34V209.52C174.831 208.707 174.591 208.08 174.111 207.64C173.645 207.187 172.938 206.96 171.991 206.96C171.365 206.96 170.751 207.067 170.151 207.28C169.551 207.48 169.045 207.753 168.631 208.1L167.831 206.66C168.378 206.22 169.031 205.887 169.791 205.66C170.565 205.42 171.371 205.3 172.211 205.3C173.665 205.3 174.785 205.653 175.571 206.36C176.358 207.067 176.751 208.147 176.751 209.6V216H174.931ZM171.451 216.12C170.665 216.12 169.971 215.987 169.371 215.72C168.785 215.453 168.331 215.087 168.011 214.62C167.691 214.14 167.531 213.6 167.531 213C167.531 212.427 167.665 211.907 167.931 211.44C168.211 210.973 168.658 210.6 169.271 210.32C169.898 210.04 170.738 209.9 171.791 209.9H175.151V211.28H171.871C170.911 211.28 170.265 211.44 169.931 211.76C169.598 212.08 169.431 212.467 169.431 212.92C169.431 213.44 169.638 213.86 170.051 214.18C170.465 214.487 171.038 214.64 171.771 214.64C172.491 214.64 173.118 214.48 173.651 214.16C174.198 213.84 174.591 213.373 174.831 212.76L175.211 214.08C174.958 214.707 174.511 215.207 173.871 215.58C173.231 215.94 172.425 216.12 171.451 216.12ZM180.304 216V205.4H182.224V216H180.304ZM181.264 203.36C180.891 203.36 180.578 203.24 180.324 203C180.084 202.76 179.964 202.467 179.964 202.12C179.964 201.76 180.084 201.46 180.324 201.22C180.578 200.98 180.891 200.86 181.264 200.86C181.638 200.86 181.944 200.98 182.184 201.22C182.438 201.447 182.564 201.733 182.564 202.08C182.564 202.44 182.444 202.747 182.204 203C181.964 203.24 181.651 203.36 181.264 203.36ZM185.89 216V201.16H187.81V216H185.89Z" fill="black"/>
<path d="M134.1 327V313H139.56C140.787 313 141.833 313.193 142.7 313.58C143.567 313.967 144.233 314.527 144.7 315.26C145.167 315.993 145.4 316.867 145.4 317.88C145.4 318.893 145.167 319.767 144.7 320.5C144.233 321.22 143.567 321.78 142.7 322.18C141.833 322.567 140.787 322.76 139.56 322.76H135.2L136.1 321.82V327H134.1ZM136.1 322.02L135.2 321.02H139.5C140.78 321.02 141.747 320.747 142.4 320.2C143.067 319.653 143.4 318.88 143.4 317.88C143.4 316.88 143.067 316.107 142.4 315.56C141.747 315.013 140.78 314.74 139.5 314.74H135.2L136.1 313.74V322.02ZM154.541 327V324.76L154.441 324.34V320.52C154.441 319.707 154.201 319.08 153.721 318.64C153.254 318.187 152.547 317.96 151.601 317.96C150.974 317.96 150.361 318.067 149.761 318.28C149.161 318.48 148.654 318.753 148.241 319.1L147.441 317.66C147.987 317.22 148.641 316.887 149.401 316.66C150.174 316.42 150.981 316.3 151.821 316.3C153.274 316.3 154.394 316.653 155.181 317.36C155.967 318.067 156.361 319.147 156.361 320.6V327H154.541ZM151.061 327.12C150.274 327.12 149.581 326.987 148.981 326.72C148.394 326.453 147.941 326.087 147.621 325.62C147.301 325.14 147.141 324.6 147.141 324C147.141 323.427 147.274 322.907 147.541 322.44C147.821 321.973 148.267 321.6 148.881 321.32C149.507 321.04 150.347 320.9 151.401 320.9H154.761V322.28H151.481C150.521 322.28 149.874 322.44 149.541 322.76C149.207 323.08 149.041 323.467 149.041 323.92C149.041 324.44 149.247 324.86 149.661 325.18C150.074 325.487 150.647 325.64 151.381 325.64C152.101 325.64 152.727 325.48 153.261 325.16C153.807 324.84 154.201 324.373 154.441 323.76L154.821 325.08C154.567 325.707 154.121 326.207 153.481 326.58C152.841 326.94 152.034 327.12 151.061 327.12ZM162.954 327.12C162.074 327.12 161.234 327 160.434 326.76C159.647 326.52 159.027 326.227 158.574 325.88L159.374 324.36C159.827 324.667 160.387 324.927 161.054 325.14C161.72 325.353 162.4 325.46 163.094 325.46C163.987 325.46 164.627 325.333 165.014 325.08C165.414 324.827 165.614 324.473 165.614 324.02C165.614 323.687 165.494 323.427 165.254 323.24C165.014 323.053 164.694 322.913 164.294 322.82C163.907 322.727 163.474 322.647 162.994 322.58C162.514 322.5 162.034 322.407 161.554 322.3C161.074 322.18 160.634 322.02 160.234 321.82C159.834 321.607 159.514 321.32 159.274 320.96C159.034 320.587 158.914 320.093 158.914 319.48C158.914 318.84 159.094 318.28 159.454 317.8C159.814 317.32 160.32 316.953 160.974 316.7C161.64 316.433 162.427 316.3 163.334 316.3C164.027 316.3 164.727 316.387 165.434 316.56C166.154 316.72 166.74 316.953 167.194 317.26L166.374 318.78C165.894 318.46 165.394 318.24 164.874 318.12C164.354 318 163.834 317.94 163.314 317.94C162.474 317.94 161.847 318.08 161.434 318.36C161.02 318.627 160.814 318.973 160.814 319.4C160.814 319.76 160.934 320.04 161.174 320.24C161.427 320.427 161.747 320.573 162.134 320.68C162.534 320.787 162.974 320.88 163.454 320.96C163.934 321.027 164.414 321.12 164.894 321.24C165.374 321.347 165.807 321.5 166.194 321.7C166.594 321.9 166.914 322.18 167.154 322.54C167.407 322.9 167.534 323.38 167.534 323.98C167.534 324.62 167.347 325.173 166.974 325.64C166.6 326.107 166.074 326.473 165.394 326.74C164.714 326.993 163.9 327.12 162.954 327.12ZM172.973 327.12C172.093 327.12 171.253 327 170.453 326.76C169.667 326.52 169.047 326.227 168.593 325.88L169.393 324.36C169.847 324.667 170.407 324.927 171.073 325.14C171.74 325.353 172.42 325.46 173.113 325.46C174.007 325.46 174.647 325.333 175.033 325.08C175.433 324.827 175.633 324.473 175.633 324.02C175.633 323.687 175.513 323.427 175.273 323.24C175.033 323.053 174.713 322.913 174.313 322.82C173.927 322.727 173.493 322.647 173.013 322.58C172.533 322.5 172.053 322.407 171.573 322.3C171.093 322.18 170.653 322.02 170.253 321.82C169.853 321.607 169.533 321.32 169.293 320.96C169.053 320.587 168.933 320.093 168.933 319.48C168.933 318.84 169.113 318.28 169.473 317.8C169.833 317.32 170.34 316.953 170.993 316.7C171.66 316.433 172.447 316.3 173.353 316.3C174.047 316.3 174.747 316.387 175.453 316.56C176.173 316.72 176.76 316.953 177.213 317.26L176.393 318.78C175.913 318.46 175.413 318.24 174.893 318.12C174.373 318 173.853 317.94 173.333 317.94C172.493 317.94 171.867 318.08 171.453 318.36C171.04 318.627 170.833 318.973 170.833 319.4C170.833 319.76 170.953 320.04 171.193 320.24C171.447 320.427 171.767 320.573 172.153 320.68C172.553 320.787 172.993 320.88 173.473 320.96C173.953 321.027 174.433 321.12 174.913 321.24C175.393 321.347 175.827 321.5 176.213 321.7C176.613 321.9 176.933 322.18 177.173 322.54C177.427 322.9 177.553 323.38 177.553 323.98C177.553 324.62 177.367 325.173 176.993 325.64C176.62 326.107 176.093 326.473 175.413 326.74C174.733 326.993 173.92 327.12 172.973 327.12ZM181.998 327L178.058 316.4H179.878L183.378 326H182.518L186.158 316.4H187.778L191.338 326H190.498L194.078 316.4H195.798L191.838 327H189.998L186.658 318.24H187.218L183.838 327H181.998ZM201.993 327.12C200.926 327.12 199.979 326.887 199.153 326.42C198.326 325.953 197.673 325.313 197.193 324.5C196.713 323.673 196.473 322.74 196.473 321.7C196.473 320.647 196.713 319.713 197.193 318.9C197.673 318.087 198.326 317.453 199.153 317C199.979 316.533 200.926 316.3 201.993 316.3C203.046 316.3 203.986 316.533 204.813 317C205.653 317.453 206.306 318.087 206.773 318.9C207.253 319.7 207.493 320.633 207.493 321.7C207.493 322.753 207.253 323.687 206.773 324.5C206.306 325.313 205.653 325.953 204.813 326.42C203.986 326.887 203.046 327.12 201.993 327.12ZM201.993 325.44C202.673 325.44 203.279 325.287 203.813 324.98C204.359 324.673 204.786 324.24 205.093 323.68C205.399 323.107 205.553 322.447 205.553 321.7C205.553 320.94 205.399 320.287 205.093 319.74C204.786 319.18 204.359 318.747 203.813 318.44C203.279 318.133 202.673 317.98 201.993 317.98C201.313 317.98 200.706 318.133 200.173 318.44C199.639 318.747 199.213 319.18 198.893 319.74C198.573 320.287 198.413 320.94 198.413 321.7C198.413 322.447 198.573 323.107 198.893 323.68C199.213 324.24 199.639 324.673 200.173 324.98C200.706 325.287 201.313 325.44 201.993 325.44ZM210.148 327V316.4H211.988V319.28L211.808 318.56C212.101 317.827 212.595 317.267 213.288 316.88C213.981 316.493 214.835 316.3 215.848 316.3V318.16C215.768 318.147 215.688 318.14 215.608 318.14C215.541 318.14 215.475 318.14 215.408 318.14C214.381 318.14 213.568 318.447 212.968 319.06C212.368 319.673 212.068 320.56 212.068 321.72V327H210.148ZM222.497 327.12C221.47 327.12 220.55 326.893 219.737 326.44C218.937 325.987 218.304 325.353 217.837 324.54C217.37 323.727 217.137 322.78 217.137 321.7C217.137 320.62 217.37 319.68 217.837 318.88C218.304 318.067 218.937 317.433 219.737 316.98C220.55 316.527 221.47 316.3 222.497 316.3C223.39 316.3 224.197 316.5 224.917 316.9C225.637 317.3 226.21 317.9 226.637 318.7C227.077 319.5 227.297 320.5 227.297 321.7C227.297 322.9 227.084 323.9 226.657 324.7C226.244 325.5 225.677 326.107 224.957 326.52C224.237 326.92 223.417 327.12 222.497 327.12ZM222.657 325.44C223.324 325.44 223.924 325.287 224.457 324.98C225.004 324.673 225.43 324.24 225.737 323.68C226.057 323.107 226.217 322.447 226.217 321.7C226.217 320.94 226.057 320.287 225.737 319.74C225.43 319.18 225.004 318.747 224.457 318.44C223.924 318.133 223.324 317.98 222.657 317.98C221.977 317.98 221.37 318.133 220.837 318.44C220.304 318.747 219.877 319.18 219.557 319.74C219.237 320.287 219.077 320.94 219.077 321.7C219.077 322.447 219.237 323.107 219.557 323.68C219.877 324.24 220.304 324.673 220.837 324.98C221.37 325.287 221.977 325.44 222.657 325.44ZM226.277 327V324.14L226.397 321.68L226.197 319.22V312.16H228.117V327H226.277Z" fill="black"/>
<rect x="132.916" y="343.847" width="524.085" height="58.9067" rx="9.5" fill="#F6F8F6"/>
<rect x="132.916" y="343.847" width="524.085" height="58.9067" rx="9.5" stroke="#A0C339"/>
<path d="M144.856 380.3V366.3H149.876C151.049 366.3 152.056 366.486 152.896 366.86C153.736 367.233 154.382 367.773 154.836 368.48C155.289 369.173 155.516 370.02 155.516 371.02C155.516 371.993 155.289 372.833 154.836 373.54C154.382 374.246 153.736 374.786 152.896 375.16C152.056 375.533 151.049 375.72 149.876 375.72H145.416L145.876 375.24V380.3H144.856ZM145.876 375.3L145.416 374.8H149.876C151.382 374.8 152.522 374.473 153.296 373.82C154.082 373.153 154.476 372.22 154.476 371.02C154.476 369.806 154.082 368.873 153.296 368.22C152.522 367.553 151.382 367.22 149.876 367.22H145.416L145.876 366.72V375.3ZM165.12 380.3V377.92L165.08 377.56V373.64C165.08 372.666 164.813 371.926 164.28 371.42C163.76 370.913 162.993 370.66 161.98 370.66C161.26 370.66 160.586 370.786 159.96 371.04C159.346 371.28 158.82 371.593 158.38 371.98L157.88 371.26C158.4 370.793 159.026 370.433 159.76 370.18C160.493 369.913 161.26 369.78 162.06 369.78C163.353 369.78 164.346 370.106 165.04 370.76C165.733 371.413 166.08 372.386 166.08 373.68V380.3H165.12ZM161.36 380.38C160.586 380.38 159.913 380.26 159.34 380.02C158.78 379.766 158.346 379.413 158.04 378.96C157.746 378.506 157.6 377.986 157.6 377.4C157.6 376.866 157.72 376.386 157.96 375.96C158.213 375.52 158.626 375.166 159.2 374.9C159.773 374.62 160.54 374.48 161.5 374.48H165.34V375.26H161.52C160.44 375.26 159.68 375.46 159.24 375.86C158.813 376.26 158.6 376.76 158.6 377.36C158.6 378.026 158.853 378.56 159.36 378.96C159.866 379.36 160.58 379.56 161.5 379.56C162.38 379.56 163.12 379.36 163.72 378.96C164.333 378.56 164.786 377.98 165.08 377.22L165.36 377.9C165.08 378.66 164.6 379.266 163.92 379.72C163.253 380.16 162.4 380.38 161.36 380.38ZM172.84 380.38C171.973 380.38 171.16 380.253 170.4 380C169.653 379.746 169.073 379.426 168.66 379.04L169.12 378.24C169.52 378.586 170.053 378.886 170.72 379.14C171.386 379.38 172.106 379.5 172.88 379.5C173.973 379.5 174.76 379.32 175.24 378.96C175.72 378.6 175.96 378.126 175.96 377.54C175.96 377.113 175.833 376.78 175.58 376.54C175.34 376.286 175.013 376.093 174.6 375.96C174.186 375.826 173.733 375.72 173.24 375.64C172.746 375.546 172.253 375.446 171.76 375.34C171.266 375.233 170.813 375.08 170.4 374.88C169.986 374.68 169.653 374.406 169.4 374.06C169.16 373.7 169.04 373.226 169.04 372.64C169.04 372.106 169.186 371.626 169.48 371.2C169.773 370.773 170.213 370.433 170.8 370.18C171.386 369.913 172.12 369.78 173 369.78C173.653 369.78 174.306 369.873 174.96 370.06C175.626 370.246 176.166 370.493 176.58 370.8L176.12 371.6C175.68 371.266 175.186 371.026 174.64 370.88C174.093 370.733 173.54 370.66 172.98 370.66C171.966 370.66 171.22 370.846 170.74 371.22C170.273 371.593 170.04 372.06 170.04 372.62C170.04 373.06 170.16 373.413 170.4 373.68C170.653 373.933 170.986 374.133 171.4 374.28C171.813 374.413 172.266 374.526 172.76 374.62C173.253 374.7 173.746 374.793 174.24 374.9C174.733 375.006 175.186 375.16 175.6 375.36C176.013 375.546 176.34 375.813 176.58 376.16C176.833 376.493 176.96 376.946 176.96 377.52C176.96 378.093 176.8 378.593 176.48 379.02C176.173 379.446 175.713 379.78 175.1 380.02C174.486 380.26 173.733 380.38 172.84 380.38ZM182.39 380.38C181.524 380.38 180.71 380.253 179.95 380C179.204 379.746 178.624 379.426 178.21 379.04L178.67 378.24C179.07 378.586 179.604 378.886 180.27 379.14C180.937 379.38 181.657 379.5 182.43 379.5C183.524 379.5 184.31 379.32 184.79 378.96C185.27 378.6 185.51 378.126 185.51 377.54C185.51 377.113 185.384 376.78 185.13 376.54C184.89 376.286 184.564 376.093 184.15 375.96C183.737 375.826 183.284 375.72 182.79 375.64C182.297 375.546 181.804 375.446 181.31 375.34C180.817 375.233 180.364 375.08 179.95 374.88C179.537 374.68 179.204 374.406 178.95 374.06C178.71 373.7 178.59 373.226 178.59 372.64C178.59 372.106 178.737 371.626 179.03 371.2C179.324 370.773 179.764 370.433 180.35 370.18C180.937 369.913 181.67 369.78 182.55 369.78C183.204 369.78 183.857 369.873 184.51 370.06C185.177 370.246 185.717 370.493 186.13 370.8L185.67 371.6C185.23 371.266 184.737 371.026 184.19 370.88C183.644 370.733 183.09 370.66 182.53 370.66C181.517 370.66 180.77 370.846 180.29 371.22C179.824 371.593 179.59 372.06 179.59 372.62C179.59 373.06 179.71 373.413 179.95 373.68C180.204 373.933 180.537 374.133 180.95 374.28C181.364 374.413 181.817 374.526 182.31 374.62C182.804 374.7 183.297 374.793 183.79 374.9C184.284 375.006 184.737 375.16 185.15 375.36C185.564 375.546 185.89 375.813 186.13 376.16C186.384 376.493 186.51 376.946 186.51 377.52C186.51 378.093 186.35 378.593 186.03 379.02C185.724 379.446 185.264 379.78 184.65 380.02C184.037 380.26 183.284 380.38 182.39 380.38ZM191.146 380.3L187.186 369.86H188.146L191.826 379.74H191.406L195.186 369.86H196.046L199.806 379.74H199.366L203.106 369.86H204.026L200.066 380.3H199.126L195.446 370.82H195.766L192.066 380.3H191.146ZM210.139 380.38C209.139 380.38 208.246 380.153 207.459 379.7C206.686 379.246 206.066 378.62 205.599 377.82C205.146 377.02 204.919 376.106 204.919 375.08C204.919 374.04 205.146 373.126 205.599 372.34C206.066 371.54 206.686 370.913 207.459 370.46C208.246 370.006 209.139 369.78 210.139 369.78C211.139 369.78 212.032 370.006 212.819 370.46C213.606 370.913 214.226 371.54 214.679 372.34C215.132 373.126 215.359 374.04 215.359 375.08C215.359 376.106 215.132 377.02 214.679 377.82C214.226 378.62 213.606 379.246 212.819 379.7C212.032 380.153 211.139 380.38 210.139 380.38ZM210.139 379.48C210.939 379.48 211.659 379.3 212.299 378.94C212.939 378.566 213.439 378.046 213.799 377.38C214.159 376.713 214.339 375.946 214.339 375.08C214.339 374.2 214.159 373.433 213.799 372.78C213.439 372.113 212.939 371.6 212.299 371.24C211.659 370.866 210.939 370.68 210.139 370.68C209.339 370.68 208.619 370.866 207.979 371.24C207.352 371.6 206.852 372.113 206.479 372.78C206.119 373.433 205.939 374.2 205.939 375.08C205.939 375.946 206.119 376.713 206.479 377.38C206.852 378.046 207.352 378.566 207.979 378.94C208.619 379.3 209.339 379.48 210.139 379.48ZM218.461 380.3V369.86H219.421V372.72L219.321 372.4C219.615 371.56 220.108 370.913 220.801 370.46C221.495 370.006 222.361 369.78 223.401 369.78V370.76C223.361 370.76 223.321 370.76 223.281 370.76C223.241 370.746 223.201 370.74 223.161 370.74C222.001 370.74 221.095 371.106 220.441 371.84C219.788 372.56 219.461 373.566 219.461 374.86V380.3H218.461ZM230.079 380.38C229.106 380.38 228.226 380.16 227.439 379.72C226.666 379.266 226.052 378.64 225.599 377.84C225.146 377.04 224.919 376.12 224.919 375.08C224.919 374.026 225.146 373.106 225.599 372.32C226.052 371.52 226.666 370.9 227.439 370.46C228.226 370.006 229.106 369.78 230.079 369.78C230.999 369.78 231.826 369.993 232.559 370.42C233.306 370.846 233.892 371.453 234.319 372.24C234.759 373.026 234.979 373.973 234.979 375.08C234.979 376.16 234.766 377.1 234.339 377.9C233.912 378.7 233.326 379.313 232.579 379.74C231.846 380.166 231.012 380.38 230.079 380.38ZM230.139 379.48C230.939 379.48 231.652 379.3 232.279 378.94C232.919 378.566 233.419 378.046 233.779 377.38C234.152 376.713 234.339 375.946 234.339 375.08C234.339 374.2 234.152 373.433 233.779 372.78C233.419 372.113 232.919 371.6 232.279 371.24C231.652 370.866 230.939 370.68 230.139 370.68C229.339 370.68 228.619 370.866 227.979 371.24C227.352 371.6 226.852 372.113 226.479 372.78C226.119 373.433 225.939 374.2 225.939 375.08C225.939 375.946 226.119 376.713 226.479 377.38C226.852 378.046 227.352 378.566 227.979 378.94C228.619 379.3 229.339 379.48 230.139 379.48ZM234.359 380.3V376.88L234.539 375.06L234.339 373.24V365.46H235.339V380.3H234.359Z" fill="#64748B"/>
<path d="M594.26 380.24C593.14 380.24 592.067 380.093 591.04 379.8C590.013 379.493 589.187 379.1 588.56 378.62L589.66 376.18C590.26 376.607 590.967 376.96 591.78 377.24C592.607 377.507 593.44 377.64 594.28 377.64C594.92 377.64 595.433 377.58 595.82 377.46C596.22 377.327 596.513 377.147 596.7 376.92C596.887 376.693 596.98 376.433 596.98 376.14C596.98 375.767 596.833 375.473 596.54 375.26C596.247 375.033 595.86 374.853 595.38 374.72C594.9 374.573 594.367 374.44 593.78 374.32C593.207 374.187 592.627 374.027 592.04 373.84C591.467 373.653 590.94 373.413 590.46 373.12C589.98 372.827 589.587 372.44 589.28 371.96C588.987 371.48 588.84 370.867 588.84 370.12C588.84 369.32 589.053 368.593 589.48 367.94C589.92 367.273 590.573 366.747 591.44 366.36C592.32 365.96 593.42 365.76 594.74 365.76C595.62 365.76 596.487 365.867 597.34 366.08C598.193 366.28 598.947 366.587 599.6 367L598.6 369.46C597.947 369.087 597.293 368.813 596.64 368.64C595.987 368.453 595.347 368.36 594.72 368.36C594.093 368.36 593.58 368.433 593.18 368.58C592.78 368.727 592.493 368.92 592.32 369.16C592.147 369.387 592.06 369.653 592.06 369.96C592.06 370.32 592.207 370.613 592.5 370.84C592.793 371.053 593.18 371.227 593.66 371.36C594.14 371.493 594.667 371.627 595.24 371.76C595.827 371.893 596.407 372.047 596.98 372.22C597.567 372.393 598.1 372.627 598.58 372.92C599.06 373.213 599.447 373.6 599.74 374.08C600.047 374.56 600.2 375.167 600.2 375.9C600.2 376.687 599.98 377.407 599.54 378.06C599.1 378.713 598.44 379.24 597.56 379.64C596.693 380.04 595.593 380.24 594.26 380.24ZM608.734 369.08C609.587 369.08 610.347 369.253 611.014 369.6C611.694 369.933 612.227 370.453 612.614 371.16C613.001 371.853 613.194 372.747 613.194 373.84V380H610.074V374.32C610.074 373.453 609.881 372.813 609.494 372.4C609.121 371.987 608.587 371.78 607.894 371.78C607.401 371.78 606.954 371.887 606.554 372.1C606.167 372.3 605.861 372.613 605.634 373.04C605.421 373.467 605.314 374.013 605.314 374.68V380H602.194V365.16H605.314V372.22L604.614 371.32C605.001 370.6 605.554 370.047 606.274 369.66C606.994 369.273 607.814 369.08 608.734 369.08ZM621.22 380.16C620.073 380.16 619.053 379.92 618.16 379.44C617.28 378.96 616.58 378.307 616.06 377.48C615.553 376.64 615.3 375.687 615.3 374.62C615.3 373.54 615.553 372.587 616.06 371.76C616.58 370.92 617.28 370.267 618.16 369.8C619.053 369.32 620.073 369.08 621.22 369.08C622.353 369.08 623.367 369.32 624.26 369.8C625.153 370.267 625.853 370.913 626.36 371.74C626.867 372.567 627.12 373.527 627.12 374.62C627.12 375.687 626.867 376.64 626.36 377.48C625.853 378.307 625.153 378.96 624.26 379.44C623.367 379.92 622.353 380.16 621.22 380.16ZM621.22 377.6C621.74 377.6 622.207 377.48 622.62 377.24C623.033 377 623.36 376.66 623.6 376.22C623.84 375.767 623.96 375.233 623.96 374.62C623.96 373.993 623.84 373.46 623.6 373.02C623.36 372.58 623.033 372.24 622.62 372C622.207 371.76 621.74 371.64 621.22 371.64C620.7 371.64 620.233 371.76 619.82 372C619.407 372.24 619.073 372.58 618.82 373.02C618.58 373.46 618.46 373.993 618.46 374.62C618.46 375.233 618.58 375.767 618.82 376.22C619.073 376.66 619.407 377 619.82 377.24C620.233 377.48 620.7 377.6 621.22 377.6ZM631.373 380L627.493 369.24H630.433L633.653 378.5H632.253L635.613 369.24H638.253L641.513 378.5H640.113L643.433 369.24H646.193L642.293 380H639.273L636.413 372.06H637.333L634.373 380H631.373Z" fill="#A0C339"/>
<defs>
<filter id="filter0_f_1415_459" x="263.272" y="665.647" width="14.5315" height="13.279" filterUnits="userSpaceOnUse" color-interpolation-filters="sRGB">
<feFlood flood-opacity="0" result="BackgroundImageFix"/>
<feBlend mode="normal" in="SourceGraphic" in2="BackgroundImageFix" result="shape"/>
<feGaussianBlur stdDeviation="0.23504" result="effect1_foregroundBlur_1415_459"/>
</filter>
<filter id="filter1_f_1415_459" x="280.906" y="647.903" width="13.5337" height="10.7683" filterUnits="userSpaceOnUse" color-interpolation-filters="sRGB">
<feFlood flood-opacity="0" result="BackgroundImageFix"/>
<feBlend mode="normal" in="SourceGraphic" in2="BackgroundImageFix" result="shape"/>
<feGaussianBlur stdDeviation="0.23504" result="effect1_foregroundBlur_1415_459"/>
</filter>
<filter id="filter2_f_1415_459" x="267.713" y="647.881" width="14.7608" height="11.8796" filterUnits="userSpaceOnUse" color-interpolation-filters="sRGB">
<feFlood flood-opacity="0" result="BackgroundImageFix"/>
<feBlend mode="normal" in="SourceGraphic" in2="BackgroundImageFix" result="shape"/>
<feGaussianBlur stdDeviation="0.23504" result="effect1_foregroundBlur_1415_459"/>
</filter>
<filter id="filter3_f_1415_459" x="279.774" y="665.931" width="19.9258" height="18.2683" filterUnits="userSpaceOnUse" color-interpolation-filters="sRGB">
<feFlood flood-opacity="0" result="BackgroundImageFix"/>
<feBlend mode="normal" in="SourceGraphic" in2="BackgroundImageFix" result="shape"/>
<feGaussianBlur stdDeviation="0.23504" result="effect1_foregroundBlur_1415_459"/>
</filter>
<filter id="filter4_f_1415_459" x="281.142" y="662.028" width="18.5893" height="8.17942" filterUnits="userSpaceOnUse" color-interpolation-filters="sRGB">
<feFlood flood-opacity="0" result="BackgroundImageFix"/>
<feBlend mode="normal" in="SourceGraphic" in2="BackgroundImageFix" result="shape"/>
<feGaussianBlur stdDeviation="0.23504" result="effect1_foregroundBlur_1415_459"/>
</filter>
<filter id="filter5_f_1415_459" x="263.269" y="653.607" width="12.2207" height="13.6853" filterUnits="userSpaceOnUse" color-interpolation-filters="sRGB">
<feFlood flood-opacity="0" result="BackgroundImageFix"/>
<feBlend mode="normal" in="SourceGraphic" in2="BackgroundImageFix" result="shape"/>
<feGaussianBlur stdDeviation="0.23504" result="effect1_foregroundBlur_1415_459"/>
</filter>
<filter id="filter6_f_1415_459" x="264.051" y="646.477" width="17.1489" height="15.4368" filterUnits="userSpaceOnUse" color-interpolation-filters="sRGB">
<feFlood flood-opacity="0" result="BackgroundImageFix"/>
<feBlend mode="normal" in="SourceGraphic" in2="BackgroundImageFix" result="shape"/>
<feGaussianBlur stdDeviation="1.65243" result="effect1_foregroundBlur_1415_459"/>
</filter>
<filter id="filter7_f_1415_459" x="268.519" y="674.464" width="13.8242" height="9.76145" filterUnits="userSpaceOnUse" color-interpolation-filters="sRGB">
<feFlood flood-opacity="0" result="BackgroundImageFix"/>
<feBlend mode="normal" in="SourceGraphic" in2="BackgroundImageFix" result="shape"/>
<feGaussianBlur stdDeviation="0.23504" result="effect1_foregroundBlur_1415_459"/>
</filter>
<filter id="filter8_f_1415_459" x="279.229" y="675.602" width="5.2872" height="8.62375" filterUnits="userSpaceOnUse" color-interpolation-filters="sRGB">
<feFlood flood-opacity="0" result="BackgroundImageFix"/>
<feBlend mode="normal" in="SourceGraphic" in2="BackgroundImageFix" result="shape"/>
<feGaussianBlur stdDeviation="0.23504" result="effect1_foregroundBlur_1415_459"/>
</filter>
<radialGradient id="paint0_radial_1415_459" cx="0" cy="0" r="1" gradientTransform="matrix(-0.727302 -17.4299 26.1495 -1.04595 277.17 678.194)" gradientUnits="userSpaceOnUse">
<stop offset="0.141612" stop-color="#1ABD4D"/>
<stop offset="0.247515" stop-color="#6EC30D"/>
<stop offset="0.311547" stop-color="#8AC502"/>
<stop offset="0.366013" stop-color="#A2C600"/>
<stop offset="0.445673" stop-color="#C8C903"/>
<stop offset="0.540305" stop-color="#EBCB03"/>
<stop offset="0.615636" stop-color="#F7CD07"/>
<stop offset="0.699345" stop-color="#FDCD04"/>
<stop offset="0.771242" stop-color="#FDCE05"/>
<stop offset="0.860566" stop-color="#FFCE0A"/>
</radialGradient>
<radialGradient id="paint1_radial_1415_459" cx="0" cy="0" r="1" gradientTransform="matrix(12.3516 -2.96854e-05 -1.73607e-05 15.6177 293.48 657.83)" gradientUnits="userSpaceOnUse">
<stop offset="0.408458" stop-color="#FB4E5A"/>
<stop offset="1" stop-color="#FF4540"/>
</radialGradient>
<radialGradient id="paint2_radial_1415_459" cx="0" cy="0" r="1" gradientTransform="matrix(-17.3055 9.38426 13.0065 22.9921 286.735 646.09)" gradientUnits="userSpaceOnUse">
<stop offset="0.231273" stop-color="#FF4541"/>
<stop offset="0.311547" stop-color="#FF4540"/>
<stop offset="0.457516" stop-color="#FF4640"/>
<stop offset="0.540305" stop-color="#FF473F"/>
<stop offset="0.699346" stop-color="#FF5138"/>
<stop offset="0.771242" stop-color="#FF5B33"/>
<stop offset="0.860566" stop-color="#FF6C29"/>
<stop offset="1" stop-color="#FF8C18"/>
</radialGradient>
<radialGradient id="paint3_radial_1415_459" cx="0" cy="0" r="1" gradientTransform="matrix(-31.384 -40.111 -15.1224 11.3422 282.13 681.464)" gradientUnits="userSpaceOnUse">
<stop offset="0.131546" stop-color="#0CBA65"/>
<stop offset="0.209784" stop-color="#0BB86D"/>
<stop offset="0.297297" stop-color="#09B479"/>
<stop offset="0.396257" stop-color="#08AD93"/>
<stop offset="0.477124" stop-color="#0AA6A9"/>
<stop offset="0.568425" stop-color="#0D9CC6"/>
<stop offset="0.667385" stop-color="#1893DD"/>
<stop offset="0.768727" stop-color="#258BF1"/>
<stop offset="0.858506" stop-color="#3086FF"/>
</radialGradient>
<radialGradient id="paint4_radial_1415_459" cx="0" cy="0" r="1" gradientTransform="matrix(-2.22097 18.7427 26.4689 3.00662 280.339 651.657)" gradientUnits="userSpaceOnUse">
<stop offset="0.366013" stop-color="#FF4E3A"/>
<stop offset="0.457516" stop-color="#FF8A1B"/>
<stop offset="0.540305" stop-color="#FFA312"/>
<stop offset="0.615636" stop-color="#FFB60C"/>
<stop offset="0.771242" stop-color="#FFCD0A"/>
<stop offset="0.860566" stop-color="#FECF0A"/>
<stop offset="0.915033" stop-color="#FECF08"/>
<stop offset="1" stop-color="#FDCD01"/>
</radialGradient>
<radialGradient id="paint5_radial_1415_459" cx="0" cy="0" r="1" gradientTransform="matrix(-6.41976 6.95155 -20.0261 -17.7284 277.216 651.462)" gradientUnits="userSpaceOnUse">
<stop offset="0.315904" stop-color="#FF4C3C"/>
<stop offset="0.603818" stop-color="#FF692C"/>
<stop offset="0.726837" stop-color="#FF7825"/>
<stop offset="0.884534" stop-color="#FF8D1B"/>
<stop offset="1" stop-color="#FF9F13"/>
</radialGradient>
<radialGradient id="paint6_radial_1415_459" cx="0" cy="0" r="1" gradientTransform="matrix(-17.3055 -9.38425 13.0065 -22.992 286.735 685.91)" gradientUnits="userSpaceOnUse">
<stop offset="0.231273" stop-color="#0FBC5F"/>
<stop offset="0.311547" stop-color="#0FBC5F"/>
<stop offset="0.366013" stop-color="#0FBC5E"/>
<stop offset="0.457516" stop-color="#0FBC5D"/>
<stop offset="0.540305" stop-color="#12BC58"/>
<stop offset="0.699346" stop-color="#28BF3C"/>
<stop offset="0.771242" stop-color="#38C02B"/>
<stop offset="0.860566" stop-color="#52C218"/>
<stop offset="0.915033" stop-color="#67C30F"/>
<stop offset="1" stop-color="#86C504"/>
</radialGradient>
<linearGradient id="paint7_linear_1415_459" x1="279.699" y1="679.914" x2="284.046" y2="679.914" gradientUnits="userSpaceOnUse">
<stop stop-color="#0FBC5C"/>
<stop offset="1" stop-color="#0CBA65"/>
</linearGradient>
<clipPath id="clip0_1415_459">
<rect width="35" height="35" fill="white" transform="translate(264 648.5)"/>
</clipPath>
</defs>
</svg>
